%TF.GenerationSoftware,KiCad,Pcbnew,(5.1.6)-1*%
%TF.CreationDate,2020-10-07T17:19:25+08:00*%
%TF.ProjectId,MGame HID,4d47616d-6520-4484-9944-2e6b69636164,rev?*%
%TF.SameCoordinates,Original*%
%TF.FileFunction,Copper,L2,Bot*%
%TF.FilePolarity,Positive*%
%FSLAX46Y46*%
G04 Gerber Fmt 4.6, Leading zero omitted, Abs format (unit mm)*
G04 Created by KiCad (PCBNEW (5.1.6)-1) date 2020-10-07 17:19:25*
%MOMM*%
%LPD*%
G01*
G04 APERTURE LIST*
%TA.AperFunction,ComponentPad*%
%ADD10O,3.600000X1.800000*%
%TD*%
%TA.AperFunction,ComponentPad*%
%ADD11R,3.600000X1.800000*%
%TD*%
%TA.AperFunction,ComponentPad*%
%ADD12O,1.800000X3.600000*%
%TD*%
%TA.AperFunction,ComponentPad*%
%ADD13R,1.800000X3.600000*%
%TD*%
%TA.AperFunction,ComponentPad*%
%ADD14O,1.727200X1.727200*%
%TD*%
%TA.AperFunction,ComponentPad*%
%ADD15R,1.727200X1.727200*%
%TD*%
%TA.AperFunction,ViaPad*%
%ADD16C,0.800000*%
%TD*%
%TA.AperFunction,Conductor*%
%ADD17C,0.300000*%
%TD*%
%TA.AperFunction,Conductor*%
%ADD18C,0.254000*%
%TD*%
G04 APERTURE END LIST*
D10*
%TO.P,J1,9*%
%TO.N,GND*%
X114300000Y-64770000D03*
%TO.P,J1,8*%
X114300000Y-68580000D03*
%TO.P,J1,7*%
X114300000Y-72390000D03*
%TO.P,J1,6*%
X114300000Y-76200000D03*
%TO.P,J1,5*%
X114300000Y-80010000D03*
%TO.P,J1,4*%
X114300000Y-83820000D03*
%TO.P,J1,3*%
X114300000Y-87630000D03*
%TO.P,J1,2*%
X114300000Y-91440000D03*
D11*
%TO.P,J1,1*%
X114300000Y-95250000D03*
%TD*%
%TO.P,J2,1*%
%TO.N,/BUT0*%
X131318000Y-95250000D03*
D10*
%TO.P,J2,2*%
%TO.N,/BUT1*%
X131318000Y-91440000D03*
%TO.P,J2,3*%
%TO.N,/BUT2*%
X131318000Y-87630000D03*
%TO.P,J2,4*%
%TO.N,/BUT3*%
X131318000Y-83820000D03*
%TO.P,J2,5*%
%TO.N,/BUT4*%
X131318000Y-80010000D03*
%TO.P,J2,6*%
%TO.N,/BUT5*%
X131318000Y-76200000D03*
%TO.P,J2,7*%
%TO.N,/BUT6*%
X131318000Y-72390000D03*
%TO.P,J2,8*%
%TO.N,/BUT7*%
X131318000Y-68580000D03*
%TO.P,J2,9*%
%TO.N,/BUT8*%
X131318000Y-64770000D03*
%TD*%
D12*
%TO.P,J3,6*%
%TO.N,GND*%
X186055000Y-107950000D03*
%TO.P,J3,5*%
%TO.N,/AUX2*%
X182245000Y-107950000D03*
%TO.P,J3,4*%
%TO.N,GND*%
X178435000Y-107950000D03*
%TO.P,J3,3*%
%TO.N,/AUX1*%
X174625000Y-107950000D03*
%TO.P,J3,2*%
%TO.N,GND*%
X170815000Y-107950000D03*
D13*
%TO.P,J3,1*%
%TO.N,/AUX0*%
X167005000Y-107950000D03*
%TD*%
D10*
%TO.P,J4,9*%
%TO.N,GND*%
X185420000Y-63500000D03*
%TO.P,J4,8*%
X185420000Y-67310000D03*
%TO.P,J4,7*%
X185420000Y-71120000D03*
%TO.P,J4,6*%
X185420000Y-74930000D03*
%TO.P,J4,5*%
X185420000Y-78740000D03*
%TO.P,J4,4*%
X185420000Y-82550000D03*
%TO.P,J4,3*%
X185420000Y-86360000D03*
%TO.P,J4,2*%
X185420000Y-90170000D03*
D11*
%TO.P,J4,1*%
X185420000Y-93980000D03*
%TD*%
%TO.P,J5,1*%
%TO.N,/LED0*%
X171450000Y-93980000D03*
D10*
%TO.P,J5,2*%
%TO.N,/LED1*%
X171450000Y-90170000D03*
%TO.P,J5,3*%
%TO.N,/LED2*%
X171450000Y-86360000D03*
%TO.P,J5,4*%
%TO.N,/LED3*%
X171450000Y-82550000D03*
%TO.P,J5,5*%
%TO.N,/LED4*%
X171450000Y-78740000D03*
%TO.P,J5,6*%
%TO.N,/LED5*%
X171450000Y-74930000D03*
%TO.P,J5,7*%
%TO.N,/LED6*%
X171450000Y-71120000D03*
%TO.P,J5,8*%
%TO.N,/LED7*%
X171450000Y-67310000D03*
%TO.P,J5,9*%
%TO.N,/LED8*%
X171450000Y-63500000D03*
%TD*%
D14*
%TO.P,XA1,*%
%TO.N,*%
X143620000Y-88831001D03*
%TO.P,XA1,RST2*%
%TO.N,Net-(XA1-PadRST2)*%
X158860000Y-96451001D03*
D15*
%TO.P,XA1,MOSI*%
%TO.N,/AUX1*%
X158860000Y-106611001D03*
D14*
%TO.P,XA1,SCK*%
%TO.N,/AUX2*%
X143620000Y-106611001D03*
%TO.P,XA1,A0*%
%TO.N,/BUT8*%
X143620000Y-73591001D03*
%TO.P,XA1,VIN*%
%TO.N,Net-(XA1-PadVIN)*%
X143620000Y-101531001D03*
%TO.P,XA1,GND2*%
%TO.N,GND*%
X158860000Y-93911001D03*
%TO.P,XA1,GND1*%
X143620000Y-98991001D03*
%TO.P,XA1,5V*%
%TO.N,Net-(XA1-Pad5V)*%
X143620000Y-93911001D03*
%TO.P,XA1,3V3*%
%TO.N,Net-(XA1-Pad3V3)*%
X143620000Y-68511001D03*
%TO.P,XA1,RST1*%
%TO.N,Net-(XA1-PadRST1)*%
X143620000Y-96451001D03*
%TO.P,XA1,SS*%
%TO.N,Net-(XA1-PadSS)*%
X158860000Y-104071001D03*
%TO.P,XA1,D0*%
%TO.N,Net-(R1-Pad1)*%
X158860000Y-98991001D03*
%TO.P,XA1,D1*%
%TO.N,/BUT0*%
X158860000Y-101531001D03*
%TO.P,XA1,D2*%
%TO.N,/BUT1*%
X158860000Y-91371001D03*
%TO.P,XA1,D3*%
%TO.N,/BUT2*%
X158860000Y-88831001D03*
%TO.P,XA1,D4*%
%TO.N,/LED0*%
X158860000Y-86291001D03*
%TO.P,XA1,D5*%
%TO.N,/LED1*%
X158860000Y-83751001D03*
%TO.P,XA1,D6*%
%TO.N,/LED2*%
X158860000Y-81211001D03*
%TO.P,XA1,D7*%
%TO.N,/LED3*%
X158860000Y-78671001D03*
%TO.P,XA1,D8*%
%TO.N,/LED4*%
X158860000Y-76131001D03*
%TO.P,XA1,D9*%
%TO.N,/LED5*%
X158860000Y-73591001D03*
%TO.P,XA1,D10*%
%TO.N,/LED6*%
X158860000Y-71051001D03*
%TO.P,XA1,AREF*%
%TO.N,Net-(XA1-PadAREF)*%
X143620000Y-71051001D03*
%TO.P,XA1,D13*%
%TO.N,Net-(XA1-PadD13)*%
X143620000Y-65971001D03*
%TO.P,XA1,D12*%
%TO.N,/LED8*%
X158860000Y-65971001D03*
%TO.P,XA1,D11*%
%TO.N,/LED7*%
X158860000Y-68511001D03*
%TO.P,XA1,*%
%TO.N,*%
X143620000Y-91371001D03*
%TO.P,XA1,A1*%
%TO.N,/BUT7*%
X143620000Y-76131001D03*
%TO.P,XA1,A2*%
%TO.N,/BUT6*%
X143620000Y-78671001D03*
%TO.P,XA1,A3*%
%TO.N,/BUT5*%
X143620000Y-81211001D03*
%TO.P,XA1,A4*%
%TO.N,/BUT4*%
X143620000Y-83751001D03*
%TO.P,XA1,A5*%
%TO.N,/BUT3*%
X143620000Y-86291001D03*
%TO.P,XA1,MISO*%
%TO.N,/AUX0*%
X143620000Y-104071001D03*
%TD*%
D16*
%TO.N,/BUT0*%
X141032600Y-95187400D03*
%TO.N,/BUT1*%
X141032600Y-90107400D03*
%TO.N,/BUT2*%
X141032600Y-87567400D03*
%TO.N,/BUT3*%
X140970000Y-83820000D03*
%TO.N,/BUT4*%
X140805499Y-80936501D03*
%TO.N,/BUT5*%
X140170500Y-77761500D03*
%TO.N,/BUT6*%
X139466501Y-74401499D03*
%TO.N,/BUT7*%
X140295001Y-70191001D03*
%TO.N,/BUT8*%
X140217500Y-66792500D03*
%TD*%
D17*
%TO.N,/BUT0*%
X140970000Y-95250000D02*
X141032600Y-95187400D01*
X131318000Y-95250000D02*
X140970000Y-95250000D01*
%TO.N,/BUT1*%
X139700000Y-91440000D02*
X141032600Y-90107400D01*
X131318000Y-91440000D02*
X139700000Y-91440000D01*
%TO.N,/BUT2*%
X140970000Y-87630000D02*
X141032600Y-87567400D01*
X131318000Y-87630000D02*
X140970000Y-87630000D01*
%TO.N,/BUT3*%
X131318000Y-83820000D02*
X140970000Y-83820000D01*
%TO.N,/BUT4*%
X139878998Y-80010000D02*
X140805499Y-80936501D01*
X131318000Y-80010000D02*
X139878998Y-80010000D01*
%TO.N,/BUT5*%
X131318000Y-76200000D02*
X138609000Y-76200000D01*
X138609000Y-76200000D02*
X140170500Y-77761500D01*
%TO.N,/BUT6*%
X137455002Y-72390000D02*
X139466501Y-74401499D01*
X131318000Y-72390000D02*
X137455002Y-72390000D01*
%TO.N,/BUT7*%
X131318000Y-68580000D02*
X138684000Y-68580000D01*
X138684000Y-68580000D02*
X140295001Y-70191001D01*
%TO.N,/BUT8*%
X138195000Y-64770000D02*
X140217500Y-66792500D01*
X131318000Y-64770000D02*
X138195000Y-64770000D01*
%TD*%
D18*
%TO.N,GND*%
G36*
X188468000Y-111633000D02*
G01*
X109982000Y-111633000D01*
X109982000Y-101383402D01*
X142121400Y-101383402D01*
X142121400Y-101678600D01*
X142178990Y-101968126D01*
X142291958Y-102240854D01*
X142455961Y-102486303D01*
X142664698Y-102695040D01*
X142823281Y-102801001D01*
X142664698Y-102906962D01*
X142455961Y-103115699D01*
X142291958Y-103361148D01*
X142178990Y-103633876D01*
X142121400Y-103923402D01*
X142121400Y-104218600D01*
X142178990Y-104508126D01*
X142291958Y-104780854D01*
X142455961Y-105026303D01*
X142664698Y-105235040D01*
X142823281Y-105341001D01*
X142664698Y-105446962D01*
X142455961Y-105655699D01*
X142291958Y-105901148D01*
X142178990Y-106173876D01*
X142121400Y-106463402D01*
X142121400Y-106758600D01*
X142178990Y-107048126D01*
X142291958Y-107320854D01*
X142455961Y-107566303D01*
X142664698Y-107775040D01*
X142910147Y-107939043D01*
X143182875Y-108052011D01*
X143252810Y-108065922D01*
X143078587Y-108138088D01*
X142891380Y-108263175D01*
X142732174Y-108422381D01*
X142607087Y-108609588D01*
X142520925Y-108817600D01*
X142477000Y-109038425D01*
X142477000Y-109263577D01*
X142520925Y-109484402D01*
X142607087Y-109692414D01*
X142732174Y-109879621D01*
X142891380Y-110038827D01*
X143078587Y-110163914D01*
X143286599Y-110250076D01*
X143507424Y-110294001D01*
X143732576Y-110294001D01*
X143953401Y-110250076D01*
X144161413Y-110163914D01*
X144348620Y-110038827D01*
X144507826Y-109879621D01*
X144632913Y-109692414D01*
X144719075Y-109484402D01*
X144763000Y-109263577D01*
X144763000Y-109038425D01*
X144719075Y-108817600D01*
X144632913Y-108609588D01*
X144507826Y-108422381D01*
X144348620Y-108263175D01*
X144161413Y-108138088D01*
X143987190Y-108065922D01*
X144057125Y-108052011D01*
X144329853Y-107939043D01*
X144575302Y-107775040D01*
X144784039Y-107566303D01*
X144948042Y-107320854D01*
X145061010Y-107048126D01*
X145118600Y-106758600D01*
X145118600Y-106463402D01*
X145061010Y-106173876D01*
X144948042Y-105901148D01*
X144784039Y-105655699D01*
X144575302Y-105446962D01*
X144416719Y-105341001D01*
X144575302Y-105235040D01*
X144784039Y-105026303D01*
X144948042Y-104780854D01*
X145061010Y-104508126D01*
X145118600Y-104218600D01*
X145118600Y-103923402D01*
X145117898Y-103919872D01*
X148895000Y-103919872D01*
X148895000Y-104360128D01*
X148980890Y-104791925D01*
X149149369Y-105198669D01*
X149393962Y-105564729D01*
X149705271Y-105876038D01*
X150071331Y-106120631D01*
X150478075Y-106289110D01*
X150909872Y-106375000D01*
X151350128Y-106375000D01*
X151781925Y-106289110D01*
X152188669Y-106120631D01*
X152554729Y-105876038D01*
X152683366Y-105747401D01*
X157358328Y-105747401D01*
X157358328Y-107474601D01*
X157370588Y-107599083D01*
X157406898Y-107718781D01*
X157465863Y-107829095D01*
X157545215Y-107925786D01*
X157641906Y-108005138D01*
X157752220Y-108064103D01*
X157871918Y-108100413D01*
X157996400Y-108112673D01*
X158379944Y-108112673D01*
X158318587Y-108138088D01*
X158131380Y-108263175D01*
X157972174Y-108422381D01*
X157847087Y-108609588D01*
X157760925Y-108817600D01*
X157717000Y-109038425D01*
X157717000Y-109263577D01*
X157760925Y-109484402D01*
X157847087Y-109692414D01*
X157972174Y-109879621D01*
X158131380Y-110038827D01*
X158318587Y-110163914D01*
X158526599Y-110250076D01*
X158747424Y-110294001D01*
X158972576Y-110294001D01*
X159193401Y-110250076D01*
X159401413Y-110163914D01*
X159588620Y-110038827D01*
X159747826Y-109879621D01*
X159872913Y-109692414D01*
X159959075Y-109484402D01*
X160003000Y-109263577D01*
X160003000Y-109038425D01*
X159959075Y-108817600D01*
X159872913Y-108609588D01*
X159747826Y-108422381D01*
X159588620Y-108263175D01*
X159401413Y-108138088D01*
X159340056Y-108112673D01*
X159723600Y-108112673D01*
X159848082Y-108100413D01*
X159967780Y-108064103D01*
X160078094Y-108005138D01*
X160174785Y-107925786D01*
X160254137Y-107829095D01*
X160313102Y-107718781D01*
X160349412Y-107599083D01*
X160361672Y-107474601D01*
X160361672Y-106150000D01*
X165466928Y-106150000D01*
X165466928Y-109750000D01*
X165479188Y-109874482D01*
X165515498Y-109994180D01*
X165574463Y-110104494D01*
X165653815Y-110201185D01*
X165750506Y-110280537D01*
X165860820Y-110339502D01*
X165980518Y-110375812D01*
X166105000Y-110388072D01*
X167905000Y-110388072D01*
X168029482Y-110375812D01*
X168149180Y-110339502D01*
X168259494Y-110280537D01*
X168356185Y-110201185D01*
X168435537Y-110104494D01*
X168494502Y-109994180D01*
X168530812Y-109874482D01*
X168543072Y-109750000D01*
X168543072Y-108077000D01*
X169280000Y-108077000D01*
X169280000Y-108977000D01*
X169334271Y-109274023D01*
X169445446Y-109554751D01*
X169609252Y-109808396D01*
X169819394Y-110025210D01*
X170067796Y-110196862D01*
X170344913Y-110316755D01*
X170450260Y-110341036D01*
X170688000Y-110220378D01*
X170688000Y-108077000D01*
X170942000Y-108077000D01*
X170942000Y-110220378D01*
X171179740Y-110341036D01*
X171285087Y-110316755D01*
X171562204Y-110196862D01*
X171810606Y-110025210D01*
X172020748Y-109808396D01*
X172184554Y-109554751D01*
X172295729Y-109274023D01*
X172350000Y-108977000D01*
X172350000Y-108077000D01*
X170942000Y-108077000D01*
X170688000Y-108077000D01*
X169280000Y-108077000D01*
X168543072Y-108077000D01*
X168543072Y-106923000D01*
X169280000Y-106923000D01*
X169280000Y-107823000D01*
X170688000Y-107823000D01*
X170688000Y-105679622D01*
X170942000Y-105679622D01*
X170942000Y-107823000D01*
X172350000Y-107823000D01*
X172350000Y-106974593D01*
X173090000Y-106974593D01*
X173090000Y-108925408D01*
X173112211Y-109150913D01*
X173199984Y-109440261D01*
X173342520Y-109706927D01*
X173534340Y-109940661D01*
X173768074Y-110132481D01*
X174034740Y-110275017D01*
X174324088Y-110362790D01*
X174625000Y-110392427D01*
X174925913Y-110362790D01*
X175215261Y-110275017D01*
X175481927Y-110132481D01*
X175715661Y-109940661D01*
X175907481Y-109706927D01*
X176050017Y-109440261D01*
X176137790Y-109150913D01*
X176160000Y-108925408D01*
X176160000Y-108077000D01*
X176900000Y-108077000D01*
X176900000Y-108977000D01*
X176954271Y-109274023D01*
X177065446Y-109554751D01*
X177229252Y-109808396D01*
X177439394Y-110025210D01*
X177687796Y-110196862D01*
X177964913Y-110316755D01*
X178070260Y-110341036D01*
X178308000Y-110220378D01*
X178308000Y-108077000D01*
X178562000Y-108077000D01*
X178562000Y-110220378D01*
X178799740Y-110341036D01*
X178905087Y-110316755D01*
X179182204Y-110196862D01*
X179430606Y-110025210D01*
X179640748Y-109808396D01*
X179804554Y-109554751D01*
X179915729Y-109274023D01*
X179970000Y-108977000D01*
X179970000Y-108077000D01*
X178562000Y-108077000D01*
X178308000Y-108077000D01*
X176900000Y-108077000D01*
X176160000Y-108077000D01*
X176160000Y-106974592D01*
X176154919Y-106923000D01*
X176900000Y-106923000D01*
X176900000Y-107823000D01*
X178308000Y-107823000D01*
X178308000Y-105679622D01*
X178562000Y-105679622D01*
X178562000Y-107823000D01*
X179970000Y-107823000D01*
X179970000Y-106974593D01*
X180710000Y-106974593D01*
X180710000Y-108925408D01*
X180732211Y-109150913D01*
X180819984Y-109440261D01*
X180962520Y-109706927D01*
X181154340Y-109940661D01*
X181388074Y-110132481D01*
X181654740Y-110275017D01*
X181944088Y-110362790D01*
X182245000Y-110392427D01*
X182545913Y-110362790D01*
X182835261Y-110275017D01*
X183101927Y-110132481D01*
X183335661Y-109940661D01*
X183527481Y-109706927D01*
X183670017Y-109440261D01*
X183757790Y-109150913D01*
X183780000Y-108925408D01*
X183780000Y-108077000D01*
X184520000Y-108077000D01*
X184520000Y-108977000D01*
X184574271Y-109274023D01*
X184685446Y-109554751D01*
X184849252Y-109808396D01*
X185059394Y-110025210D01*
X185307796Y-110196862D01*
X185584913Y-110316755D01*
X185690260Y-110341036D01*
X185928000Y-110220378D01*
X185928000Y-108077000D01*
X186182000Y-108077000D01*
X186182000Y-110220378D01*
X186419740Y-110341036D01*
X186525087Y-110316755D01*
X186802204Y-110196862D01*
X187050606Y-110025210D01*
X187260748Y-109808396D01*
X187424554Y-109554751D01*
X187535729Y-109274023D01*
X187590000Y-108977000D01*
X187590000Y-108077000D01*
X186182000Y-108077000D01*
X185928000Y-108077000D01*
X184520000Y-108077000D01*
X183780000Y-108077000D01*
X183780000Y-106974592D01*
X183774919Y-106923000D01*
X184520000Y-106923000D01*
X184520000Y-107823000D01*
X185928000Y-107823000D01*
X185928000Y-105679622D01*
X186182000Y-105679622D01*
X186182000Y-107823000D01*
X187590000Y-107823000D01*
X187590000Y-106923000D01*
X187535729Y-106625977D01*
X187424554Y-106345249D01*
X187260748Y-106091604D01*
X187050606Y-105874790D01*
X186802204Y-105703138D01*
X186525087Y-105583245D01*
X186419740Y-105558964D01*
X186182000Y-105679622D01*
X185928000Y-105679622D01*
X185690260Y-105558964D01*
X185584913Y-105583245D01*
X185307796Y-105703138D01*
X185059394Y-105874790D01*
X184849252Y-106091604D01*
X184685446Y-106345249D01*
X184574271Y-106625977D01*
X184520000Y-106923000D01*
X183774919Y-106923000D01*
X183757790Y-106749087D01*
X183670017Y-106459739D01*
X183527481Y-106193073D01*
X183335661Y-105959339D01*
X183101926Y-105767519D01*
X182835260Y-105624983D01*
X182545912Y-105537210D01*
X182245000Y-105507573D01*
X181944087Y-105537210D01*
X181654739Y-105624983D01*
X181388073Y-105767519D01*
X181154339Y-105959339D01*
X180962519Y-106193074D01*
X180819983Y-106459740D01*
X180732210Y-106749088D01*
X180710000Y-106974593D01*
X179970000Y-106974593D01*
X179970000Y-106923000D01*
X179915729Y-106625977D01*
X179804554Y-106345249D01*
X179640748Y-106091604D01*
X179430606Y-105874790D01*
X179182204Y-105703138D01*
X178905087Y-105583245D01*
X178799740Y-105558964D01*
X178562000Y-105679622D01*
X178308000Y-105679622D01*
X178070260Y-105558964D01*
X177964913Y-105583245D01*
X177687796Y-105703138D01*
X177439394Y-105874790D01*
X177229252Y-106091604D01*
X177065446Y-106345249D01*
X176954271Y-106625977D01*
X176900000Y-106923000D01*
X176154919Y-106923000D01*
X176137790Y-106749087D01*
X176050017Y-106459739D01*
X175907481Y-106193073D01*
X175715661Y-105959339D01*
X175481926Y-105767519D01*
X175215260Y-105624983D01*
X174925912Y-105537210D01*
X174625000Y-105507573D01*
X174324087Y-105537210D01*
X174034739Y-105624983D01*
X173768073Y-105767519D01*
X173534339Y-105959339D01*
X173342519Y-106193074D01*
X173199983Y-106459740D01*
X173112210Y-106749088D01*
X173090000Y-106974593D01*
X172350000Y-106974593D01*
X172350000Y-106923000D01*
X172295729Y-106625977D01*
X172184554Y-106345249D01*
X172020748Y-106091604D01*
X171810606Y-105874790D01*
X171562204Y-105703138D01*
X171285087Y-105583245D01*
X171179740Y-105558964D01*
X170942000Y-105679622D01*
X170688000Y-105679622D01*
X170450260Y-105558964D01*
X170344913Y-105583245D01*
X170067796Y-105703138D01*
X169819394Y-105874790D01*
X169609252Y-106091604D01*
X169445446Y-106345249D01*
X169334271Y-106625977D01*
X169280000Y-106923000D01*
X168543072Y-106923000D01*
X168543072Y-106150000D01*
X168530812Y-106025518D01*
X168494502Y-105905820D01*
X168435537Y-105795506D01*
X168356185Y-105698815D01*
X168259494Y-105619463D01*
X168149180Y-105560498D01*
X168029482Y-105524188D01*
X167905000Y-105511928D01*
X166105000Y-105511928D01*
X165980518Y-105524188D01*
X165860820Y-105560498D01*
X165750506Y-105619463D01*
X165653815Y-105698815D01*
X165574463Y-105795506D01*
X165515498Y-105905820D01*
X165479188Y-106025518D01*
X165466928Y-106150000D01*
X160361672Y-106150000D01*
X160361672Y-105747401D01*
X160349412Y-105622919D01*
X160313102Y-105503221D01*
X160254137Y-105392907D01*
X160174785Y-105296216D01*
X160078094Y-105216864D01*
X159967780Y-105157899D01*
X159909977Y-105140365D01*
X160024039Y-105026303D01*
X160188042Y-104780854D01*
X160301010Y-104508126D01*
X160358600Y-104218600D01*
X160358600Y-103923402D01*
X160301010Y-103633876D01*
X160188042Y-103361148D01*
X160024039Y-103115699D01*
X159815302Y-102906962D01*
X159656719Y-102801001D01*
X159815302Y-102695040D01*
X160024039Y-102486303D01*
X160188042Y-102240854D01*
X160301010Y-101968126D01*
X160358600Y-101678600D01*
X160358600Y-101383402D01*
X160301010Y-101093876D01*
X160188042Y-100821148D01*
X160024039Y-100575699D01*
X159815302Y-100366962D01*
X159656719Y-100261001D01*
X159815302Y-100155040D01*
X160024039Y-99946303D01*
X160188042Y-99700854D01*
X160301010Y-99428126D01*
X160358600Y-99138600D01*
X160358600Y-98843402D01*
X160301010Y-98553876D01*
X160188042Y-98281148D01*
X160024039Y-98035699D01*
X159815302Y-97826962D01*
X159656719Y-97721001D01*
X159815302Y-97615040D01*
X160024039Y-97406303D01*
X160188042Y-97160854D01*
X160301010Y-96888126D01*
X160358600Y-96598600D01*
X160358600Y-96303402D01*
X160301010Y-96013876D01*
X160188042Y-95741148D01*
X160024039Y-95495699D01*
X159815302Y-95286962D01*
X159654187Y-95179309D01*
X159870293Y-95017855D01*
X160066817Y-94799489D01*
X160216964Y-94546979D01*
X160314963Y-94270028D01*
X160194464Y-94038001D01*
X158987000Y-94038001D01*
X158987000Y-94058001D01*
X158733000Y-94058001D01*
X158733000Y-94038001D01*
X157525536Y-94038001D01*
X157405037Y-94270028D01*
X157503036Y-94546979D01*
X157653183Y-94799489D01*
X157849707Y-95017855D01*
X158065813Y-95179309D01*
X157904698Y-95286962D01*
X157695961Y-95495699D01*
X157531958Y-95741148D01*
X157418990Y-96013876D01*
X157361400Y-96303402D01*
X157361400Y-96598600D01*
X157418990Y-96888126D01*
X157531958Y-97160854D01*
X157695961Y-97406303D01*
X157904698Y-97615040D01*
X158063281Y-97721001D01*
X157904698Y-97826962D01*
X157695961Y-98035699D01*
X157531958Y-98281148D01*
X157418990Y-98553876D01*
X157361400Y-98843402D01*
X157361400Y-99138600D01*
X157418990Y-99428126D01*
X157531958Y-99700854D01*
X157695961Y-99946303D01*
X157904698Y-100155040D01*
X158063281Y-100261001D01*
X157904698Y-100366962D01*
X157695961Y-100575699D01*
X157531958Y-100821148D01*
X157418990Y-101093876D01*
X157361400Y-101383402D01*
X157361400Y-101678600D01*
X157418990Y-101968126D01*
X157531958Y-102240854D01*
X157695961Y-102486303D01*
X157904698Y-102695040D01*
X158063281Y-102801001D01*
X157904698Y-102906962D01*
X157695961Y-103115699D01*
X157531958Y-103361148D01*
X157418990Y-103633876D01*
X157361400Y-103923402D01*
X157361400Y-104218600D01*
X157418990Y-104508126D01*
X157531958Y-104780854D01*
X157695961Y-105026303D01*
X157810023Y-105140365D01*
X157752220Y-105157899D01*
X157641906Y-105216864D01*
X157545215Y-105296216D01*
X157465863Y-105392907D01*
X157406898Y-105503221D01*
X157370588Y-105622919D01*
X157358328Y-105747401D01*
X152683366Y-105747401D01*
X152866038Y-105564729D01*
X153110631Y-105198669D01*
X153279110Y-104791925D01*
X153365000Y-104360128D01*
X153365000Y-103919872D01*
X153279110Y-103488075D01*
X153110631Y-103081331D01*
X152866038Y-102715271D01*
X152554729Y-102403962D01*
X152188669Y-102159369D01*
X151781925Y-101990890D01*
X151350128Y-101905000D01*
X150909872Y-101905000D01*
X150478075Y-101990890D01*
X150071331Y-102159369D01*
X149705271Y-102403962D01*
X149393962Y-102715271D01*
X149149369Y-103081331D01*
X148980890Y-103488075D01*
X148895000Y-103919872D01*
X145117898Y-103919872D01*
X145061010Y-103633876D01*
X144948042Y-103361148D01*
X144784039Y-103115699D01*
X144575302Y-102906962D01*
X144416719Y-102801001D01*
X144575302Y-102695040D01*
X144784039Y-102486303D01*
X144948042Y-102240854D01*
X145061010Y-101968126D01*
X145118600Y-101678600D01*
X145118600Y-101383402D01*
X145061010Y-101093876D01*
X144948042Y-100821148D01*
X144784039Y-100575699D01*
X144575302Y-100366962D01*
X144414187Y-100259309D01*
X144630293Y-100097855D01*
X144826817Y-99879489D01*
X144976964Y-99626979D01*
X145074963Y-99350028D01*
X144954464Y-99118001D01*
X143747000Y-99118001D01*
X143747000Y-99138001D01*
X143493000Y-99138001D01*
X143493000Y-99118001D01*
X142285536Y-99118001D01*
X142165037Y-99350028D01*
X142263036Y-99626979D01*
X142413183Y-99879489D01*
X142609707Y-100097855D01*
X142825813Y-100259309D01*
X142664698Y-100366962D01*
X142455961Y-100575699D01*
X142291958Y-100821148D01*
X142178990Y-101093876D01*
X142121400Y-101383402D01*
X109982000Y-101383402D01*
X109982000Y-96150000D01*
X111861928Y-96150000D01*
X111874188Y-96274482D01*
X111910498Y-96394180D01*
X111969463Y-96504494D01*
X112048815Y-96601185D01*
X112145506Y-96680537D01*
X112255820Y-96739502D01*
X112375518Y-96775812D01*
X112500000Y-96788072D01*
X114014250Y-96785000D01*
X114173000Y-96626250D01*
X114173000Y-95377000D01*
X114427000Y-95377000D01*
X114427000Y-96626250D01*
X114585750Y-96785000D01*
X116100000Y-96788072D01*
X116224482Y-96775812D01*
X116344180Y-96739502D01*
X116454494Y-96680537D01*
X116551185Y-96601185D01*
X116630537Y-96504494D01*
X116689502Y-96394180D01*
X116725812Y-96274482D01*
X116738072Y-96150000D01*
X116735000Y-95535750D01*
X116576250Y-95377000D01*
X114427000Y-95377000D01*
X114173000Y-95377000D01*
X112023750Y-95377000D01*
X111865000Y-95535750D01*
X111861928Y-96150000D01*
X109982000Y-96150000D01*
X109982000Y-94350000D01*
X111861928Y-94350000D01*
X111865000Y-94964250D01*
X112023750Y-95123000D01*
X114173000Y-95123000D01*
X114173000Y-93873750D01*
X114427000Y-93873750D01*
X114427000Y-95123000D01*
X116576250Y-95123000D01*
X116735000Y-94964250D01*
X116738072Y-94350000D01*
X128879928Y-94350000D01*
X128879928Y-96150000D01*
X128892188Y-96274482D01*
X128928498Y-96394180D01*
X128987463Y-96504494D01*
X129066815Y-96601185D01*
X129163506Y-96680537D01*
X129273820Y-96739502D01*
X129393518Y-96775812D01*
X129518000Y-96788072D01*
X133118000Y-96788072D01*
X133242482Y-96775812D01*
X133362180Y-96739502D01*
X133472494Y-96680537D01*
X133569185Y-96601185D01*
X133648537Y-96504494D01*
X133707502Y-96394180D01*
X133743812Y-96274482D01*
X133756072Y-96150000D01*
X133756072Y-96035000D01*
X140438172Y-96035000D01*
X140542344Y-96104605D01*
X140730702Y-96182626D01*
X140930661Y-96222400D01*
X141134539Y-96222400D01*
X141334498Y-96182626D01*
X141522856Y-96104605D01*
X141692374Y-95991337D01*
X141836537Y-95847174D01*
X141949805Y-95677656D01*
X142027826Y-95489298D01*
X142067600Y-95289339D01*
X142067600Y-95085461D01*
X142027826Y-94885502D01*
X141949805Y-94697144D01*
X141836537Y-94527626D01*
X141692374Y-94383463D01*
X141522856Y-94270195D01*
X141334498Y-94192174D01*
X141134539Y-94152400D01*
X140930661Y-94152400D01*
X140730702Y-94192174D01*
X140542344Y-94270195D01*
X140372826Y-94383463D01*
X140291289Y-94465000D01*
X133756072Y-94465000D01*
X133756072Y-94350000D01*
X133743812Y-94225518D01*
X133707502Y-94105820D01*
X133648537Y-93995506D01*
X133569185Y-93898815D01*
X133472494Y-93819463D01*
X133362180Y-93760498D01*
X133242482Y-93724188D01*
X133118000Y-93711928D01*
X129518000Y-93711928D01*
X129393518Y-93724188D01*
X129273820Y-93760498D01*
X129163506Y-93819463D01*
X129066815Y-93898815D01*
X128987463Y-93995506D01*
X128928498Y-94105820D01*
X128892188Y-94225518D01*
X128879928Y-94350000D01*
X116738072Y-94350000D01*
X116725812Y-94225518D01*
X116689502Y-94105820D01*
X116630537Y-93995506D01*
X116551185Y-93898815D01*
X116454494Y-93819463D01*
X116344180Y-93760498D01*
X116224482Y-93724188D01*
X116100000Y-93711928D01*
X114585750Y-93715000D01*
X114427000Y-93873750D01*
X114173000Y-93873750D01*
X114014250Y-93715000D01*
X112500000Y-93711928D01*
X112375518Y-93724188D01*
X112255820Y-93760498D01*
X112145506Y-93819463D01*
X112048815Y-93898815D01*
X111969463Y-93995506D01*
X111910498Y-94105820D01*
X111874188Y-94225518D01*
X111861928Y-94350000D01*
X109982000Y-94350000D01*
X109982000Y-91804740D01*
X111908964Y-91804740D01*
X111933245Y-91910087D01*
X112053138Y-92187204D01*
X112224790Y-92435606D01*
X112441604Y-92645748D01*
X112695249Y-92809554D01*
X112975977Y-92920729D01*
X113273000Y-92975000D01*
X114173000Y-92975000D01*
X114173000Y-91567000D01*
X114427000Y-91567000D01*
X114427000Y-92975000D01*
X115327000Y-92975000D01*
X115624023Y-92920729D01*
X115904751Y-92809554D01*
X116158396Y-92645748D01*
X116375210Y-92435606D01*
X116546862Y-92187204D01*
X116666755Y-91910087D01*
X116691036Y-91804740D01*
X116570378Y-91567000D01*
X114427000Y-91567000D01*
X114173000Y-91567000D01*
X112029622Y-91567000D01*
X111908964Y-91804740D01*
X109982000Y-91804740D01*
X109982000Y-91440000D01*
X128875573Y-91440000D01*
X128905210Y-91740913D01*
X128992983Y-92030261D01*
X129135519Y-92296927D01*
X129327339Y-92530661D01*
X129561073Y-92722481D01*
X129827739Y-92865017D01*
X130117087Y-92952790D01*
X130342592Y-92975000D01*
X132293408Y-92975000D01*
X132518913Y-92952790D01*
X132808261Y-92865017D01*
X133074927Y-92722481D01*
X133308661Y-92530661D01*
X133500481Y-92296927D01*
X133538927Y-92225000D01*
X139661447Y-92225000D01*
X139700000Y-92228797D01*
X139738553Y-92225000D01*
X139738561Y-92225000D01*
X139853887Y-92213641D01*
X140001860Y-92168754D01*
X140138233Y-92095862D01*
X140257764Y-91997764D01*
X140282347Y-91967810D01*
X141107758Y-91142400D01*
X141134539Y-91142400D01*
X141334498Y-91102626D01*
X141522856Y-91024605D01*
X141692374Y-90911337D01*
X141836537Y-90767174D01*
X141949805Y-90597656D01*
X142027826Y-90409298D01*
X142067600Y-90209339D01*
X142067600Y-90005461D01*
X142027826Y-89805502D01*
X141949805Y-89617144D01*
X141836537Y-89447626D01*
X141692374Y-89303463D01*
X141522856Y-89190195D01*
X141334498Y-89112174D01*
X141134539Y-89072400D01*
X140930661Y-89072400D01*
X140730702Y-89112174D01*
X140542344Y-89190195D01*
X140372826Y-89303463D01*
X140228663Y-89447626D01*
X140115395Y-89617144D01*
X140037374Y-89805502D01*
X139997600Y-90005461D01*
X139997600Y-90032242D01*
X139374843Y-90655000D01*
X133538927Y-90655000D01*
X133500481Y-90583073D01*
X133308661Y-90349339D01*
X133074927Y-90157519D01*
X132808261Y-90014983D01*
X132518913Y-89927210D01*
X132293408Y-89905000D01*
X130342592Y-89905000D01*
X130117087Y-89927210D01*
X129827739Y-90014983D01*
X129561073Y-90157519D01*
X129327339Y-90349339D01*
X129135519Y-90583073D01*
X128992983Y-90849739D01*
X128905210Y-91139087D01*
X128875573Y-91440000D01*
X109982000Y-91440000D01*
X109982000Y-91075260D01*
X111908964Y-91075260D01*
X112029622Y-91313000D01*
X114173000Y-91313000D01*
X114173000Y-89905000D01*
X114427000Y-89905000D01*
X114427000Y-91313000D01*
X116570378Y-91313000D01*
X116691036Y-91075260D01*
X116666755Y-90969913D01*
X116546862Y-90692796D01*
X116375210Y-90444394D01*
X116158396Y-90234252D01*
X115904751Y-90070446D01*
X115624023Y-89959271D01*
X115327000Y-89905000D01*
X114427000Y-89905000D01*
X114173000Y-89905000D01*
X113273000Y-89905000D01*
X112975977Y-89959271D01*
X112695249Y-90070446D01*
X112441604Y-90234252D01*
X112224790Y-90444394D01*
X112053138Y-90692796D01*
X111933245Y-90969913D01*
X111908964Y-91075260D01*
X109982000Y-91075260D01*
X109982000Y-87994740D01*
X111908964Y-87994740D01*
X111933245Y-88100087D01*
X112053138Y-88377204D01*
X112224790Y-88625606D01*
X112441604Y-88835748D01*
X112695249Y-88999554D01*
X112975977Y-89110729D01*
X113273000Y-89165000D01*
X114173000Y-89165000D01*
X114173000Y-87757000D01*
X114427000Y-87757000D01*
X114427000Y-89165000D01*
X115327000Y-89165000D01*
X115624023Y-89110729D01*
X115904751Y-88999554D01*
X116158396Y-88835748D01*
X116375210Y-88625606D01*
X116546862Y-88377204D01*
X116666755Y-88100087D01*
X116691036Y-87994740D01*
X116570378Y-87757000D01*
X114427000Y-87757000D01*
X114173000Y-87757000D01*
X112029622Y-87757000D01*
X111908964Y-87994740D01*
X109982000Y-87994740D01*
X109982000Y-87630000D01*
X128875573Y-87630000D01*
X128905210Y-87930913D01*
X128992983Y-88220261D01*
X129135519Y-88486927D01*
X129327339Y-88720661D01*
X129561073Y-88912481D01*
X129827739Y-89055017D01*
X130117087Y-89142790D01*
X130342592Y-89165000D01*
X132293408Y-89165000D01*
X132518913Y-89142790D01*
X132808261Y-89055017D01*
X133074927Y-88912481D01*
X133308661Y-88720661D01*
X133500481Y-88486927D01*
X133538927Y-88415000D01*
X140438172Y-88415000D01*
X140542344Y-88484605D01*
X140730702Y-88562626D01*
X140930661Y-88602400D01*
X141134539Y-88602400D01*
X141334498Y-88562626D01*
X141522856Y-88484605D01*
X141692374Y-88371337D01*
X141836537Y-88227174D01*
X141949805Y-88057656D01*
X142027826Y-87869298D01*
X142067600Y-87669339D01*
X142067600Y-87465461D01*
X142027826Y-87265502D01*
X141949805Y-87077144D01*
X141836537Y-86907626D01*
X141692374Y-86763463D01*
X141522856Y-86650195D01*
X141334498Y-86572174D01*
X141134539Y-86532400D01*
X140930661Y-86532400D01*
X140730702Y-86572174D01*
X140542344Y-86650195D01*
X140372826Y-86763463D01*
X140291289Y-86845000D01*
X133538927Y-86845000D01*
X133500481Y-86773073D01*
X133308661Y-86539339D01*
X133074927Y-86347519D01*
X132808261Y-86204983D01*
X132518913Y-86117210D01*
X132293408Y-86095000D01*
X130342592Y-86095000D01*
X130117087Y-86117210D01*
X129827739Y-86204983D01*
X129561073Y-86347519D01*
X129327339Y-86539339D01*
X129135519Y-86773073D01*
X128992983Y-87039739D01*
X128905210Y-87329087D01*
X128875573Y-87630000D01*
X109982000Y-87630000D01*
X109982000Y-87265260D01*
X111908964Y-87265260D01*
X112029622Y-87503000D01*
X114173000Y-87503000D01*
X114173000Y-86095000D01*
X114427000Y-86095000D01*
X114427000Y-87503000D01*
X116570378Y-87503000D01*
X116691036Y-87265260D01*
X116666755Y-87159913D01*
X116546862Y-86882796D01*
X116375210Y-86634394D01*
X116158396Y-86424252D01*
X115904751Y-86260446D01*
X115624023Y-86149271D01*
X115327000Y-86095000D01*
X114427000Y-86095000D01*
X114173000Y-86095000D01*
X113273000Y-86095000D01*
X112975977Y-86149271D01*
X112695249Y-86260446D01*
X112441604Y-86424252D01*
X112224790Y-86634394D01*
X112053138Y-86882796D01*
X111933245Y-87159913D01*
X111908964Y-87265260D01*
X109982000Y-87265260D01*
X109982000Y-84184740D01*
X111908964Y-84184740D01*
X111933245Y-84290087D01*
X112053138Y-84567204D01*
X112224790Y-84815606D01*
X112441604Y-85025748D01*
X112695249Y-85189554D01*
X112975977Y-85300729D01*
X113273000Y-85355000D01*
X114173000Y-85355000D01*
X114173000Y-83947000D01*
X114427000Y-83947000D01*
X114427000Y-85355000D01*
X115327000Y-85355000D01*
X115624023Y-85300729D01*
X115904751Y-85189554D01*
X116158396Y-85025748D01*
X116375210Y-84815606D01*
X116546862Y-84567204D01*
X116666755Y-84290087D01*
X116691036Y-84184740D01*
X116570378Y-83947000D01*
X114427000Y-83947000D01*
X114173000Y-83947000D01*
X112029622Y-83947000D01*
X111908964Y-84184740D01*
X109982000Y-84184740D01*
X109982000Y-83820000D01*
X128875573Y-83820000D01*
X128905210Y-84120913D01*
X128992983Y-84410261D01*
X129135519Y-84676927D01*
X129327339Y-84910661D01*
X129561073Y-85102481D01*
X129827739Y-85245017D01*
X130117087Y-85332790D01*
X130342592Y-85355000D01*
X132293408Y-85355000D01*
X132518913Y-85332790D01*
X132808261Y-85245017D01*
X133074927Y-85102481D01*
X133308661Y-84910661D01*
X133500481Y-84676927D01*
X133538927Y-84605000D01*
X140291289Y-84605000D01*
X140310226Y-84623937D01*
X140479744Y-84737205D01*
X140668102Y-84815226D01*
X140868061Y-84855000D01*
X141071939Y-84855000D01*
X141271898Y-84815226D01*
X141460256Y-84737205D01*
X141629774Y-84623937D01*
X141773937Y-84479774D01*
X141887205Y-84310256D01*
X141965226Y-84121898D01*
X142005000Y-83921939D01*
X142005000Y-83718061D01*
X141965226Y-83518102D01*
X141887205Y-83329744D01*
X141773937Y-83160226D01*
X141629774Y-83016063D01*
X141460256Y-82902795D01*
X141271898Y-82824774D01*
X141071939Y-82785000D01*
X140868061Y-82785000D01*
X140668102Y-82824774D01*
X140479744Y-82902795D01*
X140310226Y-83016063D01*
X140291289Y-83035000D01*
X133538927Y-83035000D01*
X133500481Y-82963073D01*
X133308661Y-82729339D01*
X133074927Y-82537519D01*
X132808261Y-82394983D01*
X132518913Y-82307210D01*
X132293408Y-82285000D01*
X130342592Y-82285000D01*
X130117087Y-82307210D01*
X129827739Y-82394983D01*
X129561073Y-82537519D01*
X129327339Y-82729339D01*
X129135519Y-82963073D01*
X128992983Y-83229739D01*
X128905210Y-83519087D01*
X128875573Y-83820000D01*
X109982000Y-83820000D01*
X109982000Y-83455260D01*
X111908964Y-83455260D01*
X112029622Y-83693000D01*
X114173000Y-83693000D01*
X114173000Y-82285000D01*
X114427000Y-82285000D01*
X114427000Y-83693000D01*
X116570378Y-83693000D01*
X116691036Y-83455260D01*
X116666755Y-83349913D01*
X116546862Y-83072796D01*
X116375210Y-82824394D01*
X116158396Y-82614252D01*
X115904751Y-82450446D01*
X115624023Y-82339271D01*
X115327000Y-82285000D01*
X114427000Y-82285000D01*
X114173000Y-82285000D01*
X113273000Y-82285000D01*
X112975977Y-82339271D01*
X112695249Y-82450446D01*
X112441604Y-82614252D01*
X112224790Y-82824394D01*
X112053138Y-83072796D01*
X111933245Y-83349913D01*
X111908964Y-83455260D01*
X109982000Y-83455260D01*
X109982000Y-80374740D01*
X111908964Y-80374740D01*
X111933245Y-80480087D01*
X112053138Y-80757204D01*
X112224790Y-81005606D01*
X112441604Y-81215748D01*
X112695249Y-81379554D01*
X112975977Y-81490729D01*
X113273000Y-81545000D01*
X114173000Y-81545000D01*
X114173000Y-80137000D01*
X114427000Y-80137000D01*
X114427000Y-81545000D01*
X115327000Y-81545000D01*
X115624023Y-81490729D01*
X115904751Y-81379554D01*
X116158396Y-81215748D01*
X116375210Y-81005606D01*
X116546862Y-80757204D01*
X116666755Y-80480087D01*
X116691036Y-80374740D01*
X116570378Y-80137000D01*
X114427000Y-80137000D01*
X114173000Y-80137000D01*
X112029622Y-80137000D01*
X111908964Y-80374740D01*
X109982000Y-80374740D01*
X109982000Y-80010000D01*
X128875573Y-80010000D01*
X128905210Y-80310913D01*
X128992983Y-80600261D01*
X129135519Y-80866927D01*
X129327339Y-81100661D01*
X129561073Y-81292481D01*
X129827739Y-81435017D01*
X130117087Y-81522790D01*
X130342592Y-81545000D01*
X132293408Y-81545000D01*
X132518913Y-81522790D01*
X132808261Y-81435017D01*
X133074927Y-81292481D01*
X133308661Y-81100661D01*
X133500481Y-80866927D01*
X133538927Y-80795000D01*
X139553841Y-80795000D01*
X139770499Y-81011658D01*
X139770499Y-81038440D01*
X139810273Y-81238399D01*
X139888294Y-81426757D01*
X140001562Y-81596275D01*
X140145725Y-81740438D01*
X140315243Y-81853706D01*
X140503601Y-81931727D01*
X140703560Y-81971501D01*
X140907438Y-81971501D01*
X141107397Y-81931727D01*
X141295755Y-81853706D01*
X141465273Y-81740438D01*
X141609436Y-81596275D01*
X141722704Y-81426757D01*
X141800725Y-81238399D01*
X141840499Y-81038440D01*
X141840499Y-80834562D01*
X141800725Y-80634603D01*
X141722704Y-80446245D01*
X141609436Y-80276727D01*
X141465273Y-80132564D01*
X141295755Y-80019296D01*
X141107397Y-79941275D01*
X140907438Y-79901501D01*
X140880656Y-79901501D01*
X140461345Y-79482190D01*
X140436762Y-79452236D01*
X140317231Y-79354138D01*
X140180858Y-79281246D01*
X140032885Y-79236359D01*
X139917559Y-79225000D01*
X139917551Y-79225000D01*
X139878998Y-79221203D01*
X139840445Y-79225000D01*
X133538927Y-79225000D01*
X133500481Y-79153073D01*
X133308661Y-78919339D01*
X133074927Y-78727519D01*
X132808261Y-78584983D01*
X132518913Y-78497210D01*
X132293408Y-78475000D01*
X130342592Y-78475000D01*
X130117087Y-78497210D01*
X129827739Y-78584983D01*
X129561073Y-78727519D01*
X129327339Y-78919339D01*
X129135519Y-79153073D01*
X128992983Y-79419739D01*
X128905210Y-79709087D01*
X128875573Y-80010000D01*
X109982000Y-80010000D01*
X109982000Y-79645260D01*
X111908964Y-79645260D01*
X112029622Y-79883000D01*
X114173000Y-79883000D01*
X114173000Y-78475000D01*
X114427000Y-78475000D01*
X114427000Y-79883000D01*
X116570378Y-79883000D01*
X116691036Y-79645260D01*
X116666755Y-79539913D01*
X116546862Y-79262796D01*
X116375210Y-79014394D01*
X116158396Y-78804252D01*
X115904751Y-78640446D01*
X115624023Y-78529271D01*
X115327000Y-78475000D01*
X114427000Y-78475000D01*
X114173000Y-78475000D01*
X113273000Y-78475000D01*
X112975977Y-78529271D01*
X112695249Y-78640446D01*
X112441604Y-78804252D01*
X112224790Y-79014394D01*
X112053138Y-79262796D01*
X111933245Y-79539913D01*
X111908964Y-79645260D01*
X109982000Y-79645260D01*
X109982000Y-76564740D01*
X111908964Y-76564740D01*
X111933245Y-76670087D01*
X112053138Y-76947204D01*
X112224790Y-77195606D01*
X112441604Y-77405748D01*
X112695249Y-77569554D01*
X112975977Y-77680729D01*
X113273000Y-77735000D01*
X114173000Y-77735000D01*
X114173000Y-76327000D01*
X114427000Y-76327000D01*
X114427000Y-77735000D01*
X115327000Y-77735000D01*
X115624023Y-77680729D01*
X115904751Y-77569554D01*
X116158396Y-77405748D01*
X116375210Y-77195606D01*
X116546862Y-76947204D01*
X116666755Y-76670087D01*
X116691036Y-76564740D01*
X116570378Y-76327000D01*
X114427000Y-76327000D01*
X114173000Y-76327000D01*
X112029622Y-76327000D01*
X111908964Y-76564740D01*
X109982000Y-76564740D01*
X109982000Y-76200000D01*
X128875573Y-76200000D01*
X128905210Y-76500913D01*
X128992983Y-76790261D01*
X129135519Y-77056927D01*
X129327339Y-77290661D01*
X129561073Y-77482481D01*
X129827739Y-77625017D01*
X130117087Y-77712790D01*
X130342592Y-77735000D01*
X132293408Y-77735000D01*
X132518913Y-77712790D01*
X132808261Y-77625017D01*
X133074927Y-77482481D01*
X133308661Y-77290661D01*
X133500481Y-77056927D01*
X133538927Y-76985000D01*
X138283843Y-76985000D01*
X139135500Y-77836658D01*
X139135500Y-77863439D01*
X139175274Y-78063398D01*
X139253295Y-78251756D01*
X139366563Y-78421274D01*
X139510726Y-78565437D01*
X139680244Y-78678705D01*
X139868602Y-78756726D01*
X140068561Y-78796500D01*
X140272439Y-78796500D01*
X140472398Y-78756726D01*
X140660756Y-78678705D01*
X140830274Y-78565437D01*
X140974437Y-78421274D01*
X141087705Y-78251756D01*
X141165726Y-78063398D01*
X141205500Y-77863439D01*
X141205500Y-77659561D01*
X141165726Y-77459602D01*
X141087705Y-77271244D01*
X140974437Y-77101726D01*
X140830274Y-76957563D01*
X140660756Y-76844295D01*
X140472398Y-76766274D01*
X140272439Y-76726500D01*
X140245658Y-76726500D01*
X139191347Y-75672190D01*
X139166764Y-75642236D01*
X139047233Y-75544138D01*
X138910860Y-75471246D01*
X138762887Y-75426359D01*
X138647561Y-75415000D01*
X138647553Y-75415000D01*
X138609000Y-75411203D01*
X138570447Y-75415000D01*
X133538927Y-75415000D01*
X133500481Y-75343073D01*
X133308661Y-75109339D01*
X133074927Y-74917519D01*
X132808261Y-74774983D01*
X132518913Y-74687210D01*
X132293408Y-74665000D01*
X130342592Y-74665000D01*
X130117087Y-74687210D01*
X129827739Y-74774983D01*
X129561073Y-74917519D01*
X129327339Y-75109339D01*
X129135519Y-75343073D01*
X128992983Y-75609739D01*
X128905210Y-75899087D01*
X128875573Y-76200000D01*
X109982000Y-76200000D01*
X109982000Y-75835260D01*
X111908964Y-75835260D01*
X112029622Y-76073000D01*
X114173000Y-76073000D01*
X114173000Y-74665000D01*
X114427000Y-74665000D01*
X114427000Y-76073000D01*
X116570378Y-76073000D01*
X116691036Y-75835260D01*
X116666755Y-75729913D01*
X116546862Y-75452796D01*
X116375210Y-75204394D01*
X116158396Y-74994252D01*
X115904751Y-74830446D01*
X115624023Y-74719271D01*
X115327000Y-74665000D01*
X114427000Y-74665000D01*
X114173000Y-74665000D01*
X113273000Y-74665000D01*
X112975977Y-74719271D01*
X112695249Y-74830446D01*
X112441604Y-74994252D01*
X112224790Y-75204394D01*
X112053138Y-75452796D01*
X111933245Y-75729913D01*
X111908964Y-75835260D01*
X109982000Y-75835260D01*
X109982000Y-72754740D01*
X111908964Y-72754740D01*
X111933245Y-72860087D01*
X112053138Y-73137204D01*
X112224790Y-73385606D01*
X112441604Y-73595748D01*
X112695249Y-73759554D01*
X112975977Y-73870729D01*
X113273000Y-73925000D01*
X114173000Y-73925000D01*
X114173000Y-72517000D01*
X114427000Y-72517000D01*
X114427000Y-73925000D01*
X115327000Y-73925000D01*
X115624023Y-73870729D01*
X115904751Y-73759554D01*
X116158396Y-73595748D01*
X116375210Y-73385606D01*
X116546862Y-73137204D01*
X116666755Y-72860087D01*
X116691036Y-72754740D01*
X116570378Y-72517000D01*
X114427000Y-72517000D01*
X114173000Y-72517000D01*
X112029622Y-72517000D01*
X111908964Y-72754740D01*
X109982000Y-72754740D01*
X109982000Y-72390000D01*
X128875573Y-72390000D01*
X128905210Y-72690913D01*
X128992983Y-72980261D01*
X129135519Y-73246927D01*
X129327339Y-73480661D01*
X129561073Y-73672481D01*
X129827739Y-73815017D01*
X130117087Y-73902790D01*
X130342592Y-73925000D01*
X132293408Y-73925000D01*
X132518913Y-73902790D01*
X132808261Y-73815017D01*
X133074927Y-73672481D01*
X133308661Y-73480661D01*
X133500481Y-73246927D01*
X133538927Y-73175000D01*
X137129845Y-73175000D01*
X138431501Y-74476657D01*
X138431501Y-74503438D01*
X138471275Y-74703397D01*
X138549296Y-74891755D01*
X138662564Y-75061273D01*
X138806727Y-75205436D01*
X138976245Y-75318704D01*
X139164603Y-75396725D01*
X139364562Y-75436499D01*
X139568440Y-75436499D01*
X139768399Y-75396725D01*
X139956757Y-75318704D01*
X140126275Y-75205436D01*
X140270438Y-75061273D01*
X140383706Y-74891755D01*
X140461727Y-74703397D01*
X140501501Y-74503438D01*
X140501501Y-74299560D01*
X140461727Y-74099601D01*
X140383706Y-73911243D01*
X140270438Y-73741725D01*
X140126275Y-73597562D01*
X139956757Y-73484294D01*
X139768399Y-73406273D01*
X139568440Y-73366499D01*
X139541659Y-73366499D01*
X138037349Y-71862190D01*
X138012766Y-71832236D01*
X137893235Y-71734138D01*
X137756862Y-71661246D01*
X137608889Y-71616359D01*
X137493563Y-71605000D01*
X137493555Y-71605000D01*
X137455002Y-71601203D01*
X137416449Y-71605000D01*
X133538927Y-71605000D01*
X133500481Y-71533073D01*
X133308661Y-71299339D01*
X133074927Y-71107519D01*
X132808261Y-70964983D01*
X132518913Y-70877210D01*
X132293408Y-70855000D01*
X130342592Y-70855000D01*
X130117087Y-70877210D01*
X129827739Y-70964983D01*
X129561073Y-71107519D01*
X129327339Y-71299339D01*
X129135519Y-71533073D01*
X128992983Y-71799739D01*
X128905210Y-72089087D01*
X128875573Y-72390000D01*
X109982000Y-72390000D01*
X109982000Y-72025260D01*
X111908964Y-72025260D01*
X112029622Y-72263000D01*
X114173000Y-72263000D01*
X114173000Y-70855000D01*
X114427000Y-70855000D01*
X114427000Y-72263000D01*
X116570378Y-72263000D01*
X116691036Y-72025260D01*
X116666755Y-71919913D01*
X116546862Y-71642796D01*
X116375210Y-71394394D01*
X116158396Y-71184252D01*
X115904751Y-71020446D01*
X115624023Y-70909271D01*
X115327000Y-70855000D01*
X114427000Y-70855000D01*
X114173000Y-70855000D01*
X113273000Y-70855000D01*
X112975977Y-70909271D01*
X112695249Y-71020446D01*
X112441604Y-71184252D01*
X112224790Y-71394394D01*
X112053138Y-71642796D01*
X111933245Y-71919913D01*
X111908964Y-72025260D01*
X109982000Y-72025260D01*
X109982000Y-68944740D01*
X111908964Y-68944740D01*
X111933245Y-69050087D01*
X112053138Y-69327204D01*
X112224790Y-69575606D01*
X112441604Y-69785748D01*
X112695249Y-69949554D01*
X112975977Y-70060729D01*
X113273000Y-70115000D01*
X114173000Y-70115000D01*
X114173000Y-68707000D01*
X114427000Y-68707000D01*
X114427000Y-70115000D01*
X115327000Y-70115000D01*
X115624023Y-70060729D01*
X115904751Y-69949554D01*
X116158396Y-69785748D01*
X116375210Y-69575606D01*
X116546862Y-69327204D01*
X116666755Y-69050087D01*
X116691036Y-68944740D01*
X116570378Y-68707000D01*
X114427000Y-68707000D01*
X114173000Y-68707000D01*
X112029622Y-68707000D01*
X111908964Y-68944740D01*
X109982000Y-68944740D01*
X109982000Y-68580000D01*
X128875573Y-68580000D01*
X128905210Y-68880913D01*
X128992983Y-69170261D01*
X129135519Y-69436927D01*
X129327339Y-69670661D01*
X129561073Y-69862481D01*
X129827739Y-70005017D01*
X130117087Y-70092790D01*
X130342592Y-70115000D01*
X132293408Y-70115000D01*
X132518913Y-70092790D01*
X132808261Y-70005017D01*
X133074927Y-69862481D01*
X133308661Y-69670661D01*
X133500481Y-69436927D01*
X133538927Y-69365000D01*
X138358843Y-69365000D01*
X139260001Y-70266159D01*
X139260001Y-70292940D01*
X139299775Y-70492899D01*
X139377796Y-70681257D01*
X139491064Y-70850775D01*
X139635227Y-70994938D01*
X139804745Y-71108206D01*
X139993103Y-71186227D01*
X140193062Y-71226001D01*
X140396940Y-71226001D01*
X140596899Y-71186227D01*
X140785257Y-71108206D01*
X140954775Y-70994938D01*
X141098938Y-70850775D01*
X141212206Y-70681257D01*
X141290227Y-70492899D01*
X141330001Y-70292940D01*
X141330001Y-70089062D01*
X141290227Y-69889103D01*
X141212206Y-69700745D01*
X141098938Y-69531227D01*
X140954775Y-69387064D01*
X140785257Y-69273796D01*
X140596899Y-69195775D01*
X140396940Y-69156001D01*
X140370159Y-69156001D01*
X139266347Y-68052190D01*
X139241764Y-68022236D01*
X139122233Y-67924138D01*
X138985860Y-67851246D01*
X138837887Y-67806359D01*
X138722561Y-67795000D01*
X138722553Y-67795000D01*
X138684000Y-67791203D01*
X138645447Y-67795000D01*
X133538927Y-67795000D01*
X133500481Y-67723073D01*
X133308661Y-67489339D01*
X133074927Y-67297519D01*
X132808261Y-67154983D01*
X132518913Y-67067210D01*
X132293408Y-67045000D01*
X130342592Y-67045000D01*
X130117087Y-67067210D01*
X129827739Y-67154983D01*
X129561073Y-67297519D01*
X129327339Y-67489339D01*
X129135519Y-67723073D01*
X128992983Y-67989739D01*
X128905210Y-68279087D01*
X128875573Y-68580000D01*
X109982000Y-68580000D01*
X109982000Y-68215260D01*
X111908964Y-68215260D01*
X112029622Y-68453000D01*
X114173000Y-68453000D01*
X114173000Y-67045000D01*
X114427000Y-67045000D01*
X114427000Y-68453000D01*
X116570378Y-68453000D01*
X116691036Y-68215260D01*
X116666755Y-68109913D01*
X116546862Y-67832796D01*
X116375210Y-67584394D01*
X116158396Y-67374252D01*
X115904751Y-67210446D01*
X115624023Y-67099271D01*
X115327000Y-67045000D01*
X114427000Y-67045000D01*
X114173000Y-67045000D01*
X113273000Y-67045000D01*
X112975977Y-67099271D01*
X112695249Y-67210446D01*
X112441604Y-67374252D01*
X112224790Y-67584394D01*
X112053138Y-67832796D01*
X111933245Y-68109913D01*
X111908964Y-68215260D01*
X109982000Y-68215260D01*
X109982000Y-65134740D01*
X111908964Y-65134740D01*
X111933245Y-65240087D01*
X112053138Y-65517204D01*
X112224790Y-65765606D01*
X112441604Y-65975748D01*
X112695249Y-66139554D01*
X112975977Y-66250729D01*
X113273000Y-66305000D01*
X114173000Y-66305000D01*
X114173000Y-64897000D01*
X114427000Y-64897000D01*
X114427000Y-66305000D01*
X115327000Y-66305000D01*
X115624023Y-66250729D01*
X115904751Y-66139554D01*
X116158396Y-65975748D01*
X116375210Y-65765606D01*
X116546862Y-65517204D01*
X116666755Y-65240087D01*
X116691036Y-65134740D01*
X116570378Y-64897000D01*
X114427000Y-64897000D01*
X114173000Y-64897000D01*
X112029622Y-64897000D01*
X111908964Y-65134740D01*
X109982000Y-65134740D01*
X109982000Y-64770000D01*
X128875573Y-64770000D01*
X128905210Y-65070913D01*
X128992983Y-65360261D01*
X129135519Y-65626927D01*
X129327339Y-65860661D01*
X129561073Y-66052481D01*
X129827739Y-66195017D01*
X130117087Y-66282790D01*
X130342592Y-66305000D01*
X132293408Y-66305000D01*
X132518913Y-66282790D01*
X132808261Y-66195017D01*
X133074927Y-66052481D01*
X133308661Y-65860661D01*
X133500481Y-65626927D01*
X133538927Y-65555000D01*
X137869843Y-65555000D01*
X139182500Y-66867658D01*
X139182500Y-66894439D01*
X139222274Y-67094398D01*
X139300295Y-67282756D01*
X139413563Y-67452274D01*
X139557726Y-67596437D01*
X139727244Y-67709705D01*
X139915602Y-67787726D01*
X140115561Y-67827500D01*
X140319439Y-67827500D01*
X140519398Y-67787726D01*
X140707756Y-67709705D01*
X140877274Y-67596437D01*
X141021437Y-67452274D01*
X141134705Y-67282756D01*
X141212726Y-67094398D01*
X141252500Y-66894439D01*
X141252500Y-66690561D01*
X141212726Y-66490602D01*
X141134705Y-66302244D01*
X141021437Y-66132726D01*
X140877274Y-65988563D01*
X140707756Y-65875295D01*
X140582477Y-65823402D01*
X142121400Y-65823402D01*
X142121400Y-66118600D01*
X142178990Y-66408126D01*
X142291958Y-66680854D01*
X142455961Y-66926303D01*
X142664698Y-67135040D01*
X142823281Y-67241001D01*
X142664698Y-67346962D01*
X142455961Y-67555699D01*
X142291958Y-67801148D01*
X142178990Y-68073876D01*
X142121400Y-68363402D01*
X142121400Y-68658600D01*
X142178990Y-68948126D01*
X142291958Y-69220854D01*
X142455961Y-69466303D01*
X142664698Y-69675040D01*
X142823281Y-69781001D01*
X142664698Y-69886962D01*
X142455961Y-70095699D01*
X142291958Y-70341148D01*
X142178990Y-70613876D01*
X142121400Y-70903402D01*
X142121400Y-71198600D01*
X142178990Y-71488126D01*
X142291958Y-71760854D01*
X142455961Y-72006303D01*
X142664698Y-72215040D01*
X142823281Y-72321001D01*
X142664698Y-72426962D01*
X142455961Y-72635699D01*
X142291958Y-72881148D01*
X142178990Y-73153876D01*
X142121400Y-73443402D01*
X142121400Y-73738600D01*
X142178990Y-74028126D01*
X142291958Y-74300854D01*
X142455961Y-74546303D01*
X142664698Y-74755040D01*
X142823281Y-74861001D01*
X142664698Y-74966962D01*
X142455961Y-75175699D01*
X142291958Y-75421148D01*
X142178990Y-75693876D01*
X142121400Y-75983402D01*
X142121400Y-76278600D01*
X142178990Y-76568126D01*
X142291958Y-76840854D01*
X142455961Y-77086303D01*
X142664698Y-77295040D01*
X142823281Y-77401001D01*
X142664698Y-77506962D01*
X142455961Y-77715699D01*
X142291958Y-77961148D01*
X142178990Y-78233876D01*
X142121400Y-78523402D01*
X142121400Y-78818600D01*
X142178990Y-79108126D01*
X142291958Y-79380854D01*
X142455961Y-79626303D01*
X142664698Y-79835040D01*
X142823281Y-79941001D01*
X142664698Y-80046962D01*
X142455961Y-80255699D01*
X142291958Y-80501148D01*
X142178990Y-80773876D01*
X142121400Y-81063402D01*
X142121400Y-81358600D01*
X142178990Y-81648126D01*
X142291958Y-81920854D01*
X142455961Y-82166303D01*
X142664698Y-82375040D01*
X142823281Y-82481001D01*
X142664698Y-82586962D01*
X142455961Y-82795699D01*
X142291958Y-83041148D01*
X142178990Y-83313876D01*
X142121400Y-83603402D01*
X142121400Y-83898600D01*
X142178990Y-84188126D01*
X142291958Y-84460854D01*
X142455961Y-84706303D01*
X142664698Y-84915040D01*
X142823281Y-85021001D01*
X142664698Y-85126962D01*
X142455961Y-85335699D01*
X142291958Y-85581148D01*
X142178990Y-85853876D01*
X142121400Y-86143402D01*
X142121400Y-86438600D01*
X142178990Y-86728126D01*
X142291958Y-87000854D01*
X142455961Y-87246303D01*
X142664698Y-87455040D01*
X142823281Y-87561001D01*
X142664698Y-87666962D01*
X142455961Y-87875699D01*
X142291958Y-88121148D01*
X142178990Y-88393876D01*
X142121400Y-88683402D01*
X142121400Y-88978600D01*
X142178990Y-89268126D01*
X142291958Y-89540854D01*
X142455961Y-89786303D01*
X142664698Y-89995040D01*
X142823281Y-90101001D01*
X142664698Y-90206962D01*
X142455961Y-90415699D01*
X142291958Y-90661148D01*
X142178990Y-90933876D01*
X142121400Y-91223402D01*
X142121400Y-91518600D01*
X142178990Y-91808126D01*
X142291958Y-92080854D01*
X142455961Y-92326303D01*
X142664698Y-92535040D01*
X142823281Y-92641001D01*
X142664698Y-92746962D01*
X142455961Y-92955699D01*
X142291958Y-93201148D01*
X142178990Y-93473876D01*
X142121400Y-93763402D01*
X142121400Y-94058600D01*
X142178990Y-94348126D01*
X142291958Y-94620854D01*
X142455961Y-94866303D01*
X142664698Y-95075040D01*
X142823281Y-95181001D01*
X142664698Y-95286962D01*
X142455961Y-95495699D01*
X142291958Y-95741148D01*
X142178990Y-96013876D01*
X142121400Y-96303402D01*
X142121400Y-96598600D01*
X142178990Y-96888126D01*
X142291958Y-97160854D01*
X142455961Y-97406303D01*
X142664698Y-97615040D01*
X142825813Y-97722693D01*
X142609707Y-97884147D01*
X142413183Y-98102513D01*
X142263036Y-98355023D01*
X142165037Y-98631974D01*
X142285536Y-98864001D01*
X143493000Y-98864001D01*
X143493000Y-98844001D01*
X143747000Y-98844001D01*
X143747000Y-98864001D01*
X144954464Y-98864001D01*
X145074963Y-98631974D01*
X144976964Y-98355023D01*
X144826817Y-98102513D01*
X144630293Y-97884147D01*
X144414187Y-97722693D01*
X144575302Y-97615040D01*
X144784039Y-97406303D01*
X144948042Y-97160854D01*
X145061010Y-96888126D01*
X145118600Y-96598600D01*
X145118600Y-96303402D01*
X145061010Y-96013876D01*
X144948042Y-95741148D01*
X144784039Y-95495699D01*
X144575302Y-95286962D01*
X144416719Y-95181001D01*
X144575302Y-95075040D01*
X144784039Y-94866303D01*
X144948042Y-94620854D01*
X145061010Y-94348126D01*
X145118600Y-94058600D01*
X145118600Y-93763402D01*
X145061010Y-93473876D01*
X144948042Y-93201148D01*
X144784039Y-92955699D01*
X144575302Y-92746962D01*
X144416719Y-92641001D01*
X144575302Y-92535040D01*
X144784039Y-92326303D01*
X144948042Y-92080854D01*
X145061010Y-91808126D01*
X145118600Y-91518600D01*
X145118600Y-91223402D01*
X145061010Y-90933876D01*
X144948042Y-90661148D01*
X144784039Y-90415699D01*
X144575302Y-90206962D01*
X144416719Y-90101001D01*
X144575302Y-89995040D01*
X144784039Y-89786303D01*
X144948042Y-89540854D01*
X145061010Y-89268126D01*
X145118600Y-88978600D01*
X145118600Y-88683402D01*
X145061010Y-88393876D01*
X144948042Y-88121148D01*
X144784039Y-87875699D01*
X144575302Y-87666962D01*
X144416719Y-87561001D01*
X144575302Y-87455040D01*
X144784039Y-87246303D01*
X144948042Y-87000854D01*
X145061010Y-86728126D01*
X145118600Y-86438600D01*
X145118600Y-86143402D01*
X145061010Y-85853876D01*
X144948042Y-85581148D01*
X144784039Y-85335699D01*
X144575302Y-85126962D01*
X144416719Y-85021001D01*
X144575302Y-84915040D01*
X144784039Y-84706303D01*
X144948042Y-84460854D01*
X145061010Y-84188126D01*
X145118600Y-83898600D01*
X145118600Y-83603402D01*
X145061010Y-83313876D01*
X144948042Y-83041148D01*
X144784039Y-82795699D01*
X144575302Y-82586962D01*
X144416719Y-82481001D01*
X144575302Y-82375040D01*
X144784039Y-82166303D01*
X144948042Y-81920854D01*
X145061010Y-81648126D01*
X145118600Y-81358600D01*
X145118600Y-81063402D01*
X145061010Y-80773876D01*
X144948042Y-80501148D01*
X144784039Y-80255699D01*
X144575302Y-80046962D01*
X144416719Y-79941001D01*
X144575302Y-79835040D01*
X144784039Y-79626303D01*
X144948042Y-79380854D01*
X145061010Y-79108126D01*
X145118600Y-78818600D01*
X145118600Y-78523402D01*
X145061010Y-78233876D01*
X144948042Y-77961148D01*
X144784039Y-77715699D01*
X144575302Y-77506962D01*
X144416719Y-77401001D01*
X144575302Y-77295040D01*
X144784039Y-77086303D01*
X144948042Y-76840854D01*
X145061010Y-76568126D01*
X145118600Y-76278600D01*
X145118600Y-75983402D01*
X145061010Y-75693876D01*
X144948042Y-75421148D01*
X144784039Y-75175699D01*
X144575302Y-74966962D01*
X144416719Y-74861001D01*
X144575302Y-74755040D01*
X144784039Y-74546303D01*
X144948042Y-74300854D01*
X145061010Y-74028126D01*
X145118600Y-73738600D01*
X145118600Y-73443402D01*
X145061010Y-73153876D01*
X144948042Y-72881148D01*
X144784039Y-72635699D01*
X144575302Y-72426962D01*
X144416719Y-72321001D01*
X144575302Y-72215040D01*
X144784039Y-72006303D01*
X144948042Y-71760854D01*
X145061010Y-71488126D01*
X145118600Y-71198600D01*
X145118600Y-70903402D01*
X145061010Y-70613876D01*
X144948042Y-70341148D01*
X144784039Y-70095699D01*
X144575302Y-69886962D01*
X144416719Y-69781001D01*
X144575302Y-69675040D01*
X144784039Y-69466303D01*
X144948042Y-69220854D01*
X145061010Y-68948126D01*
X145118600Y-68658600D01*
X145118600Y-68363402D01*
X145061010Y-68073876D01*
X144948042Y-67801148D01*
X144784039Y-67555699D01*
X144575302Y-67346962D01*
X144416719Y-67241001D01*
X144575302Y-67135040D01*
X144784039Y-66926303D01*
X144948042Y-66680854D01*
X145061010Y-66408126D01*
X145118600Y-66118600D01*
X145118600Y-65823402D01*
X145117898Y-65819872D01*
X148895000Y-65819872D01*
X148895000Y-66260128D01*
X148980890Y-66691925D01*
X149149369Y-67098669D01*
X149393962Y-67464729D01*
X149705271Y-67776038D01*
X150071331Y-68020631D01*
X150478075Y-68189110D01*
X150909872Y-68275000D01*
X151350128Y-68275000D01*
X151781925Y-68189110D01*
X152188669Y-68020631D01*
X152554729Y-67776038D01*
X152866038Y-67464729D01*
X153110631Y-67098669D01*
X153279110Y-66691925D01*
X153365000Y-66260128D01*
X153365000Y-65823402D01*
X157361400Y-65823402D01*
X157361400Y-66118600D01*
X157418990Y-66408126D01*
X157531958Y-66680854D01*
X157695961Y-66926303D01*
X157904698Y-67135040D01*
X158063281Y-67241001D01*
X157904698Y-67346962D01*
X157695961Y-67555699D01*
X157531958Y-67801148D01*
X157418990Y-68073876D01*
X157361400Y-68363402D01*
X157361400Y-68658600D01*
X157418990Y-68948126D01*
X157531958Y-69220854D01*
X157695961Y-69466303D01*
X157904698Y-69675040D01*
X158063281Y-69781001D01*
X157904698Y-69886962D01*
X157695961Y-70095699D01*
X157531958Y-70341148D01*
X157418990Y-70613876D01*
X157361400Y-70903402D01*
X157361400Y-71198600D01*
X157418990Y-71488126D01*
X157531958Y-71760854D01*
X157695961Y-72006303D01*
X157904698Y-72215040D01*
X158063281Y-72321001D01*
X157904698Y-72426962D01*
X157695961Y-72635699D01*
X157531958Y-72881148D01*
X157418990Y-73153876D01*
X157361400Y-73443402D01*
X157361400Y-73738600D01*
X157418990Y-74028126D01*
X157531958Y-74300854D01*
X157695961Y-74546303D01*
X157904698Y-74755040D01*
X158063281Y-74861001D01*
X157904698Y-74966962D01*
X157695961Y-75175699D01*
X157531958Y-75421148D01*
X157418990Y-75693876D01*
X157361400Y-75983402D01*
X157361400Y-76278600D01*
X157418990Y-76568126D01*
X157531958Y-76840854D01*
X157695961Y-77086303D01*
X157904698Y-77295040D01*
X158063281Y-77401001D01*
X157904698Y-77506962D01*
X157695961Y-77715699D01*
X157531958Y-77961148D01*
X157418990Y-78233876D01*
X157361400Y-78523402D01*
X157361400Y-78818600D01*
X157418990Y-79108126D01*
X157531958Y-79380854D01*
X157695961Y-79626303D01*
X157904698Y-79835040D01*
X158063281Y-79941001D01*
X157904698Y-80046962D01*
X157695961Y-80255699D01*
X157531958Y-80501148D01*
X157418990Y-80773876D01*
X157361400Y-81063402D01*
X157361400Y-81358600D01*
X157418990Y-81648126D01*
X157531958Y-81920854D01*
X157695961Y-82166303D01*
X157904698Y-82375040D01*
X158063281Y-82481001D01*
X157904698Y-82586962D01*
X157695961Y-82795699D01*
X157531958Y-83041148D01*
X157418990Y-83313876D01*
X157361400Y-83603402D01*
X157361400Y-83898600D01*
X157418990Y-84188126D01*
X157531958Y-84460854D01*
X157695961Y-84706303D01*
X157904698Y-84915040D01*
X158063281Y-85021001D01*
X157904698Y-85126962D01*
X157695961Y-85335699D01*
X157531958Y-85581148D01*
X157418990Y-85853876D01*
X157361400Y-86143402D01*
X157361400Y-86438600D01*
X157418990Y-86728126D01*
X157531958Y-87000854D01*
X157695961Y-87246303D01*
X157904698Y-87455040D01*
X158063281Y-87561001D01*
X157904698Y-87666962D01*
X157695961Y-87875699D01*
X157531958Y-88121148D01*
X157418990Y-88393876D01*
X157361400Y-88683402D01*
X157361400Y-88978600D01*
X157418990Y-89268126D01*
X157531958Y-89540854D01*
X157695961Y-89786303D01*
X157904698Y-89995040D01*
X158063281Y-90101001D01*
X157904698Y-90206962D01*
X157695961Y-90415699D01*
X157531958Y-90661148D01*
X157418990Y-90933876D01*
X157361400Y-91223402D01*
X157361400Y-91518600D01*
X157418990Y-91808126D01*
X157531958Y-92080854D01*
X157695961Y-92326303D01*
X157904698Y-92535040D01*
X158065813Y-92642693D01*
X157849707Y-92804147D01*
X157653183Y-93022513D01*
X157503036Y-93275023D01*
X157405037Y-93551974D01*
X157525536Y-93784001D01*
X158733000Y-93784001D01*
X158733000Y-93764001D01*
X158987000Y-93764001D01*
X158987000Y-93784001D01*
X160194464Y-93784001D01*
X160314963Y-93551974D01*
X160216964Y-93275023D01*
X160101000Y-93080000D01*
X169011928Y-93080000D01*
X169011928Y-94880000D01*
X169024188Y-95004482D01*
X169060498Y-95124180D01*
X169119463Y-95234494D01*
X169198815Y-95331185D01*
X169295506Y-95410537D01*
X169405820Y-95469502D01*
X169525518Y-95505812D01*
X169650000Y-95518072D01*
X173250000Y-95518072D01*
X173374482Y-95505812D01*
X173494180Y-95469502D01*
X173604494Y-95410537D01*
X173701185Y-95331185D01*
X173780537Y-95234494D01*
X173839502Y-95124180D01*
X173875812Y-95004482D01*
X173888072Y-94880000D01*
X182981928Y-94880000D01*
X182994188Y-95004482D01*
X183030498Y-95124180D01*
X183089463Y-95234494D01*
X183168815Y-95331185D01*
X183265506Y-95410537D01*
X183375820Y-95469502D01*
X183495518Y-95505812D01*
X183620000Y-95518072D01*
X185134250Y-95515000D01*
X185293000Y-95356250D01*
X185293000Y-94107000D01*
X185547000Y-94107000D01*
X185547000Y-95356250D01*
X185705750Y-95515000D01*
X187220000Y-95518072D01*
X187344482Y-95505812D01*
X187464180Y-95469502D01*
X187574494Y-95410537D01*
X187671185Y-95331185D01*
X187750537Y-95234494D01*
X187809502Y-95124180D01*
X187845812Y-95004482D01*
X187858072Y-94880000D01*
X187855000Y-94265750D01*
X187696250Y-94107000D01*
X185547000Y-94107000D01*
X185293000Y-94107000D01*
X183143750Y-94107000D01*
X182985000Y-94265750D01*
X182981928Y-94880000D01*
X173888072Y-94880000D01*
X173888072Y-93080000D01*
X182981928Y-93080000D01*
X182985000Y-93694250D01*
X183143750Y-93853000D01*
X185293000Y-93853000D01*
X185293000Y-92603750D01*
X185547000Y-92603750D01*
X185547000Y-93853000D01*
X187696250Y-93853000D01*
X187855000Y-93694250D01*
X187858072Y-93080000D01*
X187845812Y-92955518D01*
X187809502Y-92835820D01*
X187750537Y-92725506D01*
X187671185Y-92628815D01*
X187574494Y-92549463D01*
X187464180Y-92490498D01*
X187344482Y-92454188D01*
X187220000Y-92441928D01*
X185705750Y-92445000D01*
X185547000Y-92603750D01*
X185293000Y-92603750D01*
X185134250Y-92445000D01*
X183620000Y-92441928D01*
X183495518Y-92454188D01*
X183375820Y-92490498D01*
X183265506Y-92549463D01*
X183168815Y-92628815D01*
X183089463Y-92725506D01*
X183030498Y-92835820D01*
X182994188Y-92955518D01*
X182981928Y-93080000D01*
X173888072Y-93080000D01*
X173875812Y-92955518D01*
X173839502Y-92835820D01*
X173780537Y-92725506D01*
X173701185Y-92628815D01*
X173604494Y-92549463D01*
X173494180Y-92490498D01*
X173374482Y-92454188D01*
X173250000Y-92441928D01*
X169650000Y-92441928D01*
X169525518Y-92454188D01*
X169405820Y-92490498D01*
X169295506Y-92549463D01*
X169198815Y-92628815D01*
X169119463Y-92725506D01*
X169060498Y-92835820D01*
X169024188Y-92955518D01*
X169011928Y-93080000D01*
X160101000Y-93080000D01*
X160066817Y-93022513D01*
X159870293Y-92804147D01*
X159654187Y-92642693D01*
X159815302Y-92535040D01*
X160024039Y-92326303D01*
X160188042Y-92080854D01*
X160301010Y-91808126D01*
X160358600Y-91518600D01*
X160358600Y-91223402D01*
X160301010Y-90933876D01*
X160188042Y-90661148D01*
X160024039Y-90415699D01*
X159815302Y-90206962D01*
X159759985Y-90170000D01*
X169007573Y-90170000D01*
X169037210Y-90470913D01*
X169124983Y-90760261D01*
X169267519Y-91026927D01*
X169459339Y-91260661D01*
X169693073Y-91452481D01*
X169959739Y-91595017D01*
X170249087Y-91682790D01*
X170474592Y-91705000D01*
X172425408Y-91705000D01*
X172650913Y-91682790D01*
X172940261Y-91595017D01*
X173206927Y-91452481D01*
X173440661Y-91260661D01*
X173632481Y-91026927D01*
X173775017Y-90760261D01*
X173843428Y-90534740D01*
X183028964Y-90534740D01*
X183053245Y-90640087D01*
X183173138Y-90917204D01*
X183344790Y-91165606D01*
X183561604Y-91375748D01*
X183815249Y-91539554D01*
X184095977Y-91650729D01*
X184393000Y-91705000D01*
X185293000Y-91705000D01*
X185293000Y-90297000D01*
X185547000Y-90297000D01*
X185547000Y-91705000D01*
X186447000Y-91705000D01*
X186744023Y-91650729D01*
X187024751Y-91539554D01*
X187278396Y-91375748D01*
X187495210Y-91165606D01*
X187666862Y-90917204D01*
X187786755Y-90640087D01*
X187811036Y-90534740D01*
X187690378Y-90297000D01*
X185547000Y-90297000D01*
X185293000Y-90297000D01*
X183149622Y-90297000D01*
X183028964Y-90534740D01*
X173843428Y-90534740D01*
X173862790Y-90470913D01*
X173892427Y-90170000D01*
X173862790Y-89869087D01*
X173843429Y-89805260D01*
X183028964Y-89805260D01*
X183149622Y-90043000D01*
X185293000Y-90043000D01*
X185293000Y-88635000D01*
X185547000Y-88635000D01*
X185547000Y-90043000D01*
X187690378Y-90043000D01*
X187811036Y-89805260D01*
X187786755Y-89699913D01*
X187666862Y-89422796D01*
X187495210Y-89174394D01*
X187278396Y-88964252D01*
X187024751Y-88800446D01*
X186744023Y-88689271D01*
X186447000Y-88635000D01*
X185547000Y-88635000D01*
X185293000Y-88635000D01*
X184393000Y-88635000D01*
X184095977Y-88689271D01*
X183815249Y-88800446D01*
X183561604Y-88964252D01*
X183344790Y-89174394D01*
X183173138Y-89422796D01*
X183053245Y-89699913D01*
X183028964Y-89805260D01*
X173843429Y-89805260D01*
X173775017Y-89579739D01*
X173632481Y-89313073D01*
X173440661Y-89079339D01*
X173206927Y-88887519D01*
X172940261Y-88744983D01*
X172650913Y-88657210D01*
X172425408Y-88635000D01*
X170474592Y-88635000D01*
X170249087Y-88657210D01*
X169959739Y-88744983D01*
X169693073Y-88887519D01*
X169459339Y-89079339D01*
X169267519Y-89313073D01*
X169124983Y-89579739D01*
X169037210Y-89869087D01*
X169007573Y-90170000D01*
X159759985Y-90170000D01*
X159656719Y-90101001D01*
X159815302Y-89995040D01*
X160024039Y-89786303D01*
X160188042Y-89540854D01*
X160301010Y-89268126D01*
X160358600Y-88978600D01*
X160358600Y-88683402D01*
X160301010Y-88393876D01*
X160188042Y-88121148D01*
X160024039Y-87875699D01*
X159815302Y-87666962D01*
X159656719Y-87561001D01*
X159815302Y-87455040D01*
X160024039Y-87246303D01*
X160188042Y-87000854D01*
X160301010Y-86728126D01*
X160358600Y-86438600D01*
X160358600Y-86360000D01*
X169007573Y-86360000D01*
X169037210Y-86660913D01*
X169124983Y-86950261D01*
X169267519Y-87216927D01*
X169459339Y-87450661D01*
X169693073Y-87642481D01*
X169959739Y-87785017D01*
X170249087Y-87872790D01*
X170474592Y-87895000D01*
X172425408Y-87895000D01*
X172650913Y-87872790D01*
X172940261Y-87785017D01*
X173206927Y-87642481D01*
X173440661Y-87450661D01*
X173632481Y-87216927D01*
X173775017Y-86950261D01*
X173843428Y-86724740D01*
X183028964Y-86724740D01*
X183053245Y-86830087D01*
X183173138Y-87107204D01*
X183344790Y-87355606D01*
X183561604Y-87565748D01*
X183815249Y-87729554D01*
X184095977Y-87840729D01*
X184393000Y-87895000D01*
X185293000Y-87895000D01*
X185293000Y-86487000D01*
X185547000Y-86487000D01*
X185547000Y-87895000D01*
X186447000Y-87895000D01*
X186744023Y-87840729D01*
X187024751Y-87729554D01*
X187278396Y-87565748D01*
X187495210Y-87355606D01*
X187666862Y-87107204D01*
X187786755Y-86830087D01*
X187811036Y-86724740D01*
X187690378Y-86487000D01*
X185547000Y-86487000D01*
X185293000Y-86487000D01*
X183149622Y-86487000D01*
X183028964Y-86724740D01*
X173843428Y-86724740D01*
X173862790Y-86660913D01*
X173892427Y-86360000D01*
X173862790Y-86059087D01*
X173843429Y-85995260D01*
X183028964Y-85995260D01*
X183149622Y-86233000D01*
X185293000Y-86233000D01*
X185293000Y-84825000D01*
X185547000Y-84825000D01*
X185547000Y-86233000D01*
X187690378Y-86233000D01*
X187811036Y-85995260D01*
X187786755Y-85889913D01*
X187666862Y-85612796D01*
X187495210Y-85364394D01*
X187278396Y-85154252D01*
X187024751Y-84990446D01*
X186744023Y-84879271D01*
X186447000Y-84825000D01*
X185547000Y-84825000D01*
X185293000Y-84825000D01*
X184393000Y-84825000D01*
X184095977Y-84879271D01*
X183815249Y-84990446D01*
X183561604Y-85154252D01*
X183344790Y-85364394D01*
X183173138Y-85612796D01*
X183053245Y-85889913D01*
X183028964Y-85995260D01*
X173843429Y-85995260D01*
X173775017Y-85769739D01*
X173632481Y-85503073D01*
X173440661Y-85269339D01*
X173206927Y-85077519D01*
X172940261Y-84934983D01*
X172650913Y-84847210D01*
X172425408Y-84825000D01*
X170474592Y-84825000D01*
X170249087Y-84847210D01*
X169959739Y-84934983D01*
X169693073Y-85077519D01*
X169459339Y-85269339D01*
X169267519Y-85503073D01*
X169124983Y-85769739D01*
X169037210Y-86059087D01*
X169007573Y-86360000D01*
X160358600Y-86360000D01*
X160358600Y-86143402D01*
X160301010Y-85853876D01*
X160188042Y-85581148D01*
X160024039Y-85335699D01*
X159815302Y-85126962D01*
X159656719Y-85021001D01*
X159815302Y-84915040D01*
X160024039Y-84706303D01*
X160188042Y-84460854D01*
X160301010Y-84188126D01*
X160358600Y-83898600D01*
X160358600Y-83603402D01*
X160301010Y-83313876D01*
X160188042Y-83041148D01*
X160024039Y-82795699D01*
X159815302Y-82586962D01*
X159759985Y-82550000D01*
X169007573Y-82550000D01*
X169037210Y-82850913D01*
X169124983Y-83140261D01*
X169267519Y-83406927D01*
X169459339Y-83640661D01*
X169693073Y-83832481D01*
X169959739Y-83975017D01*
X170249087Y-84062790D01*
X170474592Y-84085000D01*
X172425408Y-84085000D01*
X172650913Y-84062790D01*
X172940261Y-83975017D01*
X173206927Y-83832481D01*
X173440661Y-83640661D01*
X173632481Y-83406927D01*
X173775017Y-83140261D01*
X173843428Y-82914740D01*
X183028964Y-82914740D01*
X183053245Y-83020087D01*
X183173138Y-83297204D01*
X183344790Y-83545606D01*
X183561604Y-83755748D01*
X183815249Y-83919554D01*
X184095977Y-84030729D01*
X184393000Y-84085000D01*
X185293000Y-84085000D01*
X185293000Y-82677000D01*
X185547000Y-82677000D01*
X185547000Y-84085000D01*
X186447000Y-84085000D01*
X186744023Y-84030729D01*
X187024751Y-83919554D01*
X187278396Y-83755748D01*
X187495210Y-83545606D01*
X187666862Y-83297204D01*
X187786755Y-83020087D01*
X187811036Y-82914740D01*
X187690378Y-82677000D01*
X185547000Y-82677000D01*
X185293000Y-82677000D01*
X183149622Y-82677000D01*
X183028964Y-82914740D01*
X173843428Y-82914740D01*
X173862790Y-82850913D01*
X173892427Y-82550000D01*
X173862790Y-82249087D01*
X173843429Y-82185260D01*
X183028964Y-82185260D01*
X183149622Y-82423000D01*
X185293000Y-82423000D01*
X185293000Y-81015000D01*
X185547000Y-81015000D01*
X185547000Y-82423000D01*
X187690378Y-82423000D01*
X187811036Y-82185260D01*
X187786755Y-82079913D01*
X187666862Y-81802796D01*
X187495210Y-81554394D01*
X187278396Y-81344252D01*
X187024751Y-81180446D01*
X186744023Y-81069271D01*
X186447000Y-81015000D01*
X185547000Y-81015000D01*
X185293000Y-81015000D01*
X184393000Y-81015000D01*
X184095977Y-81069271D01*
X183815249Y-81180446D01*
X183561604Y-81344252D01*
X183344790Y-81554394D01*
X183173138Y-81802796D01*
X183053245Y-82079913D01*
X183028964Y-82185260D01*
X173843429Y-82185260D01*
X173775017Y-81959739D01*
X173632481Y-81693073D01*
X173440661Y-81459339D01*
X173206927Y-81267519D01*
X172940261Y-81124983D01*
X172650913Y-81037210D01*
X172425408Y-81015000D01*
X170474592Y-81015000D01*
X170249087Y-81037210D01*
X169959739Y-81124983D01*
X169693073Y-81267519D01*
X169459339Y-81459339D01*
X169267519Y-81693073D01*
X169124983Y-81959739D01*
X169037210Y-82249087D01*
X169007573Y-82550000D01*
X159759985Y-82550000D01*
X159656719Y-82481001D01*
X159815302Y-82375040D01*
X160024039Y-82166303D01*
X160188042Y-81920854D01*
X160301010Y-81648126D01*
X160358600Y-81358600D01*
X160358600Y-81063402D01*
X160301010Y-80773876D01*
X160188042Y-80501148D01*
X160024039Y-80255699D01*
X159815302Y-80046962D01*
X159656719Y-79941001D01*
X159815302Y-79835040D01*
X160024039Y-79626303D01*
X160188042Y-79380854D01*
X160301010Y-79108126D01*
X160358600Y-78818600D01*
X160358600Y-78740000D01*
X169007573Y-78740000D01*
X169037210Y-79040913D01*
X169124983Y-79330261D01*
X169267519Y-79596927D01*
X169459339Y-79830661D01*
X169693073Y-80022481D01*
X169959739Y-80165017D01*
X170249087Y-80252790D01*
X170474592Y-80275000D01*
X172425408Y-80275000D01*
X172650913Y-80252790D01*
X172940261Y-80165017D01*
X173206927Y-80022481D01*
X173440661Y-79830661D01*
X173632481Y-79596927D01*
X173775017Y-79330261D01*
X173843428Y-79104740D01*
X183028964Y-79104740D01*
X183053245Y-79210087D01*
X183173138Y-79487204D01*
X183344790Y-79735606D01*
X183561604Y-79945748D01*
X183815249Y-80109554D01*
X184095977Y-80220729D01*
X184393000Y-80275000D01*
X185293000Y-80275000D01*
X185293000Y-78867000D01*
X185547000Y-78867000D01*
X185547000Y-80275000D01*
X186447000Y-80275000D01*
X186744023Y-80220729D01*
X187024751Y-80109554D01*
X187278396Y-79945748D01*
X187495210Y-79735606D01*
X187666862Y-79487204D01*
X187786755Y-79210087D01*
X187811036Y-79104740D01*
X187690378Y-78867000D01*
X185547000Y-78867000D01*
X185293000Y-78867000D01*
X183149622Y-78867000D01*
X183028964Y-79104740D01*
X173843428Y-79104740D01*
X173862790Y-79040913D01*
X173892427Y-78740000D01*
X173862790Y-78439087D01*
X173843429Y-78375260D01*
X183028964Y-78375260D01*
X183149622Y-78613000D01*
X185293000Y-78613000D01*
X185293000Y-77205000D01*
X185547000Y-77205000D01*
X185547000Y-78613000D01*
X187690378Y-78613000D01*
X187811036Y-78375260D01*
X187786755Y-78269913D01*
X187666862Y-77992796D01*
X187495210Y-77744394D01*
X187278396Y-77534252D01*
X187024751Y-77370446D01*
X186744023Y-77259271D01*
X186447000Y-77205000D01*
X185547000Y-77205000D01*
X185293000Y-77205000D01*
X184393000Y-77205000D01*
X184095977Y-77259271D01*
X183815249Y-77370446D01*
X183561604Y-77534252D01*
X183344790Y-77744394D01*
X183173138Y-77992796D01*
X183053245Y-78269913D01*
X183028964Y-78375260D01*
X173843429Y-78375260D01*
X173775017Y-78149739D01*
X173632481Y-77883073D01*
X173440661Y-77649339D01*
X173206927Y-77457519D01*
X172940261Y-77314983D01*
X172650913Y-77227210D01*
X172425408Y-77205000D01*
X170474592Y-77205000D01*
X170249087Y-77227210D01*
X169959739Y-77314983D01*
X169693073Y-77457519D01*
X169459339Y-77649339D01*
X169267519Y-77883073D01*
X169124983Y-78149739D01*
X169037210Y-78439087D01*
X169007573Y-78740000D01*
X160358600Y-78740000D01*
X160358600Y-78523402D01*
X160301010Y-78233876D01*
X160188042Y-77961148D01*
X160024039Y-77715699D01*
X159815302Y-77506962D01*
X159656719Y-77401001D01*
X159815302Y-77295040D01*
X160024039Y-77086303D01*
X160188042Y-76840854D01*
X160301010Y-76568126D01*
X160358600Y-76278600D01*
X160358600Y-75983402D01*
X160301010Y-75693876D01*
X160188042Y-75421148D01*
X160024039Y-75175699D01*
X159815302Y-74966962D01*
X159759985Y-74930000D01*
X169007573Y-74930000D01*
X169037210Y-75230913D01*
X169124983Y-75520261D01*
X169267519Y-75786927D01*
X169459339Y-76020661D01*
X169693073Y-76212481D01*
X169959739Y-76355017D01*
X170249087Y-76442790D01*
X170474592Y-76465000D01*
X172425408Y-76465000D01*
X172650913Y-76442790D01*
X172940261Y-76355017D01*
X173206927Y-76212481D01*
X173440661Y-76020661D01*
X173632481Y-75786927D01*
X173775017Y-75520261D01*
X173843428Y-75294740D01*
X183028964Y-75294740D01*
X183053245Y-75400087D01*
X183173138Y-75677204D01*
X183344790Y-75925606D01*
X183561604Y-76135748D01*
X183815249Y-76299554D01*
X184095977Y-76410729D01*
X184393000Y-76465000D01*
X185293000Y-76465000D01*
X185293000Y-75057000D01*
X185547000Y-75057000D01*
X185547000Y-76465000D01*
X186447000Y-76465000D01*
X186744023Y-76410729D01*
X187024751Y-76299554D01*
X187278396Y-76135748D01*
X187495210Y-75925606D01*
X187666862Y-75677204D01*
X187786755Y-75400087D01*
X187811036Y-75294740D01*
X187690378Y-75057000D01*
X185547000Y-75057000D01*
X185293000Y-75057000D01*
X183149622Y-75057000D01*
X183028964Y-75294740D01*
X173843428Y-75294740D01*
X173862790Y-75230913D01*
X173892427Y-74930000D01*
X173862790Y-74629087D01*
X173843429Y-74565260D01*
X183028964Y-74565260D01*
X183149622Y-74803000D01*
X185293000Y-74803000D01*
X185293000Y-73395000D01*
X185547000Y-73395000D01*
X185547000Y-74803000D01*
X187690378Y-74803000D01*
X187811036Y-74565260D01*
X187786755Y-74459913D01*
X187666862Y-74182796D01*
X187495210Y-73934394D01*
X187278396Y-73724252D01*
X187024751Y-73560446D01*
X186744023Y-73449271D01*
X186447000Y-73395000D01*
X185547000Y-73395000D01*
X185293000Y-73395000D01*
X184393000Y-73395000D01*
X184095977Y-73449271D01*
X183815249Y-73560446D01*
X183561604Y-73724252D01*
X183344790Y-73934394D01*
X183173138Y-74182796D01*
X183053245Y-74459913D01*
X183028964Y-74565260D01*
X173843429Y-74565260D01*
X173775017Y-74339739D01*
X173632481Y-74073073D01*
X173440661Y-73839339D01*
X173206927Y-73647519D01*
X172940261Y-73504983D01*
X172650913Y-73417210D01*
X172425408Y-73395000D01*
X170474592Y-73395000D01*
X170249087Y-73417210D01*
X169959739Y-73504983D01*
X169693073Y-73647519D01*
X169459339Y-73839339D01*
X169267519Y-74073073D01*
X169124983Y-74339739D01*
X169037210Y-74629087D01*
X169007573Y-74930000D01*
X159759985Y-74930000D01*
X159656719Y-74861001D01*
X159815302Y-74755040D01*
X160024039Y-74546303D01*
X160188042Y-74300854D01*
X160301010Y-74028126D01*
X160358600Y-73738600D01*
X160358600Y-73443402D01*
X160301010Y-73153876D01*
X160188042Y-72881148D01*
X160024039Y-72635699D01*
X159815302Y-72426962D01*
X159656719Y-72321001D01*
X159815302Y-72215040D01*
X160024039Y-72006303D01*
X160188042Y-71760854D01*
X160301010Y-71488126D01*
X160358600Y-71198600D01*
X160358600Y-71120000D01*
X169007573Y-71120000D01*
X169037210Y-71420913D01*
X169124983Y-71710261D01*
X169267519Y-71976927D01*
X169459339Y-72210661D01*
X169693073Y-72402481D01*
X169959739Y-72545017D01*
X170249087Y-72632790D01*
X170474592Y-72655000D01*
X172425408Y-72655000D01*
X172650913Y-72632790D01*
X172940261Y-72545017D01*
X173206927Y-72402481D01*
X173440661Y-72210661D01*
X173632481Y-71976927D01*
X173775017Y-71710261D01*
X173843428Y-71484740D01*
X183028964Y-71484740D01*
X183053245Y-71590087D01*
X183173138Y-71867204D01*
X183344790Y-72115606D01*
X183561604Y-72325748D01*
X183815249Y-72489554D01*
X184095977Y-72600729D01*
X184393000Y-72655000D01*
X185293000Y-72655000D01*
X185293000Y-71247000D01*
X185547000Y-71247000D01*
X185547000Y-72655000D01*
X186447000Y-72655000D01*
X186744023Y-72600729D01*
X187024751Y-72489554D01*
X187278396Y-72325748D01*
X187495210Y-72115606D01*
X187666862Y-71867204D01*
X187786755Y-71590087D01*
X187811036Y-71484740D01*
X187690378Y-71247000D01*
X185547000Y-71247000D01*
X185293000Y-71247000D01*
X183149622Y-71247000D01*
X183028964Y-71484740D01*
X173843428Y-71484740D01*
X173862790Y-71420913D01*
X173892427Y-71120000D01*
X173862790Y-70819087D01*
X173843429Y-70755260D01*
X183028964Y-70755260D01*
X183149622Y-70993000D01*
X185293000Y-70993000D01*
X185293000Y-69585000D01*
X185547000Y-69585000D01*
X185547000Y-70993000D01*
X187690378Y-70993000D01*
X187811036Y-70755260D01*
X187786755Y-70649913D01*
X187666862Y-70372796D01*
X187495210Y-70124394D01*
X187278396Y-69914252D01*
X187024751Y-69750446D01*
X186744023Y-69639271D01*
X186447000Y-69585000D01*
X185547000Y-69585000D01*
X185293000Y-69585000D01*
X184393000Y-69585000D01*
X184095977Y-69639271D01*
X183815249Y-69750446D01*
X183561604Y-69914252D01*
X183344790Y-70124394D01*
X183173138Y-70372796D01*
X183053245Y-70649913D01*
X183028964Y-70755260D01*
X173843429Y-70755260D01*
X173775017Y-70529739D01*
X173632481Y-70263073D01*
X173440661Y-70029339D01*
X173206927Y-69837519D01*
X172940261Y-69694983D01*
X172650913Y-69607210D01*
X172425408Y-69585000D01*
X170474592Y-69585000D01*
X170249087Y-69607210D01*
X169959739Y-69694983D01*
X169693073Y-69837519D01*
X169459339Y-70029339D01*
X169267519Y-70263073D01*
X169124983Y-70529739D01*
X169037210Y-70819087D01*
X169007573Y-71120000D01*
X160358600Y-71120000D01*
X160358600Y-70903402D01*
X160301010Y-70613876D01*
X160188042Y-70341148D01*
X160024039Y-70095699D01*
X159815302Y-69886962D01*
X159656719Y-69781001D01*
X159815302Y-69675040D01*
X160024039Y-69466303D01*
X160188042Y-69220854D01*
X160301010Y-68948126D01*
X160358600Y-68658600D01*
X160358600Y-68363402D01*
X160301010Y-68073876D01*
X160188042Y-67801148D01*
X160024039Y-67555699D01*
X159815302Y-67346962D01*
X159759985Y-67310000D01*
X169007573Y-67310000D01*
X169037210Y-67610913D01*
X169124983Y-67900261D01*
X169267519Y-68166927D01*
X169459339Y-68400661D01*
X169693073Y-68592481D01*
X169959739Y-68735017D01*
X170249087Y-68822790D01*
X170474592Y-68845000D01*
X172425408Y-68845000D01*
X172650913Y-68822790D01*
X172940261Y-68735017D01*
X173206927Y-68592481D01*
X173440661Y-68400661D01*
X173632481Y-68166927D01*
X173775017Y-67900261D01*
X173843428Y-67674740D01*
X183028964Y-67674740D01*
X183053245Y-67780087D01*
X183173138Y-68057204D01*
X183344790Y-68305606D01*
X183561604Y-68515748D01*
X183815249Y-68679554D01*
X184095977Y-68790729D01*
X184393000Y-68845000D01*
X185293000Y-68845000D01*
X185293000Y-67437000D01*
X185547000Y-67437000D01*
X185547000Y-68845000D01*
X186447000Y-68845000D01*
X186744023Y-68790729D01*
X187024751Y-68679554D01*
X187278396Y-68515748D01*
X187495210Y-68305606D01*
X187666862Y-68057204D01*
X187786755Y-67780087D01*
X187811036Y-67674740D01*
X187690378Y-67437000D01*
X185547000Y-67437000D01*
X185293000Y-67437000D01*
X183149622Y-67437000D01*
X183028964Y-67674740D01*
X173843428Y-67674740D01*
X173862790Y-67610913D01*
X173892427Y-67310000D01*
X173862790Y-67009087D01*
X173843429Y-66945260D01*
X183028964Y-66945260D01*
X183149622Y-67183000D01*
X185293000Y-67183000D01*
X185293000Y-65775000D01*
X185547000Y-65775000D01*
X185547000Y-67183000D01*
X187690378Y-67183000D01*
X187811036Y-66945260D01*
X187786755Y-66839913D01*
X187666862Y-66562796D01*
X187495210Y-66314394D01*
X187278396Y-66104252D01*
X187024751Y-65940446D01*
X186744023Y-65829271D01*
X186447000Y-65775000D01*
X185547000Y-65775000D01*
X185293000Y-65775000D01*
X184393000Y-65775000D01*
X184095977Y-65829271D01*
X183815249Y-65940446D01*
X183561604Y-66104252D01*
X183344790Y-66314394D01*
X183173138Y-66562796D01*
X183053245Y-66839913D01*
X183028964Y-66945260D01*
X173843429Y-66945260D01*
X173775017Y-66719739D01*
X173632481Y-66453073D01*
X173440661Y-66219339D01*
X173206927Y-66027519D01*
X172940261Y-65884983D01*
X172650913Y-65797210D01*
X172425408Y-65775000D01*
X170474592Y-65775000D01*
X170249087Y-65797210D01*
X169959739Y-65884983D01*
X169693073Y-66027519D01*
X169459339Y-66219339D01*
X169267519Y-66453073D01*
X169124983Y-66719739D01*
X169037210Y-67009087D01*
X169007573Y-67310000D01*
X159759985Y-67310000D01*
X159656719Y-67241001D01*
X159815302Y-67135040D01*
X160024039Y-66926303D01*
X160188042Y-66680854D01*
X160301010Y-66408126D01*
X160358600Y-66118600D01*
X160358600Y-65823402D01*
X160301010Y-65533876D01*
X160188042Y-65261148D01*
X160024039Y-65015699D01*
X159815302Y-64806962D01*
X159569853Y-64642959D01*
X159297125Y-64529991D01*
X159227190Y-64516080D01*
X159401413Y-64443914D01*
X159588620Y-64318827D01*
X159747826Y-64159621D01*
X159872913Y-63972414D01*
X159959075Y-63764402D01*
X160003000Y-63543577D01*
X160003000Y-63500000D01*
X169007573Y-63500000D01*
X169037210Y-63800913D01*
X169124983Y-64090261D01*
X169267519Y-64356927D01*
X169459339Y-64590661D01*
X169693073Y-64782481D01*
X169959739Y-64925017D01*
X170249087Y-65012790D01*
X170474592Y-65035000D01*
X172425408Y-65035000D01*
X172650913Y-65012790D01*
X172940261Y-64925017D01*
X173206927Y-64782481D01*
X173440661Y-64590661D01*
X173632481Y-64356927D01*
X173775017Y-64090261D01*
X173843428Y-63864740D01*
X183028964Y-63864740D01*
X183053245Y-63970087D01*
X183173138Y-64247204D01*
X183344790Y-64495606D01*
X183561604Y-64705748D01*
X183815249Y-64869554D01*
X184095977Y-64980729D01*
X184393000Y-65035000D01*
X185293000Y-65035000D01*
X185293000Y-63627000D01*
X185547000Y-63627000D01*
X185547000Y-65035000D01*
X186447000Y-65035000D01*
X186744023Y-64980729D01*
X187024751Y-64869554D01*
X187278396Y-64705748D01*
X187495210Y-64495606D01*
X187666862Y-64247204D01*
X187786755Y-63970087D01*
X187811036Y-63864740D01*
X187690378Y-63627000D01*
X185547000Y-63627000D01*
X185293000Y-63627000D01*
X183149622Y-63627000D01*
X183028964Y-63864740D01*
X173843428Y-63864740D01*
X173862790Y-63800913D01*
X173892427Y-63500000D01*
X173862790Y-63199087D01*
X173843429Y-63135260D01*
X183028964Y-63135260D01*
X183149622Y-63373000D01*
X185293000Y-63373000D01*
X185293000Y-61965000D01*
X185547000Y-61965000D01*
X185547000Y-63373000D01*
X187690378Y-63373000D01*
X187811036Y-63135260D01*
X187786755Y-63029913D01*
X187666862Y-62752796D01*
X187495210Y-62504394D01*
X187278396Y-62294252D01*
X187024751Y-62130446D01*
X186744023Y-62019271D01*
X186447000Y-61965000D01*
X185547000Y-61965000D01*
X185293000Y-61965000D01*
X184393000Y-61965000D01*
X184095977Y-62019271D01*
X183815249Y-62130446D01*
X183561604Y-62294252D01*
X183344790Y-62504394D01*
X183173138Y-62752796D01*
X183053245Y-63029913D01*
X183028964Y-63135260D01*
X173843429Y-63135260D01*
X173775017Y-62909739D01*
X173632481Y-62643073D01*
X173440661Y-62409339D01*
X173206927Y-62217519D01*
X172940261Y-62074983D01*
X172650913Y-61987210D01*
X172425408Y-61965000D01*
X170474592Y-61965000D01*
X170249087Y-61987210D01*
X169959739Y-62074983D01*
X169693073Y-62217519D01*
X169459339Y-62409339D01*
X169267519Y-62643073D01*
X169124983Y-62909739D01*
X169037210Y-63199087D01*
X169007573Y-63500000D01*
X160003000Y-63500000D01*
X160003000Y-63318425D01*
X159959075Y-63097600D01*
X159872913Y-62889588D01*
X159747826Y-62702381D01*
X159588620Y-62543175D01*
X159401413Y-62418088D01*
X159193401Y-62331926D01*
X158972576Y-62288001D01*
X158747424Y-62288001D01*
X158526599Y-62331926D01*
X158318587Y-62418088D01*
X158131380Y-62543175D01*
X157972174Y-62702381D01*
X157847087Y-62889588D01*
X157760925Y-63097600D01*
X157717000Y-63318425D01*
X157717000Y-63543577D01*
X157760925Y-63764402D01*
X157847087Y-63972414D01*
X157972174Y-64159621D01*
X158131380Y-64318827D01*
X158318587Y-64443914D01*
X158492810Y-64516080D01*
X158422875Y-64529991D01*
X158150147Y-64642959D01*
X157904698Y-64806962D01*
X157695961Y-65015699D01*
X157531958Y-65261148D01*
X157418990Y-65533876D01*
X157361400Y-65823402D01*
X153365000Y-65823402D01*
X153365000Y-65819872D01*
X153279110Y-65388075D01*
X153110631Y-64981331D01*
X152866038Y-64615271D01*
X152554729Y-64303962D01*
X152188669Y-64059369D01*
X151781925Y-63890890D01*
X151350128Y-63805000D01*
X150909872Y-63805000D01*
X150478075Y-63890890D01*
X150071331Y-64059369D01*
X149705271Y-64303962D01*
X149393962Y-64615271D01*
X149149369Y-64981331D01*
X148980890Y-65388075D01*
X148895000Y-65819872D01*
X145117898Y-65819872D01*
X145061010Y-65533876D01*
X144948042Y-65261148D01*
X144784039Y-65015699D01*
X144575302Y-64806962D01*
X144329853Y-64642959D01*
X144057125Y-64529991D01*
X143987190Y-64516080D01*
X144161413Y-64443914D01*
X144348620Y-64318827D01*
X144507826Y-64159621D01*
X144632913Y-63972414D01*
X144719075Y-63764402D01*
X144763000Y-63543577D01*
X144763000Y-63318425D01*
X144719075Y-63097600D01*
X144632913Y-62889588D01*
X144507826Y-62702381D01*
X144348620Y-62543175D01*
X144161413Y-62418088D01*
X143953401Y-62331926D01*
X143732576Y-62288001D01*
X143507424Y-62288001D01*
X143286599Y-62331926D01*
X143078587Y-62418088D01*
X142891380Y-62543175D01*
X142732174Y-62702381D01*
X142607087Y-62889588D01*
X142520925Y-63097600D01*
X142477000Y-63318425D01*
X142477000Y-63543577D01*
X142520925Y-63764402D01*
X142607087Y-63972414D01*
X142732174Y-64159621D01*
X142891380Y-64318827D01*
X143078587Y-64443914D01*
X143252810Y-64516080D01*
X143182875Y-64529991D01*
X142910147Y-64642959D01*
X142664698Y-64806962D01*
X142455961Y-65015699D01*
X142291958Y-65261148D01*
X142178990Y-65533876D01*
X142121400Y-65823402D01*
X140582477Y-65823402D01*
X140519398Y-65797274D01*
X140319439Y-65757500D01*
X140292658Y-65757500D01*
X138777347Y-64242190D01*
X138752764Y-64212236D01*
X138633233Y-64114138D01*
X138496860Y-64041246D01*
X138348887Y-63996359D01*
X138233561Y-63985000D01*
X138233553Y-63985000D01*
X138195000Y-63981203D01*
X138156447Y-63985000D01*
X133538927Y-63985000D01*
X133500481Y-63913073D01*
X133308661Y-63679339D01*
X133074927Y-63487519D01*
X132808261Y-63344983D01*
X132518913Y-63257210D01*
X132293408Y-63235000D01*
X130342592Y-63235000D01*
X130117087Y-63257210D01*
X129827739Y-63344983D01*
X129561073Y-63487519D01*
X129327339Y-63679339D01*
X129135519Y-63913073D01*
X128992983Y-64179739D01*
X128905210Y-64469087D01*
X128875573Y-64770000D01*
X109982000Y-64770000D01*
X109982000Y-64405260D01*
X111908964Y-64405260D01*
X112029622Y-64643000D01*
X114173000Y-64643000D01*
X114173000Y-63235000D01*
X114427000Y-63235000D01*
X114427000Y-64643000D01*
X116570378Y-64643000D01*
X116691036Y-64405260D01*
X116666755Y-64299913D01*
X116546862Y-64022796D01*
X116375210Y-63774394D01*
X116158396Y-63564252D01*
X115904751Y-63400446D01*
X115624023Y-63289271D01*
X115327000Y-63235000D01*
X114427000Y-63235000D01*
X114173000Y-63235000D01*
X113273000Y-63235000D01*
X112975977Y-63289271D01*
X112695249Y-63400446D01*
X112441604Y-63564252D01*
X112224790Y-63774394D01*
X112053138Y-64022796D01*
X111933245Y-64299913D01*
X111908964Y-64405260D01*
X109982000Y-64405260D01*
X109982000Y-60452000D01*
X188468000Y-60452000D01*
X188468000Y-111633000D01*
G37*
X188468000Y-111633000D02*
X109982000Y-111633000D01*
X109982000Y-101383402D01*
X142121400Y-101383402D01*
X142121400Y-101678600D01*
X142178990Y-101968126D01*
X142291958Y-102240854D01*
X142455961Y-102486303D01*
X142664698Y-102695040D01*
X142823281Y-102801001D01*
X142664698Y-102906962D01*
X142455961Y-103115699D01*
X142291958Y-103361148D01*
X142178990Y-103633876D01*
X142121400Y-103923402D01*
X142121400Y-104218600D01*
X142178990Y-104508126D01*
X142291958Y-104780854D01*
X142455961Y-105026303D01*
X142664698Y-105235040D01*
X142823281Y-105341001D01*
X142664698Y-105446962D01*
X142455961Y-105655699D01*
X142291958Y-105901148D01*
X142178990Y-106173876D01*
X142121400Y-106463402D01*
X142121400Y-106758600D01*
X142178990Y-107048126D01*
X142291958Y-107320854D01*
X142455961Y-107566303D01*
X142664698Y-107775040D01*
X142910147Y-107939043D01*
X143182875Y-108052011D01*
X143252810Y-108065922D01*
X143078587Y-108138088D01*
X142891380Y-108263175D01*
X142732174Y-108422381D01*
X142607087Y-108609588D01*
X142520925Y-108817600D01*
X142477000Y-109038425D01*
X142477000Y-109263577D01*
X142520925Y-109484402D01*
X142607087Y-109692414D01*
X142732174Y-109879621D01*
X142891380Y-110038827D01*
X143078587Y-110163914D01*
X143286599Y-110250076D01*
X143507424Y-110294001D01*
X143732576Y-110294001D01*
X143953401Y-110250076D01*
X144161413Y-110163914D01*
X144348620Y-110038827D01*
X144507826Y-109879621D01*
X144632913Y-109692414D01*
X144719075Y-109484402D01*
X144763000Y-109263577D01*
X144763000Y-109038425D01*
X144719075Y-108817600D01*
X144632913Y-108609588D01*
X144507826Y-108422381D01*
X144348620Y-108263175D01*
X144161413Y-108138088D01*
X143987190Y-108065922D01*
X144057125Y-108052011D01*
X144329853Y-107939043D01*
X144575302Y-107775040D01*
X144784039Y-107566303D01*
X144948042Y-107320854D01*
X145061010Y-107048126D01*
X145118600Y-106758600D01*
X145118600Y-106463402D01*
X145061010Y-106173876D01*
X144948042Y-105901148D01*
X144784039Y-105655699D01*
X144575302Y-105446962D01*
X144416719Y-105341001D01*
X144575302Y-105235040D01*
X144784039Y-105026303D01*
X144948042Y-104780854D01*
X145061010Y-104508126D01*
X145118600Y-104218600D01*
X145118600Y-103923402D01*
X145117898Y-103919872D01*
X148895000Y-103919872D01*
X148895000Y-104360128D01*
X148980890Y-104791925D01*
X149149369Y-105198669D01*
X149393962Y-105564729D01*
X149705271Y-105876038D01*
X150071331Y-106120631D01*
X150478075Y-106289110D01*
X150909872Y-106375000D01*
X151350128Y-106375000D01*
X151781925Y-106289110D01*
X152188669Y-106120631D01*
X152554729Y-105876038D01*
X152683366Y-105747401D01*
X157358328Y-105747401D01*
X157358328Y-107474601D01*
X157370588Y-107599083D01*
X157406898Y-107718781D01*
X157465863Y-107829095D01*
X157545215Y-107925786D01*
X157641906Y-108005138D01*
X157752220Y-108064103D01*
X157871918Y-108100413D01*
X157996400Y-108112673D01*
X158379944Y-108112673D01*
X158318587Y-108138088D01*
X158131380Y-108263175D01*
X157972174Y-108422381D01*
X157847087Y-108609588D01*
X157760925Y-108817600D01*
X157717000Y-109038425D01*
X157717000Y-109263577D01*
X157760925Y-109484402D01*
X157847087Y-109692414D01*
X157972174Y-109879621D01*
X158131380Y-110038827D01*
X158318587Y-110163914D01*
X158526599Y-110250076D01*
X158747424Y-110294001D01*
X158972576Y-110294001D01*
X159193401Y-110250076D01*
X159401413Y-110163914D01*
X159588620Y-110038827D01*
X159747826Y-109879621D01*
X159872913Y-109692414D01*
X159959075Y-109484402D01*
X160003000Y-109263577D01*
X160003000Y-109038425D01*
X159959075Y-108817600D01*
X159872913Y-108609588D01*
X159747826Y-108422381D01*
X159588620Y-108263175D01*
X159401413Y-108138088D01*
X159340056Y-108112673D01*
X159723600Y-108112673D01*
X159848082Y-108100413D01*
X159967780Y-108064103D01*
X160078094Y-108005138D01*
X160174785Y-107925786D01*
X160254137Y-107829095D01*
X160313102Y-107718781D01*
X160349412Y-107599083D01*
X160361672Y-107474601D01*
X160361672Y-106150000D01*
X165466928Y-106150000D01*
X165466928Y-109750000D01*
X165479188Y-109874482D01*
X165515498Y-109994180D01*
X165574463Y-110104494D01*
X165653815Y-110201185D01*
X165750506Y-110280537D01*
X165860820Y-110339502D01*
X165980518Y-110375812D01*
X166105000Y-110388072D01*
X167905000Y-110388072D01*
X168029482Y-110375812D01*
X168149180Y-110339502D01*
X168259494Y-110280537D01*
X168356185Y-110201185D01*
X168435537Y-110104494D01*
X168494502Y-109994180D01*
X168530812Y-109874482D01*
X168543072Y-109750000D01*
X168543072Y-108077000D01*
X169280000Y-108077000D01*
X169280000Y-108977000D01*
X169334271Y-109274023D01*
X169445446Y-109554751D01*
X169609252Y-109808396D01*
X169819394Y-110025210D01*
X170067796Y-110196862D01*
X170344913Y-110316755D01*
X170450260Y-110341036D01*
X170688000Y-110220378D01*
X170688000Y-108077000D01*
X170942000Y-108077000D01*
X170942000Y-110220378D01*
X171179740Y-110341036D01*
X171285087Y-110316755D01*
X171562204Y-110196862D01*
X171810606Y-110025210D01*
X172020748Y-109808396D01*
X172184554Y-109554751D01*
X172295729Y-109274023D01*
X172350000Y-108977000D01*
X172350000Y-108077000D01*
X170942000Y-108077000D01*
X170688000Y-108077000D01*
X169280000Y-108077000D01*
X168543072Y-108077000D01*
X168543072Y-106923000D01*
X169280000Y-106923000D01*
X169280000Y-107823000D01*
X170688000Y-107823000D01*
X170688000Y-105679622D01*
X170942000Y-105679622D01*
X170942000Y-107823000D01*
X172350000Y-107823000D01*
X172350000Y-106974593D01*
X173090000Y-106974593D01*
X173090000Y-108925408D01*
X173112211Y-109150913D01*
X173199984Y-109440261D01*
X173342520Y-109706927D01*
X173534340Y-109940661D01*
X173768074Y-110132481D01*
X174034740Y-110275017D01*
X174324088Y-110362790D01*
X174625000Y-110392427D01*
X174925913Y-110362790D01*
X175215261Y-110275017D01*
X175481927Y-110132481D01*
X175715661Y-109940661D01*
X175907481Y-109706927D01*
X176050017Y-109440261D01*
X176137790Y-109150913D01*
X176160000Y-108925408D01*
X176160000Y-108077000D01*
X176900000Y-108077000D01*
X176900000Y-108977000D01*
X176954271Y-109274023D01*
X177065446Y-109554751D01*
X177229252Y-109808396D01*
X177439394Y-110025210D01*
X177687796Y-110196862D01*
X177964913Y-110316755D01*
X178070260Y-110341036D01*
X178308000Y-110220378D01*
X178308000Y-108077000D01*
X178562000Y-108077000D01*
X178562000Y-110220378D01*
X178799740Y-110341036D01*
X178905087Y-110316755D01*
X179182204Y-110196862D01*
X179430606Y-110025210D01*
X179640748Y-109808396D01*
X179804554Y-109554751D01*
X179915729Y-109274023D01*
X179970000Y-108977000D01*
X179970000Y-108077000D01*
X178562000Y-108077000D01*
X178308000Y-108077000D01*
X176900000Y-108077000D01*
X176160000Y-108077000D01*
X176160000Y-106974592D01*
X176154919Y-106923000D01*
X176900000Y-106923000D01*
X176900000Y-107823000D01*
X178308000Y-107823000D01*
X178308000Y-105679622D01*
X178562000Y-105679622D01*
X178562000Y-107823000D01*
X179970000Y-107823000D01*
X179970000Y-106974593D01*
X180710000Y-106974593D01*
X180710000Y-108925408D01*
X180732211Y-109150913D01*
X180819984Y-109440261D01*
X180962520Y-109706927D01*
X181154340Y-109940661D01*
X181388074Y-110132481D01*
X181654740Y-110275017D01*
X181944088Y-110362790D01*
X182245000Y-110392427D01*
X182545913Y-110362790D01*
X182835261Y-110275017D01*
X183101927Y-110132481D01*
X183335661Y-109940661D01*
X183527481Y-109706927D01*
X183670017Y-109440261D01*
X183757790Y-109150913D01*
X183780000Y-108925408D01*
X183780000Y-108077000D01*
X184520000Y-108077000D01*
X184520000Y-108977000D01*
X184574271Y-109274023D01*
X184685446Y-109554751D01*
X184849252Y-109808396D01*
X185059394Y-110025210D01*
X185307796Y-110196862D01*
X185584913Y-110316755D01*
X185690260Y-110341036D01*
X185928000Y-110220378D01*
X185928000Y-108077000D01*
X186182000Y-108077000D01*
X186182000Y-110220378D01*
X186419740Y-110341036D01*
X186525087Y-110316755D01*
X186802204Y-110196862D01*
X187050606Y-110025210D01*
X187260748Y-109808396D01*
X187424554Y-109554751D01*
X187535729Y-109274023D01*
X187590000Y-108977000D01*
X187590000Y-108077000D01*
X186182000Y-108077000D01*
X185928000Y-108077000D01*
X184520000Y-108077000D01*
X183780000Y-108077000D01*
X183780000Y-106974592D01*
X183774919Y-106923000D01*
X184520000Y-106923000D01*
X184520000Y-107823000D01*
X185928000Y-107823000D01*
X185928000Y-105679622D01*
X186182000Y-105679622D01*
X186182000Y-107823000D01*
X187590000Y-107823000D01*
X187590000Y-106923000D01*
X187535729Y-106625977D01*
X187424554Y-106345249D01*
X187260748Y-106091604D01*
X187050606Y-105874790D01*
X186802204Y-105703138D01*
X186525087Y-105583245D01*
X186419740Y-105558964D01*
X186182000Y-105679622D01*
X185928000Y-105679622D01*
X185690260Y-105558964D01*
X185584913Y-105583245D01*
X185307796Y-105703138D01*
X185059394Y-105874790D01*
X184849252Y-106091604D01*
X184685446Y-106345249D01*
X184574271Y-106625977D01*
X184520000Y-106923000D01*
X183774919Y-106923000D01*
X183757790Y-106749087D01*
X183670017Y-106459739D01*
X183527481Y-106193073D01*
X183335661Y-105959339D01*
X183101926Y-105767519D01*
X182835260Y-105624983D01*
X182545912Y-105537210D01*
X182245000Y-105507573D01*
X181944087Y-105537210D01*
X181654739Y-105624983D01*
X181388073Y-105767519D01*
X181154339Y-105959339D01*
X180962519Y-106193074D01*
X180819983Y-106459740D01*
X180732210Y-106749088D01*
X180710000Y-106974593D01*
X179970000Y-106974593D01*
X179970000Y-106923000D01*
X179915729Y-106625977D01*
X179804554Y-106345249D01*
X179640748Y-106091604D01*
X179430606Y-105874790D01*
X179182204Y-105703138D01*
X178905087Y-105583245D01*
X178799740Y-105558964D01*
X178562000Y-105679622D01*
X178308000Y-105679622D01*
X178070260Y-105558964D01*
X177964913Y-105583245D01*
X177687796Y-105703138D01*
X177439394Y-105874790D01*
X177229252Y-106091604D01*
X177065446Y-106345249D01*
X176954271Y-106625977D01*
X176900000Y-106923000D01*
X176154919Y-106923000D01*
X176137790Y-106749087D01*
X176050017Y-106459739D01*
X175907481Y-106193073D01*
X175715661Y-105959339D01*
X175481926Y-105767519D01*
X175215260Y-105624983D01*
X174925912Y-105537210D01*
X174625000Y-105507573D01*
X174324087Y-105537210D01*
X174034739Y-105624983D01*
X173768073Y-105767519D01*
X173534339Y-105959339D01*
X173342519Y-106193074D01*
X173199983Y-106459740D01*
X173112210Y-106749088D01*
X173090000Y-106974593D01*
X172350000Y-106974593D01*
X172350000Y-106923000D01*
X172295729Y-106625977D01*
X172184554Y-106345249D01*
X172020748Y-106091604D01*
X171810606Y-105874790D01*
X171562204Y-105703138D01*
X171285087Y-105583245D01*
X171179740Y-105558964D01*
X170942000Y-105679622D01*
X170688000Y-105679622D01*
X170450260Y-105558964D01*
X170344913Y-105583245D01*
X170067796Y-105703138D01*
X169819394Y-105874790D01*
X169609252Y-106091604D01*
X169445446Y-106345249D01*
X169334271Y-106625977D01*
X169280000Y-106923000D01*
X168543072Y-106923000D01*
X168543072Y-106150000D01*
X168530812Y-106025518D01*
X168494502Y-105905820D01*
X168435537Y-105795506D01*
X168356185Y-105698815D01*
X168259494Y-105619463D01*
X168149180Y-105560498D01*
X168029482Y-105524188D01*
X167905000Y-105511928D01*
X166105000Y-105511928D01*
X165980518Y-105524188D01*
X165860820Y-105560498D01*
X165750506Y-105619463D01*
X165653815Y-105698815D01*
X165574463Y-105795506D01*
X165515498Y-105905820D01*
X165479188Y-106025518D01*
X165466928Y-106150000D01*
X160361672Y-106150000D01*
X160361672Y-105747401D01*
X160349412Y-105622919D01*
X160313102Y-105503221D01*
X160254137Y-105392907D01*
X160174785Y-105296216D01*
X160078094Y-105216864D01*
X159967780Y-105157899D01*
X159909977Y-105140365D01*
X160024039Y-105026303D01*
X160188042Y-104780854D01*
X160301010Y-104508126D01*
X160358600Y-104218600D01*
X160358600Y-103923402D01*
X160301010Y-103633876D01*
X160188042Y-103361148D01*
X160024039Y-103115699D01*
X159815302Y-102906962D01*
X159656719Y-102801001D01*
X159815302Y-102695040D01*
X160024039Y-102486303D01*
X160188042Y-102240854D01*
X160301010Y-101968126D01*
X160358600Y-101678600D01*
X160358600Y-101383402D01*
X160301010Y-101093876D01*
X160188042Y-100821148D01*
X160024039Y-100575699D01*
X159815302Y-100366962D01*
X159656719Y-100261001D01*
X159815302Y-100155040D01*
X160024039Y-99946303D01*
X160188042Y-99700854D01*
X160301010Y-99428126D01*
X160358600Y-99138600D01*
X160358600Y-98843402D01*
X160301010Y-98553876D01*
X160188042Y-98281148D01*
X160024039Y-98035699D01*
X159815302Y-97826962D01*
X159656719Y-97721001D01*
X159815302Y-97615040D01*
X160024039Y-97406303D01*
X160188042Y-97160854D01*
X160301010Y-96888126D01*
X160358600Y-96598600D01*
X160358600Y-96303402D01*
X160301010Y-96013876D01*
X160188042Y-95741148D01*
X160024039Y-95495699D01*
X159815302Y-95286962D01*
X159654187Y-95179309D01*
X159870293Y-95017855D01*
X160066817Y-94799489D01*
X160216964Y-94546979D01*
X160314963Y-94270028D01*
X160194464Y-94038001D01*
X158987000Y-94038001D01*
X158987000Y-94058001D01*
X158733000Y-94058001D01*
X158733000Y-94038001D01*
X157525536Y-94038001D01*
X157405037Y-94270028D01*
X157503036Y-94546979D01*
X157653183Y-94799489D01*
X157849707Y-95017855D01*
X158065813Y-95179309D01*
X157904698Y-95286962D01*
X157695961Y-95495699D01*
X157531958Y-95741148D01*
X157418990Y-96013876D01*
X157361400Y-96303402D01*
X157361400Y-96598600D01*
X157418990Y-96888126D01*
X157531958Y-97160854D01*
X157695961Y-97406303D01*
X157904698Y-97615040D01*
X158063281Y-97721001D01*
X157904698Y-97826962D01*
X157695961Y-98035699D01*
X157531958Y-98281148D01*
X157418990Y-98553876D01*
X157361400Y-98843402D01*
X157361400Y-99138600D01*
X157418990Y-99428126D01*
X157531958Y-99700854D01*
X157695961Y-99946303D01*
X157904698Y-100155040D01*
X158063281Y-100261001D01*
X157904698Y-100366962D01*
X157695961Y-100575699D01*
X157531958Y-100821148D01*
X157418990Y-101093876D01*
X157361400Y-101383402D01*
X157361400Y-101678600D01*
X157418990Y-101968126D01*
X157531958Y-102240854D01*
X157695961Y-102486303D01*
X157904698Y-102695040D01*
X158063281Y-102801001D01*
X157904698Y-102906962D01*
X157695961Y-103115699D01*
X157531958Y-103361148D01*
X157418990Y-103633876D01*
X157361400Y-103923402D01*
X157361400Y-104218600D01*
X157418990Y-104508126D01*
X157531958Y-104780854D01*
X157695961Y-105026303D01*
X157810023Y-105140365D01*
X157752220Y-105157899D01*
X157641906Y-105216864D01*
X157545215Y-105296216D01*
X157465863Y-105392907D01*
X157406898Y-105503221D01*
X157370588Y-105622919D01*
X157358328Y-105747401D01*
X152683366Y-105747401D01*
X152866038Y-105564729D01*
X153110631Y-105198669D01*
X153279110Y-104791925D01*
X153365000Y-104360128D01*
X153365000Y-103919872D01*
X153279110Y-103488075D01*
X153110631Y-103081331D01*
X152866038Y-102715271D01*
X152554729Y-102403962D01*
X152188669Y-102159369D01*
X151781925Y-101990890D01*
X151350128Y-101905000D01*
X150909872Y-101905000D01*
X150478075Y-101990890D01*
X150071331Y-102159369D01*
X149705271Y-102403962D01*
X149393962Y-102715271D01*
X149149369Y-103081331D01*
X148980890Y-103488075D01*
X148895000Y-103919872D01*
X145117898Y-103919872D01*
X145061010Y-103633876D01*
X144948042Y-103361148D01*
X144784039Y-103115699D01*
X144575302Y-102906962D01*
X144416719Y-102801001D01*
X144575302Y-102695040D01*
X144784039Y-102486303D01*
X144948042Y-102240854D01*
X145061010Y-101968126D01*
X145118600Y-101678600D01*
X145118600Y-101383402D01*
X145061010Y-101093876D01*
X144948042Y-100821148D01*
X144784039Y-100575699D01*
X144575302Y-100366962D01*
X144414187Y-100259309D01*
X144630293Y-100097855D01*
X144826817Y-99879489D01*
X144976964Y-99626979D01*
X145074963Y-99350028D01*
X144954464Y-99118001D01*
X143747000Y-99118001D01*
X143747000Y-99138001D01*
X143493000Y-99138001D01*
X143493000Y-99118001D01*
X142285536Y-99118001D01*
X142165037Y-99350028D01*
X142263036Y-99626979D01*
X142413183Y-99879489D01*
X142609707Y-100097855D01*
X142825813Y-100259309D01*
X142664698Y-100366962D01*
X142455961Y-100575699D01*
X142291958Y-100821148D01*
X142178990Y-101093876D01*
X142121400Y-101383402D01*
X109982000Y-101383402D01*
X109982000Y-96150000D01*
X111861928Y-96150000D01*
X111874188Y-96274482D01*
X111910498Y-96394180D01*
X111969463Y-96504494D01*
X112048815Y-96601185D01*
X112145506Y-96680537D01*
X112255820Y-96739502D01*
X112375518Y-96775812D01*
X112500000Y-96788072D01*
X114014250Y-96785000D01*
X114173000Y-96626250D01*
X114173000Y-95377000D01*
X114427000Y-95377000D01*
X114427000Y-96626250D01*
X114585750Y-96785000D01*
X116100000Y-96788072D01*
X116224482Y-96775812D01*
X116344180Y-96739502D01*
X116454494Y-96680537D01*
X116551185Y-96601185D01*
X116630537Y-96504494D01*
X116689502Y-96394180D01*
X116725812Y-96274482D01*
X116738072Y-96150000D01*
X116735000Y-95535750D01*
X116576250Y-95377000D01*
X114427000Y-95377000D01*
X114173000Y-95377000D01*
X112023750Y-95377000D01*
X111865000Y-95535750D01*
X111861928Y-96150000D01*
X109982000Y-96150000D01*
X109982000Y-94350000D01*
X111861928Y-94350000D01*
X111865000Y-94964250D01*
X112023750Y-95123000D01*
X114173000Y-95123000D01*
X114173000Y-93873750D01*
X114427000Y-93873750D01*
X114427000Y-95123000D01*
X116576250Y-95123000D01*
X116735000Y-94964250D01*
X116738072Y-94350000D01*
X128879928Y-94350000D01*
X128879928Y-96150000D01*
X128892188Y-96274482D01*
X128928498Y-96394180D01*
X128987463Y-96504494D01*
X129066815Y-96601185D01*
X129163506Y-96680537D01*
X129273820Y-96739502D01*
X129393518Y-96775812D01*
X129518000Y-96788072D01*
X133118000Y-96788072D01*
X133242482Y-96775812D01*
X133362180Y-96739502D01*
X133472494Y-96680537D01*
X133569185Y-96601185D01*
X133648537Y-96504494D01*
X133707502Y-96394180D01*
X133743812Y-96274482D01*
X133756072Y-96150000D01*
X133756072Y-96035000D01*
X140438172Y-96035000D01*
X140542344Y-96104605D01*
X140730702Y-96182626D01*
X140930661Y-96222400D01*
X141134539Y-96222400D01*
X141334498Y-96182626D01*
X141522856Y-96104605D01*
X141692374Y-95991337D01*
X141836537Y-95847174D01*
X141949805Y-95677656D01*
X142027826Y-95489298D01*
X142067600Y-95289339D01*
X142067600Y-95085461D01*
X142027826Y-94885502D01*
X141949805Y-94697144D01*
X141836537Y-94527626D01*
X141692374Y-94383463D01*
X141522856Y-94270195D01*
X141334498Y-94192174D01*
X141134539Y-94152400D01*
X140930661Y-94152400D01*
X140730702Y-94192174D01*
X140542344Y-94270195D01*
X140372826Y-94383463D01*
X140291289Y-94465000D01*
X133756072Y-94465000D01*
X133756072Y-94350000D01*
X133743812Y-94225518D01*
X133707502Y-94105820D01*
X133648537Y-93995506D01*
X133569185Y-93898815D01*
X133472494Y-93819463D01*
X133362180Y-93760498D01*
X133242482Y-93724188D01*
X133118000Y-93711928D01*
X129518000Y-93711928D01*
X129393518Y-93724188D01*
X129273820Y-93760498D01*
X129163506Y-93819463D01*
X129066815Y-93898815D01*
X128987463Y-93995506D01*
X128928498Y-94105820D01*
X128892188Y-94225518D01*
X128879928Y-94350000D01*
X116738072Y-94350000D01*
X116725812Y-94225518D01*
X116689502Y-94105820D01*
X116630537Y-93995506D01*
X116551185Y-93898815D01*
X116454494Y-93819463D01*
X116344180Y-93760498D01*
X116224482Y-93724188D01*
X116100000Y-93711928D01*
X114585750Y-93715000D01*
X114427000Y-93873750D01*
X114173000Y-93873750D01*
X114014250Y-93715000D01*
X112500000Y-93711928D01*
X112375518Y-93724188D01*
X112255820Y-93760498D01*
X112145506Y-93819463D01*
X112048815Y-93898815D01*
X111969463Y-93995506D01*
X111910498Y-94105820D01*
X111874188Y-94225518D01*
X111861928Y-94350000D01*
X109982000Y-94350000D01*
X109982000Y-91804740D01*
X111908964Y-91804740D01*
X111933245Y-91910087D01*
X112053138Y-92187204D01*
X112224790Y-92435606D01*
X112441604Y-92645748D01*
X112695249Y-92809554D01*
X112975977Y-92920729D01*
X113273000Y-92975000D01*
X114173000Y-92975000D01*
X114173000Y-91567000D01*
X114427000Y-91567000D01*
X114427000Y-92975000D01*
X115327000Y-92975000D01*
X115624023Y-92920729D01*
X115904751Y-92809554D01*
X116158396Y-92645748D01*
X116375210Y-92435606D01*
X116546862Y-92187204D01*
X116666755Y-91910087D01*
X116691036Y-91804740D01*
X116570378Y-91567000D01*
X114427000Y-91567000D01*
X114173000Y-91567000D01*
X112029622Y-91567000D01*
X111908964Y-91804740D01*
X109982000Y-91804740D01*
X109982000Y-91440000D01*
X128875573Y-91440000D01*
X128905210Y-91740913D01*
X128992983Y-92030261D01*
X129135519Y-92296927D01*
X129327339Y-92530661D01*
X129561073Y-92722481D01*
X129827739Y-92865017D01*
X130117087Y-92952790D01*
X130342592Y-92975000D01*
X132293408Y-92975000D01*
X132518913Y-92952790D01*
X132808261Y-92865017D01*
X133074927Y-92722481D01*
X133308661Y-92530661D01*
X133500481Y-92296927D01*
X133538927Y-92225000D01*
X139661447Y-92225000D01*
X139700000Y-92228797D01*
X139738553Y-92225000D01*
X139738561Y-92225000D01*
X139853887Y-92213641D01*
X140001860Y-92168754D01*
X140138233Y-92095862D01*
X140257764Y-91997764D01*
X140282347Y-91967810D01*
X141107758Y-91142400D01*
X141134539Y-91142400D01*
X141334498Y-91102626D01*
X141522856Y-91024605D01*
X141692374Y-90911337D01*
X141836537Y-90767174D01*
X141949805Y-90597656D01*
X142027826Y-90409298D01*
X142067600Y-90209339D01*
X142067600Y-90005461D01*
X142027826Y-89805502D01*
X141949805Y-89617144D01*
X141836537Y-89447626D01*
X141692374Y-89303463D01*
X141522856Y-89190195D01*
X141334498Y-89112174D01*
X141134539Y-89072400D01*
X140930661Y-89072400D01*
X140730702Y-89112174D01*
X140542344Y-89190195D01*
X140372826Y-89303463D01*
X140228663Y-89447626D01*
X140115395Y-89617144D01*
X140037374Y-89805502D01*
X139997600Y-90005461D01*
X139997600Y-90032242D01*
X139374843Y-90655000D01*
X133538927Y-90655000D01*
X133500481Y-90583073D01*
X133308661Y-90349339D01*
X133074927Y-90157519D01*
X132808261Y-90014983D01*
X132518913Y-89927210D01*
X132293408Y-89905000D01*
X130342592Y-89905000D01*
X130117087Y-89927210D01*
X129827739Y-90014983D01*
X129561073Y-90157519D01*
X129327339Y-90349339D01*
X129135519Y-90583073D01*
X128992983Y-90849739D01*
X128905210Y-91139087D01*
X128875573Y-91440000D01*
X109982000Y-91440000D01*
X109982000Y-91075260D01*
X111908964Y-91075260D01*
X112029622Y-91313000D01*
X114173000Y-91313000D01*
X114173000Y-89905000D01*
X114427000Y-89905000D01*
X114427000Y-91313000D01*
X116570378Y-91313000D01*
X116691036Y-91075260D01*
X116666755Y-90969913D01*
X116546862Y-90692796D01*
X116375210Y-90444394D01*
X116158396Y-90234252D01*
X115904751Y-90070446D01*
X115624023Y-89959271D01*
X115327000Y-89905000D01*
X114427000Y-89905000D01*
X114173000Y-89905000D01*
X113273000Y-89905000D01*
X112975977Y-89959271D01*
X112695249Y-90070446D01*
X112441604Y-90234252D01*
X112224790Y-90444394D01*
X112053138Y-90692796D01*
X111933245Y-90969913D01*
X111908964Y-91075260D01*
X109982000Y-91075260D01*
X109982000Y-87994740D01*
X111908964Y-87994740D01*
X111933245Y-88100087D01*
X112053138Y-88377204D01*
X112224790Y-88625606D01*
X112441604Y-88835748D01*
X112695249Y-88999554D01*
X112975977Y-89110729D01*
X113273000Y-89165000D01*
X114173000Y-89165000D01*
X114173000Y-87757000D01*
X114427000Y-87757000D01*
X114427000Y-89165000D01*
X115327000Y-89165000D01*
X115624023Y-89110729D01*
X115904751Y-88999554D01*
X116158396Y-88835748D01*
X116375210Y-88625606D01*
X116546862Y-88377204D01*
X116666755Y-88100087D01*
X116691036Y-87994740D01*
X116570378Y-87757000D01*
X114427000Y-87757000D01*
X114173000Y-87757000D01*
X112029622Y-87757000D01*
X111908964Y-87994740D01*
X109982000Y-87994740D01*
X109982000Y-87630000D01*
X128875573Y-87630000D01*
X128905210Y-87930913D01*
X128992983Y-88220261D01*
X129135519Y-88486927D01*
X129327339Y-88720661D01*
X129561073Y-88912481D01*
X129827739Y-89055017D01*
X130117087Y-89142790D01*
X130342592Y-89165000D01*
X132293408Y-89165000D01*
X132518913Y-89142790D01*
X132808261Y-89055017D01*
X133074927Y-88912481D01*
X133308661Y-88720661D01*
X133500481Y-88486927D01*
X133538927Y-88415000D01*
X140438172Y-88415000D01*
X140542344Y-88484605D01*
X140730702Y-88562626D01*
X140930661Y-88602400D01*
X141134539Y-88602400D01*
X141334498Y-88562626D01*
X141522856Y-88484605D01*
X141692374Y-88371337D01*
X141836537Y-88227174D01*
X141949805Y-88057656D01*
X142027826Y-87869298D01*
X142067600Y-87669339D01*
X142067600Y-87465461D01*
X142027826Y-87265502D01*
X141949805Y-87077144D01*
X141836537Y-86907626D01*
X141692374Y-86763463D01*
X141522856Y-86650195D01*
X141334498Y-86572174D01*
X141134539Y-86532400D01*
X140930661Y-86532400D01*
X140730702Y-86572174D01*
X140542344Y-86650195D01*
X140372826Y-86763463D01*
X140291289Y-86845000D01*
X133538927Y-86845000D01*
X133500481Y-86773073D01*
X133308661Y-86539339D01*
X133074927Y-86347519D01*
X132808261Y-86204983D01*
X132518913Y-86117210D01*
X132293408Y-86095000D01*
X130342592Y-86095000D01*
X130117087Y-86117210D01*
X129827739Y-86204983D01*
X129561073Y-86347519D01*
X129327339Y-86539339D01*
X129135519Y-86773073D01*
X128992983Y-87039739D01*
X128905210Y-87329087D01*
X128875573Y-87630000D01*
X109982000Y-87630000D01*
X109982000Y-87265260D01*
X111908964Y-87265260D01*
X112029622Y-87503000D01*
X114173000Y-87503000D01*
X114173000Y-86095000D01*
X114427000Y-86095000D01*
X114427000Y-87503000D01*
X116570378Y-87503000D01*
X116691036Y-87265260D01*
X116666755Y-87159913D01*
X116546862Y-86882796D01*
X116375210Y-86634394D01*
X116158396Y-86424252D01*
X115904751Y-86260446D01*
X115624023Y-86149271D01*
X115327000Y-86095000D01*
X114427000Y-86095000D01*
X114173000Y-86095000D01*
X113273000Y-86095000D01*
X112975977Y-86149271D01*
X112695249Y-86260446D01*
X112441604Y-86424252D01*
X112224790Y-86634394D01*
X112053138Y-86882796D01*
X111933245Y-87159913D01*
X111908964Y-87265260D01*
X109982000Y-87265260D01*
X109982000Y-84184740D01*
X111908964Y-84184740D01*
X111933245Y-84290087D01*
X112053138Y-84567204D01*
X112224790Y-84815606D01*
X112441604Y-85025748D01*
X112695249Y-85189554D01*
X112975977Y-85300729D01*
X113273000Y-85355000D01*
X114173000Y-85355000D01*
X114173000Y-83947000D01*
X114427000Y-83947000D01*
X114427000Y-85355000D01*
X115327000Y-85355000D01*
X115624023Y-85300729D01*
X115904751Y-85189554D01*
X116158396Y-85025748D01*
X116375210Y-84815606D01*
X116546862Y-84567204D01*
X116666755Y-84290087D01*
X116691036Y-84184740D01*
X116570378Y-83947000D01*
X114427000Y-83947000D01*
X114173000Y-83947000D01*
X112029622Y-83947000D01*
X111908964Y-84184740D01*
X109982000Y-84184740D01*
X109982000Y-83820000D01*
X128875573Y-83820000D01*
X128905210Y-84120913D01*
X128992983Y-84410261D01*
X129135519Y-84676927D01*
X129327339Y-84910661D01*
X129561073Y-85102481D01*
X129827739Y-85245017D01*
X130117087Y-85332790D01*
X130342592Y-85355000D01*
X132293408Y-85355000D01*
X132518913Y-85332790D01*
X132808261Y-85245017D01*
X133074927Y-85102481D01*
X133308661Y-84910661D01*
X133500481Y-84676927D01*
X133538927Y-84605000D01*
X140291289Y-84605000D01*
X140310226Y-84623937D01*
X140479744Y-84737205D01*
X140668102Y-84815226D01*
X140868061Y-84855000D01*
X141071939Y-84855000D01*
X141271898Y-84815226D01*
X141460256Y-84737205D01*
X141629774Y-84623937D01*
X141773937Y-84479774D01*
X141887205Y-84310256D01*
X141965226Y-84121898D01*
X142005000Y-83921939D01*
X142005000Y-83718061D01*
X141965226Y-83518102D01*
X141887205Y-83329744D01*
X141773937Y-83160226D01*
X141629774Y-83016063D01*
X141460256Y-82902795D01*
X141271898Y-82824774D01*
X141071939Y-82785000D01*
X140868061Y-82785000D01*
X140668102Y-82824774D01*
X140479744Y-82902795D01*
X140310226Y-83016063D01*
X140291289Y-83035000D01*
X133538927Y-83035000D01*
X133500481Y-82963073D01*
X133308661Y-82729339D01*
X133074927Y-82537519D01*
X132808261Y-82394983D01*
X132518913Y-82307210D01*
X132293408Y-82285000D01*
X130342592Y-82285000D01*
X130117087Y-82307210D01*
X129827739Y-82394983D01*
X129561073Y-82537519D01*
X129327339Y-82729339D01*
X129135519Y-82963073D01*
X128992983Y-83229739D01*
X128905210Y-83519087D01*
X128875573Y-83820000D01*
X109982000Y-83820000D01*
X109982000Y-83455260D01*
X111908964Y-83455260D01*
X112029622Y-83693000D01*
X114173000Y-83693000D01*
X114173000Y-82285000D01*
X114427000Y-82285000D01*
X114427000Y-83693000D01*
X116570378Y-83693000D01*
X116691036Y-83455260D01*
X116666755Y-83349913D01*
X116546862Y-83072796D01*
X116375210Y-82824394D01*
X116158396Y-82614252D01*
X115904751Y-82450446D01*
X115624023Y-82339271D01*
X115327000Y-82285000D01*
X114427000Y-82285000D01*
X114173000Y-82285000D01*
X113273000Y-82285000D01*
X112975977Y-82339271D01*
X112695249Y-82450446D01*
X112441604Y-82614252D01*
X112224790Y-82824394D01*
X112053138Y-83072796D01*
X111933245Y-83349913D01*
X111908964Y-83455260D01*
X109982000Y-83455260D01*
X109982000Y-80374740D01*
X111908964Y-80374740D01*
X111933245Y-80480087D01*
X112053138Y-80757204D01*
X112224790Y-81005606D01*
X112441604Y-81215748D01*
X112695249Y-81379554D01*
X112975977Y-81490729D01*
X113273000Y-81545000D01*
X114173000Y-81545000D01*
X114173000Y-80137000D01*
X114427000Y-80137000D01*
X114427000Y-81545000D01*
X115327000Y-81545000D01*
X115624023Y-81490729D01*
X115904751Y-81379554D01*
X116158396Y-81215748D01*
X116375210Y-81005606D01*
X116546862Y-80757204D01*
X116666755Y-80480087D01*
X116691036Y-80374740D01*
X116570378Y-80137000D01*
X114427000Y-80137000D01*
X114173000Y-80137000D01*
X112029622Y-80137000D01*
X111908964Y-80374740D01*
X109982000Y-80374740D01*
X109982000Y-80010000D01*
X128875573Y-80010000D01*
X128905210Y-80310913D01*
X128992983Y-80600261D01*
X129135519Y-80866927D01*
X129327339Y-81100661D01*
X129561073Y-81292481D01*
X129827739Y-81435017D01*
X130117087Y-81522790D01*
X130342592Y-81545000D01*
X132293408Y-81545000D01*
X132518913Y-81522790D01*
X132808261Y-81435017D01*
X133074927Y-81292481D01*
X133308661Y-81100661D01*
X133500481Y-80866927D01*
X133538927Y-80795000D01*
X139553841Y-80795000D01*
X139770499Y-81011658D01*
X139770499Y-81038440D01*
X139810273Y-81238399D01*
X139888294Y-81426757D01*
X140001562Y-81596275D01*
X140145725Y-81740438D01*
X140315243Y-81853706D01*
X140503601Y-81931727D01*
X140703560Y-81971501D01*
X140907438Y-81971501D01*
X141107397Y-81931727D01*
X141295755Y-81853706D01*
X141465273Y-81740438D01*
X141609436Y-81596275D01*
X141722704Y-81426757D01*
X141800725Y-81238399D01*
X141840499Y-81038440D01*
X141840499Y-80834562D01*
X141800725Y-80634603D01*
X141722704Y-80446245D01*
X141609436Y-80276727D01*
X141465273Y-80132564D01*
X141295755Y-80019296D01*
X141107397Y-79941275D01*
X140907438Y-79901501D01*
X140880656Y-79901501D01*
X140461345Y-79482190D01*
X140436762Y-79452236D01*
X140317231Y-79354138D01*
X140180858Y-79281246D01*
X140032885Y-79236359D01*
X139917559Y-79225000D01*
X139917551Y-79225000D01*
X139878998Y-79221203D01*
X139840445Y-79225000D01*
X133538927Y-79225000D01*
X133500481Y-79153073D01*
X133308661Y-78919339D01*
X133074927Y-78727519D01*
X132808261Y-78584983D01*
X132518913Y-78497210D01*
X132293408Y-78475000D01*
X130342592Y-78475000D01*
X130117087Y-78497210D01*
X129827739Y-78584983D01*
X129561073Y-78727519D01*
X129327339Y-78919339D01*
X129135519Y-79153073D01*
X128992983Y-79419739D01*
X128905210Y-79709087D01*
X128875573Y-80010000D01*
X109982000Y-80010000D01*
X109982000Y-79645260D01*
X111908964Y-79645260D01*
X112029622Y-79883000D01*
X114173000Y-79883000D01*
X114173000Y-78475000D01*
X114427000Y-78475000D01*
X114427000Y-79883000D01*
X116570378Y-79883000D01*
X116691036Y-79645260D01*
X116666755Y-79539913D01*
X116546862Y-79262796D01*
X116375210Y-79014394D01*
X116158396Y-78804252D01*
X115904751Y-78640446D01*
X115624023Y-78529271D01*
X115327000Y-78475000D01*
X114427000Y-78475000D01*
X114173000Y-78475000D01*
X113273000Y-78475000D01*
X112975977Y-78529271D01*
X112695249Y-78640446D01*
X112441604Y-78804252D01*
X112224790Y-79014394D01*
X112053138Y-79262796D01*
X111933245Y-79539913D01*
X111908964Y-79645260D01*
X109982000Y-79645260D01*
X109982000Y-76564740D01*
X111908964Y-76564740D01*
X111933245Y-76670087D01*
X112053138Y-76947204D01*
X112224790Y-77195606D01*
X112441604Y-77405748D01*
X112695249Y-77569554D01*
X112975977Y-77680729D01*
X113273000Y-77735000D01*
X114173000Y-77735000D01*
X114173000Y-76327000D01*
X114427000Y-76327000D01*
X114427000Y-77735000D01*
X115327000Y-77735000D01*
X115624023Y-77680729D01*
X115904751Y-77569554D01*
X116158396Y-77405748D01*
X116375210Y-77195606D01*
X116546862Y-76947204D01*
X116666755Y-76670087D01*
X116691036Y-76564740D01*
X116570378Y-76327000D01*
X114427000Y-76327000D01*
X114173000Y-76327000D01*
X112029622Y-76327000D01*
X111908964Y-76564740D01*
X109982000Y-76564740D01*
X109982000Y-76200000D01*
X128875573Y-76200000D01*
X128905210Y-76500913D01*
X128992983Y-76790261D01*
X129135519Y-77056927D01*
X129327339Y-77290661D01*
X129561073Y-77482481D01*
X129827739Y-77625017D01*
X130117087Y-77712790D01*
X130342592Y-77735000D01*
X132293408Y-77735000D01*
X132518913Y-77712790D01*
X132808261Y-77625017D01*
X133074927Y-77482481D01*
X133308661Y-77290661D01*
X133500481Y-77056927D01*
X133538927Y-76985000D01*
X138283843Y-76985000D01*
X139135500Y-77836658D01*
X139135500Y-77863439D01*
X139175274Y-78063398D01*
X139253295Y-78251756D01*
X139366563Y-78421274D01*
X139510726Y-78565437D01*
X139680244Y-78678705D01*
X139868602Y-78756726D01*
X140068561Y-78796500D01*
X140272439Y-78796500D01*
X140472398Y-78756726D01*
X140660756Y-78678705D01*
X140830274Y-78565437D01*
X140974437Y-78421274D01*
X141087705Y-78251756D01*
X141165726Y-78063398D01*
X141205500Y-77863439D01*
X141205500Y-77659561D01*
X141165726Y-77459602D01*
X141087705Y-77271244D01*
X140974437Y-77101726D01*
X140830274Y-76957563D01*
X140660756Y-76844295D01*
X140472398Y-76766274D01*
X140272439Y-76726500D01*
X140245658Y-76726500D01*
X139191347Y-75672190D01*
X139166764Y-75642236D01*
X139047233Y-75544138D01*
X138910860Y-75471246D01*
X138762887Y-75426359D01*
X138647561Y-75415000D01*
X138647553Y-75415000D01*
X138609000Y-75411203D01*
X138570447Y-75415000D01*
X133538927Y-75415000D01*
X133500481Y-75343073D01*
X133308661Y-75109339D01*
X133074927Y-74917519D01*
X132808261Y-74774983D01*
X132518913Y-74687210D01*
X132293408Y-74665000D01*
X130342592Y-74665000D01*
X130117087Y-74687210D01*
X129827739Y-74774983D01*
X129561073Y-74917519D01*
X129327339Y-75109339D01*
X129135519Y-75343073D01*
X128992983Y-75609739D01*
X128905210Y-75899087D01*
X128875573Y-76200000D01*
X109982000Y-76200000D01*
X109982000Y-75835260D01*
X111908964Y-75835260D01*
X112029622Y-76073000D01*
X114173000Y-76073000D01*
X114173000Y-74665000D01*
X114427000Y-74665000D01*
X114427000Y-76073000D01*
X116570378Y-76073000D01*
X116691036Y-75835260D01*
X116666755Y-75729913D01*
X116546862Y-75452796D01*
X116375210Y-75204394D01*
X116158396Y-74994252D01*
X115904751Y-74830446D01*
X115624023Y-74719271D01*
X115327000Y-74665000D01*
X114427000Y-74665000D01*
X114173000Y-74665000D01*
X113273000Y-74665000D01*
X112975977Y-74719271D01*
X112695249Y-74830446D01*
X112441604Y-74994252D01*
X112224790Y-75204394D01*
X112053138Y-75452796D01*
X111933245Y-75729913D01*
X111908964Y-75835260D01*
X109982000Y-75835260D01*
X109982000Y-72754740D01*
X111908964Y-72754740D01*
X111933245Y-72860087D01*
X112053138Y-73137204D01*
X112224790Y-73385606D01*
X112441604Y-73595748D01*
X112695249Y-73759554D01*
X112975977Y-73870729D01*
X113273000Y-73925000D01*
X114173000Y-73925000D01*
X114173000Y-72517000D01*
X114427000Y-72517000D01*
X114427000Y-73925000D01*
X115327000Y-73925000D01*
X115624023Y-73870729D01*
X115904751Y-73759554D01*
X116158396Y-73595748D01*
X116375210Y-73385606D01*
X116546862Y-73137204D01*
X116666755Y-72860087D01*
X116691036Y-72754740D01*
X116570378Y-72517000D01*
X114427000Y-72517000D01*
X114173000Y-72517000D01*
X112029622Y-72517000D01*
X111908964Y-72754740D01*
X109982000Y-72754740D01*
X109982000Y-72390000D01*
X128875573Y-72390000D01*
X128905210Y-72690913D01*
X128992983Y-72980261D01*
X129135519Y-73246927D01*
X129327339Y-73480661D01*
X129561073Y-73672481D01*
X129827739Y-73815017D01*
X130117087Y-73902790D01*
X130342592Y-73925000D01*
X132293408Y-73925000D01*
X132518913Y-73902790D01*
X132808261Y-73815017D01*
X133074927Y-73672481D01*
X133308661Y-73480661D01*
X133500481Y-73246927D01*
X133538927Y-73175000D01*
X137129845Y-73175000D01*
X138431501Y-74476657D01*
X138431501Y-74503438D01*
X138471275Y-74703397D01*
X138549296Y-74891755D01*
X138662564Y-75061273D01*
X138806727Y-75205436D01*
X138976245Y-75318704D01*
X139164603Y-75396725D01*
X139364562Y-75436499D01*
X139568440Y-75436499D01*
X139768399Y-75396725D01*
X139956757Y-75318704D01*
X140126275Y-75205436D01*
X140270438Y-75061273D01*
X140383706Y-74891755D01*
X140461727Y-74703397D01*
X140501501Y-74503438D01*
X140501501Y-74299560D01*
X140461727Y-74099601D01*
X140383706Y-73911243D01*
X140270438Y-73741725D01*
X140126275Y-73597562D01*
X139956757Y-73484294D01*
X139768399Y-73406273D01*
X139568440Y-73366499D01*
X139541659Y-73366499D01*
X138037349Y-71862190D01*
X138012766Y-71832236D01*
X137893235Y-71734138D01*
X137756862Y-71661246D01*
X137608889Y-71616359D01*
X137493563Y-71605000D01*
X137493555Y-71605000D01*
X137455002Y-71601203D01*
X137416449Y-71605000D01*
X133538927Y-71605000D01*
X133500481Y-71533073D01*
X133308661Y-71299339D01*
X133074927Y-71107519D01*
X132808261Y-70964983D01*
X132518913Y-70877210D01*
X132293408Y-70855000D01*
X130342592Y-70855000D01*
X130117087Y-70877210D01*
X129827739Y-70964983D01*
X129561073Y-71107519D01*
X129327339Y-71299339D01*
X129135519Y-71533073D01*
X128992983Y-71799739D01*
X128905210Y-72089087D01*
X128875573Y-72390000D01*
X109982000Y-72390000D01*
X109982000Y-72025260D01*
X111908964Y-72025260D01*
X112029622Y-72263000D01*
X114173000Y-72263000D01*
X114173000Y-70855000D01*
X114427000Y-70855000D01*
X114427000Y-72263000D01*
X116570378Y-72263000D01*
X116691036Y-72025260D01*
X116666755Y-71919913D01*
X116546862Y-71642796D01*
X116375210Y-71394394D01*
X116158396Y-71184252D01*
X115904751Y-71020446D01*
X115624023Y-70909271D01*
X115327000Y-70855000D01*
X114427000Y-70855000D01*
X114173000Y-70855000D01*
X113273000Y-70855000D01*
X112975977Y-70909271D01*
X112695249Y-71020446D01*
X112441604Y-71184252D01*
X112224790Y-71394394D01*
X112053138Y-71642796D01*
X111933245Y-71919913D01*
X111908964Y-72025260D01*
X109982000Y-72025260D01*
X109982000Y-68944740D01*
X111908964Y-68944740D01*
X111933245Y-69050087D01*
X112053138Y-69327204D01*
X112224790Y-69575606D01*
X112441604Y-69785748D01*
X112695249Y-69949554D01*
X112975977Y-70060729D01*
X113273000Y-70115000D01*
X114173000Y-70115000D01*
X114173000Y-68707000D01*
X114427000Y-68707000D01*
X114427000Y-70115000D01*
X115327000Y-70115000D01*
X115624023Y-70060729D01*
X115904751Y-69949554D01*
X116158396Y-69785748D01*
X116375210Y-69575606D01*
X116546862Y-69327204D01*
X116666755Y-69050087D01*
X116691036Y-68944740D01*
X116570378Y-68707000D01*
X114427000Y-68707000D01*
X114173000Y-68707000D01*
X112029622Y-68707000D01*
X111908964Y-68944740D01*
X109982000Y-68944740D01*
X109982000Y-68580000D01*
X128875573Y-68580000D01*
X128905210Y-68880913D01*
X128992983Y-69170261D01*
X129135519Y-69436927D01*
X129327339Y-69670661D01*
X129561073Y-69862481D01*
X129827739Y-70005017D01*
X130117087Y-70092790D01*
X130342592Y-70115000D01*
X132293408Y-70115000D01*
X132518913Y-70092790D01*
X132808261Y-70005017D01*
X133074927Y-69862481D01*
X133308661Y-69670661D01*
X133500481Y-69436927D01*
X133538927Y-69365000D01*
X138358843Y-69365000D01*
X139260001Y-70266159D01*
X139260001Y-70292940D01*
X139299775Y-70492899D01*
X139377796Y-70681257D01*
X139491064Y-70850775D01*
X139635227Y-70994938D01*
X139804745Y-71108206D01*
X139993103Y-71186227D01*
X140193062Y-71226001D01*
X140396940Y-71226001D01*
X140596899Y-71186227D01*
X140785257Y-71108206D01*
X140954775Y-70994938D01*
X141098938Y-70850775D01*
X141212206Y-70681257D01*
X141290227Y-70492899D01*
X141330001Y-70292940D01*
X141330001Y-70089062D01*
X141290227Y-69889103D01*
X141212206Y-69700745D01*
X141098938Y-69531227D01*
X140954775Y-69387064D01*
X140785257Y-69273796D01*
X140596899Y-69195775D01*
X140396940Y-69156001D01*
X140370159Y-69156001D01*
X139266347Y-68052190D01*
X139241764Y-68022236D01*
X139122233Y-67924138D01*
X138985860Y-67851246D01*
X138837887Y-67806359D01*
X138722561Y-67795000D01*
X138722553Y-67795000D01*
X138684000Y-67791203D01*
X138645447Y-67795000D01*
X133538927Y-67795000D01*
X133500481Y-67723073D01*
X133308661Y-67489339D01*
X133074927Y-67297519D01*
X132808261Y-67154983D01*
X132518913Y-67067210D01*
X132293408Y-67045000D01*
X130342592Y-67045000D01*
X130117087Y-67067210D01*
X129827739Y-67154983D01*
X129561073Y-67297519D01*
X129327339Y-67489339D01*
X129135519Y-67723073D01*
X128992983Y-67989739D01*
X128905210Y-68279087D01*
X128875573Y-68580000D01*
X109982000Y-68580000D01*
X109982000Y-68215260D01*
X111908964Y-68215260D01*
X112029622Y-68453000D01*
X114173000Y-68453000D01*
X114173000Y-67045000D01*
X114427000Y-67045000D01*
X114427000Y-68453000D01*
X116570378Y-68453000D01*
X116691036Y-68215260D01*
X116666755Y-68109913D01*
X116546862Y-67832796D01*
X116375210Y-67584394D01*
X116158396Y-67374252D01*
X115904751Y-67210446D01*
X115624023Y-67099271D01*
X115327000Y-67045000D01*
X114427000Y-67045000D01*
X114173000Y-67045000D01*
X113273000Y-67045000D01*
X112975977Y-67099271D01*
X112695249Y-67210446D01*
X112441604Y-67374252D01*
X112224790Y-67584394D01*
X112053138Y-67832796D01*
X111933245Y-68109913D01*
X111908964Y-68215260D01*
X109982000Y-68215260D01*
X109982000Y-65134740D01*
X111908964Y-65134740D01*
X111933245Y-65240087D01*
X112053138Y-65517204D01*
X112224790Y-65765606D01*
X112441604Y-65975748D01*
X112695249Y-66139554D01*
X112975977Y-66250729D01*
X113273000Y-66305000D01*
X114173000Y-66305000D01*
X114173000Y-64897000D01*
X114427000Y-64897000D01*
X114427000Y-66305000D01*
X115327000Y-66305000D01*
X115624023Y-66250729D01*
X115904751Y-66139554D01*
X116158396Y-65975748D01*
X116375210Y-65765606D01*
X116546862Y-65517204D01*
X116666755Y-65240087D01*
X116691036Y-65134740D01*
X116570378Y-64897000D01*
X114427000Y-64897000D01*
X114173000Y-64897000D01*
X112029622Y-64897000D01*
X111908964Y-65134740D01*
X109982000Y-65134740D01*
X109982000Y-64770000D01*
X128875573Y-64770000D01*
X128905210Y-65070913D01*
X128992983Y-65360261D01*
X129135519Y-65626927D01*
X129327339Y-65860661D01*
X129561073Y-66052481D01*
X129827739Y-66195017D01*
X130117087Y-66282790D01*
X130342592Y-66305000D01*
X132293408Y-66305000D01*
X132518913Y-66282790D01*
X132808261Y-66195017D01*
X133074927Y-66052481D01*
X133308661Y-65860661D01*
X133500481Y-65626927D01*
X133538927Y-65555000D01*
X137869843Y-65555000D01*
X139182500Y-66867658D01*
X139182500Y-66894439D01*
X139222274Y-67094398D01*
X139300295Y-67282756D01*
X139413563Y-67452274D01*
X139557726Y-67596437D01*
X139727244Y-67709705D01*
X139915602Y-67787726D01*
X140115561Y-67827500D01*
X140319439Y-67827500D01*
X140519398Y-67787726D01*
X140707756Y-67709705D01*
X140877274Y-67596437D01*
X141021437Y-67452274D01*
X141134705Y-67282756D01*
X141212726Y-67094398D01*
X141252500Y-66894439D01*
X141252500Y-66690561D01*
X141212726Y-66490602D01*
X141134705Y-66302244D01*
X141021437Y-66132726D01*
X140877274Y-65988563D01*
X140707756Y-65875295D01*
X140582477Y-65823402D01*
X142121400Y-65823402D01*
X142121400Y-66118600D01*
X142178990Y-66408126D01*
X142291958Y-66680854D01*
X142455961Y-66926303D01*
X142664698Y-67135040D01*
X142823281Y-67241001D01*
X142664698Y-67346962D01*
X142455961Y-67555699D01*
X142291958Y-67801148D01*
X142178990Y-68073876D01*
X142121400Y-68363402D01*
X142121400Y-68658600D01*
X142178990Y-68948126D01*
X142291958Y-69220854D01*
X142455961Y-69466303D01*
X142664698Y-69675040D01*
X142823281Y-69781001D01*
X142664698Y-69886962D01*
X142455961Y-70095699D01*
X142291958Y-70341148D01*
X142178990Y-70613876D01*
X142121400Y-70903402D01*
X142121400Y-71198600D01*
X142178990Y-71488126D01*
X142291958Y-71760854D01*
X142455961Y-72006303D01*
X142664698Y-72215040D01*
X142823281Y-72321001D01*
X142664698Y-72426962D01*
X142455961Y-72635699D01*
X142291958Y-72881148D01*
X142178990Y-73153876D01*
X142121400Y-73443402D01*
X142121400Y-73738600D01*
X142178990Y-74028126D01*
X142291958Y-74300854D01*
X142455961Y-74546303D01*
X142664698Y-74755040D01*
X142823281Y-74861001D01*
X142664698Y-74966962D01*
X142455961Y-75175699D01*
X142291958Y-75421148D01*
X142178990Y-75693876D01*
X142121400Y-75983402D01*
X142121400Y-76278600D01*
X142178990Y-76568126D01*
X142291958Y-76840854D01*
X142455961Y-77086303D01*
X142664698Y-77295040D01*
X142823281Y-77401001D01*
X142664698Y-77506962D01*
X142455961Y-77715699D01*
X142291958Y-77961148D01*
X142178990Y-78233876D01*
X142121400Y-78523402D01*
X142121400Y-78818600D01*
X142178990Y-79108126D01*
X142291958Y-79380854D01*
X142455961Y-79626303D01*
X142664698Y-79835040D01*
X142823281Y-79941001D01*
X142664698Y-80046962D01*
X142455961Y-80255699D01*
X142291958Y-80501148D01*
X142178990Y-80773876D01*
X142121400Y-81063402D01*
X142121400Y-81358600D01*
X142178990Y-81648126D01*
X142291958Y-81920854D01*
X142455961Y-82166303D01*
X142664698Y-82375040D01*
X142823281Y-82481001D01*
X142664698Y-82586962D01*
X142455961Y-82795699D01*
X142291958Y-83041148D01*
X142178990Y-83313876D01*
X142121400Y-83603402D01*
X142121400Y-83898600D01*
X142178990Y-84188126D01*
X142291958Y-84460854D01*
X142455961Y-84706303D01*
X142664698Y-84915040D01*
X142823281Y-85021001D01*
X142664698Y-85126962D01*
X142455961Y-85335699D01*
X142291958Y-85581148D01*
X142178990Y-85853876D01*
X142121400Y-86143402D01*
X142121400Y-86438600D01*
X142178990Y-86728126D01*
X142291958Y-87000854D01*
X142455961Y-87246303D01*
X142664698Y-87455040D01*
X142823281Y-87561001D01*
X142664698Y-87666962D01*
X142455961Y-87875699D01*
X142291958Y-88121148D01*
X142178990Y-88393876D01*
X142121400Y-88683402D01*
X142121400Y-88978600D01*
X142178990Y-89268126D01*
X142291958Y-89540854D01*
X142455961Y-89786303D01*
X142664698Y-89995040D01*
X142823281Y-90101001D01*
X142664698Y-90206962D01*
X142455961Y-90415699D01*
X142291958Y-90661148D01*
X142178990Y-90933876D01*
X142121400Y-91223402D01*
X142121400Y-91518600D01*
X142178990Y-91808126D01*
X142291958Y-92080854D01*
X142455961Y-92326303D01*
X142664698Y-92535040D01*
X142823281Y-92641001D01*
X142664698Y-92746962D01*
X142455961Y-92955699D01*
X142291958Y-93201148D01*
X142178990Y-93473876D01*
X142121400Y-93763402D01*
X142121400Y-94058600D01*
X142178990Y-94348126D01*
X142291958Y-94620854D01*
X142455961Y-94866303D01*
X142664698Y-95075040D01*
X142823281Y-95181001D01*
X142664698Y-95286962D01*
X142455961Y-95495699D01*
X142291958Y-95741148D01*
X142178990Y-96013876D01*
X142121400Y-96303402D01*
X142121400Y-96598600D01*
X142178990Y-96888126D01*
X142291958Y-97160854D01*
X142455961Y-97406303D01*
X142664698Y-97615040D01*
X142825813Y-97722693D01*
X142609707Y-97884147D01*
X142413183Y-98102513D01*
X142263036Y-98355023D01*
X142165037Y-98631974D01*
X142285536Y-98864001D01*
X143493000Y-98864001D01*
X143493000Y-98844001D01*
X143747000Y-98844001D01*
X143747000Y-98864001D01*
X144954464Y-98864001D01*
X145074963Y-98631974D01*
X144976964Y-98355023D01*
X144826817Y-98102513D01*
X144630293Y-97884147D01*
X144414187Y-97722693D01*
X144575302Y-97615040D01*
X144784039Y-97406303D01*
X144948042Y-97160854D01*
X145061010Y-96888126D01*
X145118600Y-96598600D01*
X145118600Y-96303402D01*
X145061010Y-96013876D01*
X144948042Y-95741148D01*
X144784039Y-95495699D01*
X144575302Y-95286962D01*
X144416719Y-95181001D01*
X144575302Y-95075040D01*
X144784039Y-94866303D01*
X144948042Y-94620854D01*
X145061010Y-94348126D01*
X145118600Y-94058600D01*
X145118600Y-93763402D01*
X145061010Y-93473876D01*
X144948042Y-93201148D01*
X144784039Y-92955699D01*
X144575302Y-92746962D01*
X144416719Y-92641001D01*
X144575302Y-92535040D01*
X144784039Y-92326303D01*
X144948042Y-92080854D01*
X145061010Y-91808126D01*
X145118600Y-91518600D01*
X145118600Y-91223402D01*
X145061010Y-90933876D01*
X144948042Y-90661148D01*
X144784039Y-90415699D01*
X144575302Y-90206962D01*
X144416719Y-90101001D01*
X144575302Y-89995040D01*
X144784039Y-89786303D01*
X144948042Y-89540854D01*
X145061010Y-89268126D01*
X145118600Y-88978600D01*
X145118600Y-88683402D01*
X145061010Y-88393876D01*
X144948042Y-88121148D01*
X144784039Y-87875699D01*
X144575302Y-87666962D01*
X144416719Y-87561001D01*
X144575302Y-87455040D01*
X144784039Y-87246303D01*
X144948042Y-87000854D01*
X145061010Y-86728126D01*
X145118600Y-86438600D01*
X145118600Y-86143402D01*
X145061010Y-85853876D01*
X144948042Y-85581148D01*
X144784039Y-85335699D01*
X144575302Y-85126962D01*
X144416719Y-85021001D01*
X144575302Y-84915040D01*
X144784039Y-84706303D01*
X144948042Y-84460854D01*
X145061010Y-84188126D01*
X145118600Y-83898600D01*
X145118600Y-83603402D01*
X145061010Y-83313876D01*
X144948042Y-83041148D01*
X144784039Y-82795699D01*
X144575302Y-82586962D01*
X144416719Y-82481001D01*
X144575302Y-82375040D01*
X144784039Y-82166303D01*
X144948042Y-81920854D01*
X145061010Y-81648126D01*
X145118600Y-81358600D01*
X145118600Y-81063402D01*
X145061010Y-80773876D01*
X144948042Y-80501148D01*
X144784039Y-80255699D01*
X144575302Y-80046962D01*
X144416719Y-79941001D01*
X144575302Y-79835040D01*
X144784039Y-79626303D01*
X144948042Y-79380854D01*
X145061010Y-79108126D01*
X145118600Y-78818600D01*
X145118600Y-78523402D01*
X145061010Y-78233876D01*
X144948042Y-77961148D01*
X144784039Y-77715699D01*
X144575302Y-77506962D01*
X144416719Y-77401001D01*
X144575302Y-77295040D01*
X144784039Y-77086303D01*
X144948042Y-76840854D01*
X145061010Y-76568126D01*
X145118600Y-76278600D01*
X145118600Y-75983402D01*
X145061010Y-75693876D01*
X144948042Y-75421148D01*
X144784039Y-75175699D01*
X144575302Y-74966962D01*
X144416719Y-74861001D01*
X144575302Y-74755040D01*
X144784039Y-74546303D01*
X144948042Y-74300854D01*
X145061010Y-74028126D01*
X145118600Y-73738600D01*
X145118600Y-73443402D01*
X145061010Y-73153876D01*
X144948042Y-72881148D01*
X144784039Y-72635699D01*
X144575302Y-72426962D01*
X144416719Y-72321001D01*
X144575302Y-72215040D01*
X144784039Y-72006303D01*
X144948042Y-71760854D01*
X145061010Y-71488126D01*
X145118600Y-71198600D01*
X145118600Y-70903402D01*
X145061010Y-70613876D01*
X144948042Y-70341148D01*
X144784039Y-70095699D01*
X144575302Y-69886962D01*
X144416719Y-69781001D01*
X144575302Y-69675040D01*
X144784039Y-69466303D01*
X144948042Y-69220854D01*
X145061010Y-68948126D01*
X145118600Y-68658600D01*
X145118600Y-68363402D01*
X145061010Y-68073876D01*
X144948042Y-67801148D01*
X144784039Y-67555699D01*
X144575302Y-67346962D01*
X144416719Y-67241001D01*
X144575302Y-67135040D01*
X144784039Y-66926303D01*
X144948042Y-66680854D01*
X145061010Y-66408126D01*
X145118600Y-66118600D01*
X145118600Y-65823402D01*
X145117898Y-65819872D01*
X148895000Y-65819872D01*
X148895000Y-66260128D01*
X148980890Y-66691925D01*
X149149369Y-67098669D01*
X149393962Y-67464729D01*
X149705271Y-67776038D01*
X150071331Y-68020631D01*
X150478075Y-68189110D01*
X150909872Y-68275000D01*
X151350128Y-68275000D01*
X151781925Y-68189110D01*
X152188669Y-68020631D01*
X152554729Y-67776038D01*
X152866038Y-67464729D01*
X153110631Y-67098669D01*
X153279110Y-66691925D01*
X153365000Y-66260128D01*
X153365000Y-65823402D01*
X157361400Y-65823402D01*
X157361400Y-66118600D01*
X157418990Y-66408126D01*
X157531958Y-66680854D01*
X157695961Y-66926303D01*
X157904698Y-67135040D01*
X158063281Y-67241001D01*
X157904698Y-67346962D01*
X157695961Y-67555699D01*
X157531958Y-67801148D01*
X157418990Y-68073876D01*
X157361400Y-68363402D01*
X157361400Y-68658600D01*
X157418990Y-68948126D01*
X157531958Y-69220854D01*
X157695961Y-69466303D01*
X157904698Y-69675040D01*
X158063281Y-69781001D01*
X157904698Y-69886962D01*
X157695961Y-70095699D01*
X157531958Y-70341148D01*
X157418990Y-70613876D01*
X157361400Y-70903402D01*
X157361400Y-71198600D01*
X157418990Y-71488126D01*
X157531958Y-71760854D01*
X157695961Y-72006303D01*
X157904698Y-72215040D01*
X158063281Y-72321001D01*
X157904698Y-72426962D01*
X157695961Y-72635699D01*
X157531958Y-72881148D01*
X157418990Y-73153876D01*
X157361400Y-73443402D01*
X157361400Y-73738600D01*
X157418990Y-74028126D01*
X157531958Y-74300854D01*
X157695961Y-74546303D01*
X157904698Y-74755040D01*
X158063281Y-74861001D01*
X157904698Y-74966962D01*
X157695961Y-75175699D01*
X157531958Y-75421148D01*
X157418990Y-75693876D01*
X157361400Y-75983402D01*
X157361400Y-76278600D01*
X157418990Y-76568126D01*
X157531958Y-76840854D01*
X157695961Y-77086303D01*
X157904698Y-77295040D01*
X158063281Y-77401001D01*
X157904698Y-77506962D01*
X157695961Y-77715699D01*
X157531958Y-77961148D01*
X157418990Y-78233876D01*
X157361400Y-78523402D01*
X157361400Y-78818600D01*
X157418990Y-79108126D01*
X157531958Y-79380854D01*
X157695961Y-79626303D01*
X157904698Y-79835040D01*
X158063281Y-79941001D01*
X157904698Y-80046962D01*
X157695961Y-80255699D01*
X157531958Y-80501148D01*
X157418990Y-80773876D01*
X157361400Y-81063402D01*
X157361400Y-81358600D01*
X157418990Y-81648126D01*
X157531958Y-81920854D01*
X157695961Y-82166303D01*
X157904698Y-82375040D01*
X158063281Y-82481001D01*
X157904698Y-82586962D01*
X157695961Y-82795699D01*
X157531958Y-83041148D01*
X157418990Y-83313876D01*
X157361400Y-83603402D01*
X157361400Y-83898600D01*
X157418990Y-84188126D01*
X157531958Y-84460854D01*
X157695961Y-84706303D01*
X157904698Y-84915040D01*
X158063281Y-85021001D01*
X157904698Y-85126962D01*
X157695961Y-85335699D01*
X157531958Y-85581148D01*
X157418990Y-85853876D01*
X157361400Y-86143402D01*
X157361400Y-86438600D01*
X157418990Y-86728126D01*
X157531958Y-87000854D01*
X157695961Y-87246303D01*
X157904698Y-87455040D01*
X158063281Y-87561001D01*
X157904698Y-87666962D01*
X157695961Y-87875699D01*
X157531958Y-88121148D01*
X157418990Y-88393876D01*
X157361400Y-88683402D01*
X157361400Y-88978600D01*
X157418990Y-89268126D01*
X157531958Y-89540854D01*
X157695961Y-89786303D01*
X157904698Y-89995040D01*
X158063281Y-90101001D01*
X157904698Y-90206962D01*
X157695961Y-90415699D01*
X157531958Y-90661148D01*
X157418990Y-90933876D01*
X157361400Y-91223402D01*
X157361400Y-91518600D01*
X157418990Y-91808126D01*
X157531958Y-92080854D01*
X157695961Y-92326303D01*
X157904698Y-92535040D01*
X158065813Y-92642693D01*
X157849707Y-92804147D01*
X157653183Y-93022513D01*
X157503036Y-93275023D01*
X157405037Y-93551974D01*
X157525536Y-93784001D01*
X158733000Y-93784001D01*
X158733000Y-93764001D01*
X158987000Y-93764001D01*
X158987000Y-93784001D01*
X160194464Y-93784001D01*
X160314963Y-93551974D01*
X160216964Y-93275023D01*
X160101000Y-93080000D01*
X169011928Y-93080000D01*
X169011928Y-94880000D01*
X169024188Y-95004482D01*
X169060498Y-95124180D01*
X169119463Y-95234494D01*
X169198815Y-95331185D01*
X169295506Y-95410537D01*
X169405820Y-95469502D01*
X169525518Y-95505812D01*
X169650000Y-95518072D01*
X173250000Y-95518072D01*
X173374482Y-95505812D01*
X173494180Y-95469502D01*
X173604494Y-95410537D01*
X173701185Y-95331185D01*
X173780537Y-95234494D01*
X173839502Y-95124180D01*
X173875812Y-95004482D01*
X173888072Y-94880000D01*
X182981928Y-94880000D01*
X182994188Y-95004482D01*
X183030498Y-95124180D01*
X183089463Y-95234494D01*
X183168815Y-95331185D01*
X183265506Y-95410537D01*
X183375820Y-95469502D01*
X183495518Y-95505812D01*
X183620000Y-95518072D01*
X185134250Y-95515000D01*
X185293000Y-95356250D01*
X185293000Y-94107000D01*
X185547000Y-94107000D01*
X185547000Y-95356250D01*
X185705750Y-95515000D01*
X187220000Y-95518072D01*
X187344482Y-95505812D01*
X187464180Y-95469502D01*
X187574494Y-95410537D01*
X187671185Y-95331185D01*
X187750537Y-95234494D01*
X187809502Y-95124180D01*
X187845812Y-95004482D01*
X187858072Y-94880000D01*
X187855000Y-94265750D01*
X187696250Y-94107000D01*
X185547000Y-94107000D01*
X185293000Y-94107000D01*
X183143750Y-94107000D01*
X182985000Y-94265750D01*
X182981928Y-94880000D01*
X173888072Y-94880000D01*
X173888072Y-93080000D01*
X182981928Y-93080000D01*
X182985000Y-93694250D01*
X183143750Y-93853000D01*
X185293000Y-93853000D01*
X185293000Y-92603750D01*
X185547000Y-92603750D01*
X185547000Y-93853000D01*
X187696250Y-93853000D01*
X187855000Y-93694250D01*
X187858072Y-93080000D01*
X187845812Y-92955518D01*
X187809502Y-92835820D01*
X187750537Y-92725506D01*
X187671185Y-92628815D01*
X187574494Y-92549463D01*
X187464180Y-92490498D01*
X187344482Y-92454188D01*
X187220000Y-92441928D01*
X185705750Y-92445000D01*
X185547000Y-92603750D01*
X185293000Y-92603750D01*
X185134250Y-92445000D01*
X183620000Y-92441928D01*
X183495518Y-92454188D01*
X183375820Y-92490498D01*
X183265506Y-92549463D01*
X183168815Y-92628815D01*
X183089463Y-92725506D01*
X183030498Y-92835820D01*
X182994188Y-92955518D01*
X182981928Y-93080000D01*
X173888072Y-93080000D01*
X173875812Y-92955518D01*
X173839502Y-92835820D01*
X173780537Y-92725506D01*
X173701185Y-92628815D01*
X173604494Y-92549463D01*
X173494180Y-92490498D01*
X173374482Y-92454188D01*
X173250000Y-92441928D01*
X169650000Y-92441928D01*
X169525518Y-92454188D01*
X169405820Y-92490498D01*
X169295506Y-92549463D01*
X169198815Y-92628815D01*
X169119463Y-92725506D01*
X169060498Y-92835820D01*
X169024188Y-92955518D01*
X169011928Y-93080000D01*
X160101000Y-93080000D01*
X160066817Y-93022513D01*
X159870293Y-92804147D01*
X159654187Y-92642693D01*
X159815302Y-92535040D01*
X160024039Y-92326303D01*
X160188042Y-92080854D01*
X160301010Y-91808126D01*
X160358600Y-91518600D01*
X160358600Y-91223402D01*
X160301010Y-90933876D01*
X160188042Y-90661148D01*
X160024039Y-90415699D01*
X159815302Y-90206962D01*
X159759985Y-90170000D01*
X169007573Y-90170000D01*
X169037210Y-90470913D01*
X169124983Y-90760261D01*
X169267519Y-91026927D01*
X169459339Y-91260661D01*
X169693073Y-91452481D01*
X169959739Y-91595017D01*
X170249087Y-91682790D01*
X170474592Y-91705000D01*
X172425408Y-91705000D01*
X172650913Y-91682790D01*
X172940261Y-91595017D01*
X173206927Y-91452481D01*
X173440661Y-91260661D01*
X173632481Y-91026927D01*
X173775017Y-90760261D01*
X173843428Y-90534740D01*
X183028964Y-90534740D01*
X183053245Y-90640087D01*
X183173138Y-90917204D01*
X183344790Y-91165606D01*
X183561604Y-91375748D01*
X183815249Y-91539554D01*
X184095977Y-91650729D01*
X184393000Y-91705000D01*
X185293000Y-91705000D01*
X185293000Y-90297000D01*
X185547000Y-90297000D01*
X185547000Y-91705000D01*
X186447000Y-91705000D01*
X186744023Y-91650729D01*
X187024751Y-91539554D01*
X187278396Y-91375748D01*
X187495210Y-91165606D01*
X187666862Y-90917204D01*
X187786755Y-90640087D01*
X187811036Y-90534740D01*
X187690378Y-90297000D01*
X185547000Y-90297000D01*
X185293000Y-90297000D01*
X183149622Y-90297000D01*
X183028964Y-90534740D01*
X173843428Y-90534740D01*
X173862790Y-90470913D01*
X173892427Y-90170000D01*
X173862790Y-89869087D01*
X173843429Y-89805260D01*
X183028964Y-89805260D01*
X183149622Y-90043000D01*
X185293000Y-90043000D01*
X185293000Y-88635000D01*
X185547000Y-88635000D01*
X185547000Y-90043000D01*
X187690378Y-90043000D01*
X187811036Y-89805260D01*
X187786755Y-89699913D01*
X187666862Y-89422796D01*
X187495210Y-89174394D01*
X187278396Y-88964252D01*
X187024751Y-88800446D01*
X186744023Y-88689271D01*
X186447000Y-88635000D01*
X185547000Y-88635000D01*
X185293000Y-88635000D01*
X184393000Y-88635000D01*
X184095977Y-88689271D01*
X183815249Y-88800446D01*
X183561604Y-88964252D01*
X183344790Y-89174394D01*
X183173138Y-89422796D01*
X183053245Y-89699913D01*
X183028964Y-89805260D01*
X173843429Y-89805260D01*
X173775017Y-89579739D01*
X173632481Y-89313073D01*
X173440661Y-89079339D01*
X173206927Y-88887519D01*
X172940261Y-88744983D01*
X172650913Y-88657210D01*
X172425408Y-88635000D01*
X170474592Y-88635000D01*
X170249087Y-88657210D01*
X169959739Y-88744983D01*
X169693073Y-88887519D01*
X169459339Y-89079339D01*
X169267519Y-89313073D01*
X169124983Y-89579739D01*
X169037210Y-89869087D01*
X169007573Y-90170000D01*
X159759985Y-90170000D01*
X159656719Y-90101001D01*
X159815302Y-89995040D01*
X160024039Y-89786303D01*
X160188042Y-89540854D01*
X160301010Y-89268126D01*
X160358600Y-88978600D01*
X160358600Y-88683402D01*
X160301010Y-88393876D01*
X160188042Y-88121148D01*
X160024039Y-87875699D01*
X159815302Y-87666962D01*
X159656719Y-87561001D01*
X159815302Y-87455040D01*
X160024039Y-87246303D01*
X160188042Y-87000854D01*
X160301010Y-86728126D01*
X160358600Y-86438600D01*
X160358600Y-86360000D01*
X169007573Y-86360000D01*
X169037210Y-86660913D01*
X169124983Y-86950261D01*
X169267519Y-87216927D01*
X169459339Y-87450661D01*
X169693073Y-87642481D01*
X169959739Y-87785017D01*
X170249087Y-87872790D01*
X170474592Y-87895000D01*
X172425408Y-87895000D01*
X172650913Y-87872790D01*
X172940261Y-87785017D01*
X173206927Y-87642481D01*
X173440661Y-87450661D01*
X173632481Y-87216927D01*
X173775017Y-86950261D01*
X173843428Y-86724740D01*
X183028964Y-86724740D01*
X183053245Y-86830087D01*
X183173138Y-87107204D01*
X183344790Y-87355606D01*
X183561604Y-87565748D01*
X183815249Y-87729554D01*
X184095977Y-87840729D01*
X184393000Y-87895000D01*
X185293000Y-87895000D01*
X185293000Y-86487000D01*
X185547000Y-86487000D01*
X185547000Y-87895000D01*
X186447000Y-87895000D01*
X186744023Y-87840729D01*
X187024751Y-87729554D01*
X187278396Y-87565748D01*
X187495210Y-87355606D01*
X187666862Y-87107204D01*
X187786755Y-86830087D01*
X187811036Y-86724740D01*
X187690378Y-86487000D01*
X185547000Y-86487000D01*
X185293000Y-86487000D01*
X183149622Y-86487000D01*
X183028964Y-86724740D01*
X173843428Y-86724740D01*
X173862790Y-86660913D01*
X173892427Y-86360000D01*
X173862790Y-86059087D01*
X173843429Y-85995260D01*
X183028964Y-85995260D01*
X183149622Y-86233000D01*
X185293000Y-86233000D01*
X185293000Y-84825000D01*
X185547000Y-84825000D01*
X185547000Y-86233000D01*
X187690378Y-86233000D01*
X187811036Y-85995260D01*
X187786755Y-85889913D01*
X187666862Y-85612796D01*
X187495210Y-85364394D01*
X187278396Y-85154252D01*
X187024751Y-84990446D01*
X186744023Y-84879271D01*
X186447000Y-84825000D01*
X185547000Y-84825000D01*
X185293000Y-84825000D01*
X184393000Y-84825000D01*
X184095977Y-84879271D01*
X183815249Y-84990446D01*
X183561604Y-85154252D01*
X183344790Y-85364394D01*
X183173138Y-85612796D01*
X183053245Y-85889913D01*
X183028964Y-85995260D01*
X173843429Y-85995260D01*
X173775017Y-85769739D01*
X173632481Y-85503073D01*
X173440661Y-85269339D01*
X173206927Y-85077519D01*
X172940261Y-84934983D01*
X172650913Y-84847210D01*
X172425408Y-84825000D01*
X170474592Y-84825000D01*
X170249087Y-84847210D01*
X169959739Y-84934983D01*
X169693073Y-85077519D01*
X169459339Y-85269339D01*
X169267519Y-85503073D01*
X169124983Y-85769739D01*
X169037210Y-86059087D01*
X169007573Y-86360000D01*
X160358600Y-86360000D01*
X160358600Y-86143402D01*
X160301010Y-85853876D01*
X160188042Y-85581148D01*
X160024039Y-85335699D01*
X159815302Y-85126962D01*
X159656719Y-85021001D01*
X159815302Y-84915040D01*
X160024039Y-84706303D01*
X160188042Y-84460854D01*
X160301010Y-84188126D01*
X160358600Y-83898600D01*
X160358600Y-83603402D01*
X160301010Y-83313876D01*
X160188042Y-83041148D01*
X160024039Y-82795699D01*
X159815302Y-82586962D01*
X159759985Y-82550000D01*
X169007573Y-82550000D01*
X169037210Y-82850913D01*
X169124983Y-83140261D01*
X169267519Y-83406927D01*
X169459339Y-83640661D01*
X169693073Y-83832481D01*
X169959739Y-83975017D01*
X170249087Y-84062790D01*
X170474592Y-84085000D01*
X172425408Y-84085000D01*
X172650913Y-84062790D01*
X172940261Y-83975017D01*
X173206927Y-83832481D01*
X173440661Y-83640661D01*
X173632481Y-83406927D01*
X173775017Y-83140261D01*
X173843428Y-82914740D01*
X183028964Y-82914740D01*
X183053245Y-83020087D01*
X183173138Y-83297204D01*
X183344790Y-83545606D01*
X183561604Y-83755748D01*
X183815249Y-83919554D01*
X184095977Y-84030729D01*
X184393000Y-84085000D01*
X185293000Y-84085000D01*
X185293000Y-82677000D01*
X185547000Y-82677000D01*
X185547000Y-84085000D01*
X186447000Y-84085000D01*
X186744023Y-84030729D01*
X187024751Y-83919554D01*
X187278396Y-83755748D01*
X187495210Y-83545606D01*
X187666862Y-83297204D01*
X187786755Y-83020087D01*
X187811036Y-82914740D01*
X187690378Y-82677000D01*
X185547000Y-82677000D01*
X185293000Y-82677000D01*
X183149622Y-82677000D01*
X183028964Y-82914740D01*
X173843428Y-82914740D01*
X173862790Y-82850913D01*
X173892427Y-82550000D01*
X173862790Y-82249087D01*
X173843429Y-82185260D01*
X183028964Y-82185260D01*
X183149622Y-82423000D01*
X185293000Y-82423000D01*
X185293000Y-81015000D01*
X185547000Y-81015000D01*
X185547000Y-82423000D01*
X187690378Y-82423000D01*
X187811036Y-82185260D01*
X187786755Y-82079913D01*
X187666862Y-81802796D01*
X187495210Y-81554394D01*
X187278396Y-81344252D01*
X187024751Y-81180446D01*
X186744023Y-81069271D01*
X186447000Y-81015000D01*
X185547000Y-81015000D01*
X185293000Y-81015000D01*
X184393000Y-81015000D01*
X184095977Y-81069271D01*
X183815249Y-81180446D01*
X183561604Y-81344252D01*
X183344790Y-81554394D01*
X183173138Y-81802796D01*
X183053245Y-82079913D01*
X183028964Y-82185260D01*
X173843429Y-82185260D01*
X173775017Y-81959739D01*
X173632481Y-81693073D01*
X173440661Y-81459339D01*
X173206927Y-81267519D01*
X172940261Y-81124983D01*
X172650913Y-81037210D01*
X172425408Y-81015000D01*
X170474592Y-81015000D01*
X170249087Y-81037210D01*
X169959739Y-81124983D01*
X169693073Y-81267519D01*
X169459339Y-81459339D01*
X169267519Y-81693073D01*
X169124983Y-81959739D01*
X169037210Y-82249087D01*
X169007573Y-82550000D01*
X159759985Y-82550000D01*
X159656719Y-82481001D01*
X159815302Y-82375040D01*
X160024039Y-82166303D01*
X160188042Y-81920854D01*
X160301010Y-81648126D01*
X160358600Y-81358600D01*
X160358600Y-81063402D01*
X160301010Y-80773876D01*
X160188042Y-80501148D01*
X160024039Y-80255699D01*
X159815302Y-80046962D01*
X159656719Y-79941001D01*
X159815302Y-79835040D01*
X160024039Y-79626303D01*
X160188042Y-79380854D01*
X160301010Y-79108126D01*
X160358600Y-78818600D01*
X160358600Y-78740000D01*
X169007573Y-78740000D01*
X169037210Y-79040913D01*
X169124983Y-79330261D01*
X169267519Y-79596927D01*
X169459339Y-79830661D01*
X169693073Y-80022481D01*
X169959739Y-80165017D01*
X170249087Y-80252790D01*
X170474592Y-80275000D01*
X172425408Y-80275000D01*
X172650913Y-80252790D01*
X172940261Y-80165017D01*
X173206927Y-80022481D01*
X173440661Y-79830661D01*
X173632481Y-79596927D01*
X173775017Y-79330261D01*
X173843428Y-79104740D01*
X183028964Y-79104740D01*
X183053245Y-79210087D01*
X183173138Y-79487204D01*
X183344790Y-79735606D01*
X183561604Y-79945748D01*
X183815249Y-80109554D01*
X184095977Y-80220729D01*
X184393000Y-80275000D01*
X185293000Y-80275000D01*
X185293000Y-78867000D01*
X185547000Y-78867000D01*
X185547000Y-80275000D01*
X186447000Y-80275000D01*
X186744023Y-80220729D01*
X187024751Y-80109554D01*
X187278396Y-79945748D01*
X187495210Y-79735606D01*
X187666862Y-79487204D01*
X187786755Y-79210087D01*
X187811036Y-79104740D01*
X187690378Y-78867000D01*
X185547000Y-78867000D01*
X185293000Y-78867000D01*
X183149622Y-78867000D01*
X183028964Y-79104740D01*
X173843428Y-79104740D01*
X173862790Y-79040913D01*
X173892427Y-78740000D01*
X173862790Y-78439087D01*
X173843429Y-78375260D01*
X183028964Y-78375260D01*
X183149622Y-78613000D01*
X185293000Y-78613000D01*
X185293000Y-77205000D01*
X185547000Y-77205000D01*
X185547000Y-78613000D01*
X187690378Y-78613000D01*
X187811036Y-78375260D01*
X187786755Y-78269913D01*
X187666862Y-77992796D01*
X187495210Y-77744394D01*
X187278396Y-77534252D01*
X187024751Y-77370446D01*
X186744023Y-77259271D01*
X186447000Y-77205000D01*
X185547000Y-77205000D01*
X185293000Y-77205000D01*
X184393000Y-77205000D01*
X184095977Y-77259271D01*
X183815249Y-77370446D01*
X183561604Y-77534252D01*
X183344790Y-77744394D01*
X183173138Y-77992796D01*
X183053245Y-78269913D01*
X183028964Y-78375260D01*
X173843429Y-78375260D01*
X173775017Y-78149739D01*
X173632481Y-77883073D01*
X173440661Y-77649339D01*
X173206927Y-77457519D01*
X172940261Y-77314983D01*
X172650913Y-77227210D01*
X172425408Y-77205000D01*
X170474592Y-77205000D01*
X170249087Y-77227210D01*
X169959739Y-77314983D01*
X169693073Y-77457519D01*
X169459339Y-77649339D01*
X169267519Y-77883073D01*
X169124983Y-78149739D01*
X169037210Y-78439087D01*
X169007573Y-78740000D01*
X160358600Y-78740000D01*
X160358600Y-78523402D01*
X160301010Y-78233876D01*
X160188042Y-77961148D01*
X160024039Y-77715699D01*
X159815302Y-77506962D01*
X159656719Y-77401001D01*
X159815302Y-77295040D01*
X160024039Y-77086303D01*
X160188042Y-76840854D01*
X160301010Y-76568126D01*
X160358600Y-76278600D01*
X160358600Y-75983402D01*
X160301010Y-75693876D01*
X160188042Y-75421148D01*
X160024039Y-75175699D01*
X159815302Y-74966962D01*
X159759985Y-74930000D01*
X169007573Y-74930000D01*
X169037210Y-75230913D01*
X169124983Y-75520261D01*
X169267519Y-75786927D01*
X169459339Y-76020661D01*
X169693073Y-76212481D01*
X169959739Y-76355017D01*
X170249087Y-76442790D01*
X170474592Y-76465000D01*
X172425408Y-76465000D01*
X172650913Y-76442790D01*
X172940261Y-76355017D01*
X173206927Y-76212481D01*
X173440661Y-76020661D01*
X173632481Y-75786927D01*
X173775017Y-75520261D01*
X173843428Y-75294740D01*
X183028964Y-75294740D01*
X183053245Y-75400087D01*
X183173138Y-75677204D01*
X183344790Y-75925606D01*
X183561604Y-76135748D01*
X183815249Y-76299554D01*
X184095977Y-76410729D01*
X184393000Y-76465000D01*
X185293000Y-76465000D01*
X185293000Y-75057000D01*
X185547000Y-75057000D01*
X185547000Y-76465000D01*
X186447000Y-76465000D01*
X186744023Y-76410729D01*
X187024751Y-76299554D01*
X187278396Y-76135748D01*
X187495210Y-75925606D01*
X187666862Y-75677204D01*
X187786755Y-75400087D01*
X187811036Y-75294740D01*
X187690378Y-75057000D01*
X185547000Y-75057000D01*
X185293000Y-75057000D01*
X183149622Y-75057000D01*
X183028964Y-75294740D01*
X173843428Y-75294740D01*
X173862790Y-75230913D01*
X173892427Y-74930000D01*
X173862790Y-74629087D01*
X173843429Y-74565260D01*
X183028964Y-74565260D01*
X183149622Y-74803000D01*
X185293000Y-74803000D01*
X185293000Y-73395000D01*
X185547000Y-73395000D01*
X185547000Y-74803000D01*
X187690378Y-74803000D01*
X187811036Y-74565260D01*
X187786755Y-74459913D01*
X187666862Y-74182796D01*
X187495210Y-73934394D01*
X187278396Y-73724252D01*
X187024751Y-73560446D01*
X186744023Y-73449271D01*
X186447000Y-73395000D01*
X185547000Y-73395000D01*
X185293000Y-73395000D01*
X184393000Y-73395000D01*
X184095977Y-73449271D01*
X183815249Y-73560446D01*
X183561604Y-73724252D01*
X183344790Y-73934394D01*
X183173138Y-74182796D01*
X183053245Y-74459913D01*
X183028964Y-74565260D01*
X173843429Y-74565260D01*
X173775017Y-74339739D01*
X173632481Y-74073073D01*
X173440661Y-73839339D01*
X173206927Y-73647519D01*
X172940261Y-73504983D01*
X172650913Y-73417210D01*
X172425408Y-73395000D01*
X170474592Y-73395000D01*
X170249087Y-73417210D01*
X169959739Y-73504983D01*
X169693073Y-73647519D01*
X169459339Y-73839339D01*
X169267519Y-74073073D01*
X169124983Y-74339739D01*
X169037210Y-74629087D01*
X169007573Y-74930000D01*
X159759985Y-74930000D01*
X159656719Y-74861001D01*
X159815302Y-74755040D01*
X160024039Y-74546303D01*
X160188042Y-74300854D01*
X160301010Y-74028126D01*
X160358600Y-73738600D01*
X160358600Y-73443402D01*
X160301010Y-73153876D01*
X160188042Y-72881148D01*
X160024039Y-72635699D01*
X159815302Y-72426962D01*
X159656719Y-72321001D01*
X159815302Y-72215040D01*
X160024039Y-72006303D01*
X160188042Y-71760854D01*
X160301010Y-71488126D01*
X160358600Y-71198600D01*
X160358600Y-71120000D01*
X169007573Y-71120000D01*
X169037210Y-71420913D01*
X169124983Y-71710261D01*
X169267519Y-71976927D01*
X169459339Y-72210661D01*
X169693073Y-72402481D01*
X169959739Y-72545017D01*
X170249087Y-72632790D01*
X170474592Y-72655000D01*
X172425408Y-72655000D01*
X172650913Y-72632790D01*
X172940261Y-72545017D01*
X173206927Y-72402481D01*
X173440661Y-72210661D01*
X173632481Y-71976927D01*
X173775017Y-71710261D01*
X173843428Y-71484740D01*
X183028964Y-71484740D01*
X183053245Y-71590087D01*
X183173138Y-71867204D01*
X183344790Y-72115606D01*
X183561604Y-72325748D01*
X183815249Y-72489554D01*
X184095977Y-72600729D01*
X184393000Y-72655000D01*
X185293000Y-72655000D01*
X185293000Y-71247000D01*
X185547000Y-71247000D01*
X185547000Y-72655000D01*
X186447000Y-72655000D01*
X186744023Y-72600729D01*
X187024751Y-72489554D01*
X187278396Y-72325748D01*
X187495210Y-72115606D01*
X187666862Y-71867204D01*
X187786755Y-71590087D01*
X187811036Y-71484740D01*
X187690378Y-71247000D01*
X185547000Y-71247000D01*
X185293000Y-71247000D01*
X183149622Y-71247000D01*
X183028964Y-71484740D01*
X173843428Y-71484740D01*
X173862790Y-71420913D01*
X173892427Y-71120000D01*
X173862790Y-70819087D01*
X173843429Y-70755260D01*
X183028964Y-70755260D01*
X183149622Y-70993000D01*
X185293000Y-70993000D01*
X185293000Y-69585000D01*
X185547000Y-69585000D01*
X185547000Y-70993000D01*
X187690378Y-70993000D01*
X187811036Y-70755260D01*
X187786755Y-70649913D01*
X187666862Y-70372796D01*
X187495210Y-70124394D01*
X187278396Y-69914252D01*
X187024751Y-69750446D01*
X186744023Y-69639271D01*
X186447000Y-69585000D01*
X185547000Y-69585000D01*
X185293000Y-69585000D01*
X184393000Y-69585000D01*
X184095977Y-69639271D01*
X183815249Y-69750446D01*
X183561604Y-69914252D01*
X183344790Y-70124394D01*
X183173138Y-70372796D01*
X183053245Y-70649913D01*
X183028964Y-70755260D01*
X173843429Y-70755260D01*
X173775017Y-70529739D01*
X173632481Y-70263073D01*
X173440661Y-70029339D01*
X173206927Y-69837519D01*
X172940261Y-69694983D01*
X172650913Y-69607210D01*
X172425408Y-69585000D01*
X170474592Y-69585000D01*
X170249087Y-69607210D01*
X169959739Y-69694983D01*
X169693073Y-69837519D01*
X169459339Y-70029339D01*
X169267519Y-70263073D01*
X169124983Y-70529739D01*
X169037210Y-70819087D01*
X169007573Y-71120000D01*
X160358600Y-71120000D01*
X160358600Y-70903402D01*
X160301010Y-70613876D01*
X160188042Y-70341148D01*
X160024039Y-70095699D01*
X159815302Y-69886962D01*
X159656719Y-69781001D01*
X159815302Y-69675040D01*
X160024039Y-69466303D01*
X160188042Y-69220854D01*
X160301010Y-68948126D01*
X160358600Y-68658600D01*
X160358600Y-68363402D01*
X160301010Y-68073876D01*
X160188042Y-67801148D01*
X160024039Y-67555699D01*
X159815302Y-67346962D01*
X159759985Y-67310000D01*
X169007573Y-67310000D01*
X169037210Y-67610913D01*
X169124983Y-67900261D01*
X169267519Y-68166927D01*
X169459339Y-68400661D01*
X169693073Y-68592481D01*
X169959739Y-68735017D01*
X170249087Y-68822790D01*
X170474592Y-68845000D01*
X172425408Y-68845000D01*
X172650913Y-68822790D01*
X172940261Y-68735017D01*
X173206927Y-68592481D01*
X173440661Y-68400661D01*
X173632481Y-68166927D01*
X173775017Y-67900261D01*
X173843428Y-67674740D01*
X183028964Y-67674740D01*
X183053245Y-67780087D01*
X183173138Y-68057204D01*
X183344790Y-68305606D01*
X183561604Y-68515748D01*
X183815249Y-68679554D01*
X184095977Y-68790729D01*
X184393000Y-68845000D01*
X185293000Y-68845000D01*
X185293000Y-67437000D01*
X185547000Y-67437000D01*
X185547000Y-68845000D01*
X186447000Y-68845000D01*
X186744023Y-68790729D01*
X187024751Y-68679554D01*
X187278396Y-68515748D01*
X187495210Y-68305606D01*
X187666862Y-68057204D01*
X187786755Y-67780087D01*
X187811036Y-67674740D01*
X187690378Y-67437000D01*
X185547000Y-67437000D01*
X185293000Y-67437000D01*
X183149622Y-67437000D01*
X183028964Y-67674740D01*
X173843428Y-67674740D01*
X173862790Y-67610913D01*
X173892427Y-67310000D01*
X173862790Y-67009087D01*
X173843429Y-66945260D01*
X183028964Y-66945260D01*
X183149622Y-67183000D01*
X185293000Y-67183000D01*
X185293000Y-65775000D01*
X185547000Y-65775000D01*
X185547000Y-67183000D01*
X187690378Y-67183000D01*
X187811036Y-66945260D01*
X187786755Y-66839913D01*
X187666862Y-66562796D01*
X187495210Y-66314394D01*
X187278396Y-66104252D01*
X187024751Y-65940446D01*
X186744023Y-65829271D01*
X186447000Y-65775000D01*
X185547000Y-65775000D01*
X185293000Y-65775000D01*
X184393000Y-65775000D01*
X184095977Y-65829271D01*
X183815249Y-65940446D01*
X183561604Y-66104252D01*
X183344790Y-66314394D01*
X183173138Y-66562796D01*
X183053245Y-66839913D01*
X183028964Y-66945260D01*
X173843429Y-66945260D01*
X173775017Y-66719739D01*
X173632481Y-66453073D01*
X173440661Y-66219339D01*
X173206927Y-66027519D01*
X172940261Y-65884983D01*
X172650913Y-65797210D01*
X172425408Y-65775000D01*
X170474592Y-65775000D01*
X170249087Y-65797210D01*
X169959739Y-65884983D01*
X169693073Y-66027519D01*
X169459339Y-66219339D01*
X169267519Y-66453073D01*
X169124983Y-66719739D01*
X169037210Y-67009087D01*
X169007573Y-67310000D01*
X159759985Y-67310000D01*
X159656719Y-67241001D01*
X159815302Y-67135040D01*
X160024039Y-66926303D01*
X160188042Y-66680854D01*
X160301010Y-66408126D01*
X160358600Y-66118600D01*
X160358600Y-65823402D01*
X160301010Y-65533876D01*
X160188042Y-65261148D01*
X160024039Y-65015699D01*
X159815302Y-64806962D01*
X159569853Y-64642959D01*
X159297125Y-64529991D01*
X159227190Y-64516080D01*
X159401413Y-64443914D01*
X159588620Y-64318827D01*
X159747826Y-64159621D01*
X159872913Y-63972414D01*
X159959075Y-63764402D01*
X160003000Y-63543577D01*
X160003000Y-63500000D01*
X169007573Y-63500000D01*
X169037210Y-63800913D01*
X169124983Y-64090261D01*
X169267519Y-64356927D01*
X169459339Y-64590661D01*
X169693073Y-64782481D01*
X169959739Y-64925017D01*
X170249087Y-65012790D01*
X170474592Y-65035000D01*
X172425408Y-65035000D01*
X172650913Y-65012790D01*
X172940261Y-64925017D01*
X173206927Y-64782481D01*
X173440661Y-64590661D01*
X173632481Y-64356927D01*
X173775017Y-64090261D01*
X173843428Y-63864740D01*
X183028964Y-63864740D01*
X183053245Y-63970087D01*
X183173138Y-64247204D01*
X183344790Y-64495606D01*
X183561604Y-64705748D01*
X183815249Y-64869554D01*
X184095977Y-64980729D01*
X184393000Y-65035000D01*
X185293000Y-65035000D01*
X185293000Y-63627000D01*
X185547000Y-63627000D01*
X185547000Y-65035000D01*
X186447000Y-65035000D01*
X186744023Y-64980729D01*
X187024751Y-64869554D01*
X187278396Y-64705748D01*
X187495210Y-64495606D01*
X187666862Y-64247204D01*
X187786755Y-63970087D01*
X187811036Y-63864740D01*
X187690378Y-63627000D01*
X185547000Y-63627000D01*
X185293000Y-63627000D01*
X183149622Y-63627000D01*
X183028964Y-63864740D01*
X173843428Y-63864740D01*
X173862790Y-63800913D01*
X173892427Y-63500000D01*
X173862790Y-63199087D01*
X173843429Y-63135260D01*
X183028964Y-63135260D01*
X183149622Y-63373000D01*
X185293000Y-63373000D01*
X185293000Y-61965000D01*
X185547000Y-61965000D01*
X185547000Y-63373000D01*
X187690378Y-63373000D01*
X187811036Y-63135260D01*
X187786755Y-63029913D01*
X187666862Y-62752796D01*
X187495210Y-62504394D01*
X187278396Y-62294252D01*
X187024751Y-62130446D01*
X186744023Y-62019271D01*
X186447000Y-61965000D01*
X185547000Y-61965000D01*
X185293000Y-61965000D01*
X184393000Y-61965000D01*
X184095977Y-62019271D01*
X183815249Y-62130446D01*
X183561604Y-62294252D01*
X183344790Y-62504394D01*
X183173138Y-62752796D01*
X183053245Y-63029913D01*
X183028964Y-63135260D01*
X173843429Y-63135260D01*
X173775017Y-62909739D01*
X173632481Y-62643073D01*
X173440661Y-62409339D01*
X173206927Y-62217519D01*
X172940261Y-62074983D01*
X172650913Y-61987210D01*
X172425408Y-61965000D01*
X170474592Y-61965000D01*
X170249087Y-61987210D01*
X169959739Y-62074983D01*
X169693073Y-62217519D01*
X169459339Y-62409339D01*
X169267519Y-62643073D01*
X169124983Y-62909739D01*
X169037210Y-63199087D01*
X169007573Y-63500000D01*
X160003000Y-63500000D01*
X160003000Y-63318425D01*
X159959075Y-63097600D01*
X159872913Y-62889588D01*
X159747826Y-62702381D01*
X159588620Y-62543175D01*
X159401413Y-62418088D01*
X159193401Y-62331926D01*
X158972576Y-62288001D01*
X158747424Y-62288001D01*
X158526599Y-62331926D01*
X158318587Y-62418088D01*
X158131380Y-62543175D01*
X157972174Y-62702381D01*
X157847087Y-62889588D01*
X157760925Y-63097600D01*
X157717000Y-63318425D01*
X157717000Y-63543577D01*
X157760925Y-63764402D01*
X157847087Y-63972414D01*
X157972174Y-64159621D01*
X158131380Y-64318827D01*
X158318587Y-64443914D01*
X158492810Y-64516080D01*
X158422875Y-64529991D01*
X158150147Y-64642959D01*
X157904698Y-64806962D01*
X157695961Y-65015699D01*
X157531958Y-65261148D01*
X157418990Y-65533876D01*
X157361400Y-65823402D01*
X153365000Y-65823402D01*
X153365000Y-65819872D01*
X153279110Y-65388075D01*
X153110631Y-64981331D01*
X152866038Y-64615271D01*
X152554729Y-64303962D01*
X152188669Y-64059369D01*
X151781925Y-63890890D01*
X151350128Y-63805000D01*
X150909872Y-63805000D01*
X150478075Y-63890890D01*
X150071331Y-64059369D01*
X149705271Y-64303962D01*
X149393962Y-64615271D01*
X149149369Y-64981331D01*
X148980890Y-65388075D01*
X148895000Y-65819872D01*
X145117898Y-65819872D01*
X145061010Y-65533876D01*
X144948042Y-65261148D01*
X144784039Y-65015699D01*
X144575302Y-64806962D01*
X144329853Y-64642959D01*
X144057125Y-64529991D01*
X143987190Y-64516080D01*
X144161413Y-64443914D01*
X144348620Y-64318827D01*
X144507826Y-64159621D01*
X144632913Y-63972414D01*
X144719075Y-63764402D01*
X144763000Y-63543577D01*
X144763000Y-63318425D01*
X144719075Y-63097600D01*
X144632913Y-62889588D01*
X144507826Y-62702381D01*
X144348620Y-62543175D01*
X144161413Y-62418088D01*
X143953401Y-62331926D01*
X143732576Y-62288001D01*
X143507424Y-62288001D01*
X143286599Y-62331926D01*
X143078587Y-62418088D01*
X142891380Y-62543175D01*
X142732174Y-62702381D01*
X142607087Y-62889588D01*
X142520925Y-63097600D01*
X142477000Y-63318425D01*
X142477000Y-63543577D01*
X142520925Y-63764402D01*
X142607087Y-63972414D01*
X142732174Y-64159621D01*
X142891380Y-64318827D01*
X143078587Y-64443914D01*
X143252810Y-64516080D01*
X143182875Y-64529991D01*
X142910147Y-64642959D01*
X142664698Y-64806962D01*
X142455961Y-65015699D01*
X142291958Y-65261148D01*
X142178990Y-65533876D01*
X142121400Y-65823402D01*
X140582477Y-65823402D01*
X140519398Y-65797274D01*
X140319439Y-65757500D01*
X140292658Y-65757500D01*
X138777347Y-64242190D01*
X138752764Y-64212236D01*
X138633233Y-64114138D01*
X138496860Y-64041246D01*
X138348887Y-63996359D01*
X138233561Y-63985000D01*
X138233553Y-63985000D01*
X138195000Y-63981203D01*
X138156447Y-63985000D01*
X133538927Y-63985000D01*
X133500481Y-63913073D01*
X133308661Y-63679339D01*
X133074927Y-63487519D01*
X132808261Y-63344983D01*
X132518913Y-63257210D01*
X132293408Y-63235000D01*
X130342592Y-63235000D01*
X130117087Y-63257210D01*
X129827739Y-63344983D01*
X129561073Y-63487519D01*
X129327339Y-63679339D01*
X129135519Y-63913073D01*
X128992983Y-64179739D01*
X128905210Y-64469087D01*
X128875573Y-64770000D01*
X109982000Y-64770000D01*
X109982000Y-64405260D01*
X111908964Y-64405260D01*
X112029622Y-64643000D01*
X114173000Y-64643000D01*
X114173000Y-63235000D01*
X114427000Y-63235000D01*
X114427000Y-64643000D01*
X116570378Y-64643000D01*
X116691036Y-64405260D01*
X116666755Y-64299913D01*
X116546862Y-64022796D01*
X116375210Y-63774394D01*
X116158396Y-63564252D01*
X115904751Y-63400446D01*
X115624023Y-63289271D01*
X115327000Y-63235000D01*
X114427000Y-63235000D01*
X114173000Y-63235000D01*
X113273000Y-63235000D01*
X112975977Y-63289271D01*
X112695249Y-63400446D01*
X112441604Y-63564252D01*
X112224790Y-63774394D01*
X112053138Y-64022796D01*
X111933245Y-64299913D01*
X111908964Y-64405260D01*
X109982000Y-64405260D01*
X109982000Y-60452000D01*
X188468000Y-60452000D01*
X188468000Y-111633000D01*
%TD*%
M02*
