M48
; DRILL file {KiCad (5.1.6)-1} date 10/07/20 17:20:17
; FORMAT={-:-/ absolute / inch / decimal}
; #@! TF.CreationDate,2020-10-07T17:20:17+08:00
; #@! TF.GenerationSoftware,Kicad,Pcbnew,(5.1.6)-1
; #@! TF.FileFunction,Plated,1,2,PTH
FMAT,2
INCH
T1C0.0157
T2C0.0400
T3C0.0472
%
G90
G05
T1
X5.4908Y-2.9292
X5.5185Y-3.0615
X5.5204Y-2.6296
X5.5234Y-2.7634
X5.5435Y-3.1865
X5.55Y-3.3
X5.5525Y-3.4475
X5.5525Y-3.5475
X5.5525Y-3.7475
T2
X5.6543Y-2.5973
X5.6543Y-2.6973
X5.6543Y-2.7973
X5.6543Y-2.8973
X5.6543Y-2.9973
X5.6543Y-3.0973
X5.6543Y-3.1973
X5.6543Y-3.2973
X5.6543Y-3.3973
X5.6543Y-3.4973
X5.6543Y-3.5973
X5.6543Y-3.6973
X5.6543Y-3.7973
X5.6543Y-3.8973
X5.6543Y-3.9973
X5.6543Y-4.0973
X5.6543Y-4.1973
X6.2543Y-2.5973
X6.2543Y-2.6973
X6.2543Y-2.7973
X6.2543Y-2.8973
X6.2543Y-2.9973
X6.2543Y-3.0973
X6.2543Y-3.1973
X6.2543Y-3.2973
X6.2543Y-3.3973
X6.2543Y-3.4973
X6.2543Y-3.5973
X6.2543Y-3.6973
X6.2543Y-3.7973
X6.2543Y-3.8973
X6.2543Y-3.9973
X6.2543Y-4.0973
X6.2543Y-4.1973
T3
X6.575Y-4.25
X6.725Y-4.25
X6.875Y-4.25
X7.025Y-4.25
X7.175Y-4.25
X7.325Y-4.25
X7.3Y-2.5
X7.3Y-2.65
X7.3Y-2.8
X7.3Y-2.95
X7.3Y-3.1
X7.3Y-3.25
X7.3Y-3.4
X7.3Y-3.55
X7.3Y-3.7
X5.17Y-2.55
X5.17Y-2.7
X5.17Y-2.85
X5.17Y-3.0
X5.17Y-3.15
X5.17Y-3.3
X5.17Y-3.45
X5.17Y-3.6
X5.17Y-3.75
X4.5Y-2.55
X4.5Y-2.7
X4.5Y-2.85
X4.5Y-3.0
X4.5Y-3.15
X4.5Y-3.3
X4.5Y-3.45
X4.5Y-3.6
X4.5Y-3.75
X6.75Y-2.5
X6.75Y-2.65
X6.75Y-2.8
X6.75Y-2.95
X6.75Y-3.1
X6.75Y-3.25
X6.75Y-3.4
X6.75Y-3.55
X6.75Y-3.7
T0
M30
