%TF.GenerationSoftware,KiCad,Pcbnew,(5.1.6)-1*%
%TF.CreationDate,2020-10-07T17:19:25+08:00*%
%TF.ProjectId,MGame HID,4d47616d-6520-4484-9944-2e6b69636164,rev?*%
%TF.SameCoordinates,Original*%
%TF.FileFunction,Legend,Top*%
%TF.FilePolarity,Positive*%
%FSLAX46Y46*%
G04 Gerber Fmt 4.6, Leading zero omitted, Abs format (unit mm)*
G04 Created by KiCad (PCBNEW (5.1.6)-1) date 2020-10-07 17:19:25*
%MOMM*%
%LPD*%
G01*
G04 APERTURE LIST*
%ADD10C,0.150000*%
%ADD11C,0.120000*%
%ADD12C,0.075000*%
G04 APERTURE END LIST*
D10*
X110690642Y-106412571D02*
X110690642Y-104912571D01*
X111190642Y-105984000D01*
X111690642Y-104912571D01*
X111690642Y-106412571D01*
X113047785Y-105412571D02*
X113047785Y-106412571D01*
X112404928Y-105412571D02*
X112404928Y-106198285D01*
X112476357Y-106341142D01*
X112619214Y-106412571D01*
X112833500Y-106412571D01*
X112976357Y-106341142D01*
X113047785Y-106269714D01*
X113690642Y-106341142D02*
X113833500Y-106412571D01*
X114119214Y-106412571D01*
X114262071Y-106341142D01*
X114333500Y-106198285D01*
X114333500Y-106126857D01*
X114262071Y-105984000D01*
X114119214Y-105912571D01*
X113904928Y-105912571D01*
X113762071Y-105841142D01*
X113690642Y-105698285D01*
X113690642Y-105626857D01*
X113762071Y-105484000D01*
X113904928Y-105412571D01*
X114119214Y-105412571D01*
X114262071Y-105484000D01*
X114976357Y-106412571D02*
X114976357Y-105412571D01*
X114976357Y-104912571D02*
X114904928Y-104984000D01*
X114976357Y-105055428D01*
X115047785Y-104984000D01*
X114976357Y-104912571D01*
X114976357Y-105055428D01*
X116333500Y-106341142D02*
X116190642Y-106412571D01*
X115904928Y-106412571D01*
X115762071Y-106341142D01*
X115690642Y-106269714D01*
X115619214Y-106126857D01*
X115619214Y-105698285D01*
X115690642Y-105555428D01*
X115762071Y-105484000D01*
X115904928Y-105412571D01*
X116190642Y-105412571D01*
X116333500Y-105484000D01*
X118904928Y-104984000D02*
X118762071Y-104912571D01*
X118547785Y-104912571D01*
X118333500Y-104984000D01*
X118190642Y-105126857D01*
X118119214Y-105269714D01*
X118047785Y-105555428D01*
X118047785Y-105769714D01*
X118119214Y-106055428D01*
X118190642Y-106198285D01*
X118333500Y-106341142D01*
X118547785Y-106412571D01*
X118690642Y-106412571D01*
X118904928Y-106341142D01*
X118976357Y-106269714D01*
X118976357Y-105769714D01*
X118690642Y-105769714D01*
X120262071Y-106412571D02*
X120262071Y-105626857D01*
X120190642Y-105484000D01*
X120047785Y-105412571D01*
X119762071Y-105412571D01*
X119619214Y-105484000D01*
X120262071Y-106341142D02*
X120119214Y-106412571D01*
X119762071Y-106412571D01*
X119619214Y-106341142D01*
X119547785Y-106198285D01*
X119547785Y-106055428D01*
X119619214Y-105912571D01*
X119762071Y-105841142D01*
X120119214Y-105841142D01*
X120262071Y-105769714D01*
X120976357Y-106412571D02*
X120976357Y-105412571D01*
X120976357Y-105555428D02*
X121047785Y-105484000D01*
X121190642Y-105412571D01*
X121404928Y-105412571D01*
X121547785Y-105484000D01*
X121619214Y-105626857D01*
X121619214Y-106412571D01*
X121619214Y-105626857D02*
X121690642Y-105484000D01*
X121833500Y-105412571D01*
X122047785Y-105412571D01*
X122190642Y-105484000D01*
X122262071Y-105626857D01*
X122262071Y-106412571D01*
X123547785Y-106341142D02*
X123404928Y-106412571D01*
X123119214Y-106412571D01*
X122976357Y-106341142D01*
X122904928Y-106198285D01*
X122904928Y-105626857D01*
X122976357Y-105484000D01*
X123119214Y-105412571D01*
X123404928Y-105412571D01*
X123547785Y-105484000D01*
X123619214Y-105626857D01*
X123619214Y-105769714D01*
X122904928Y-105912571D01*
X125404928Y-106412571D02*
X125404928Y-104912571D01*
X125404928Y-105626857D02*
X126262071Y-105626857D01*
X126262071Y-106412571D02*
X126262071Y-104912571D01*
X126976357Y-106412571D02*
X126976357Y-104912571D01*
X127690642Y-106412571D02*
X127690642Y-104912571D01*
X128047785Y-104912571D01*
X128262071Y-104984000D01*
X128404928Y-105126857D01*
X128476357Y-105269714D01*
X128547785Y-105555428D01*
X128547785Y-105769714D01*
X128476357Y-106055428D01*
X128404928Y-106198285D01*
X128262071Y-106341142D01*
X128047785Y-106412571D01*
X127690642Y-106412571D01*
X131190642Y-106269714D02*
X131119214Y-106341142D01*
X130904928Y-106412571D01*
X130762071Y-106412571D01*
X130547785Y-106341142D01*
X130404928Y-106198285D01*
X130333500Y-106055428D01*
X130262071Y-105769714D01*
X130262071Y-105555428D01*
X130333500Y-105269714D01*
X130404928Y-105126857D01*
X130547785Y-104984000D01*
X130762071Y-104912571D01*
X130904928Y-104912571D01*
X131119214Y-104984000D01*
X131190642Y-105055428D01*
X132047785Y-106412571D02*
X131904928Y-106341142D01*
X131833500Y-106269714D01*
X131762071Y-106126857D01*
X131762071Y-105698285D01*
X131833500Y-105555428D01*
X131904928Y-105484000D01*
X132047785Y-105412571D01*
X132262071Y-105412571D01*
X132404928Y-105484000D01*
X132476357Y-105555428D01*
X132547785Y-105698285D01*
X132547785Y-106126857D01*
X132476357Y-106269714D01*
X132404928Y-106341142D01*
X132262071Y-106412571D01*
X132047785Y-106412571D01*
X133190642Y-105412571D02*
X133190642Y-106412571D01*
X133190642Y-105555428D02*
X133262071Y-105484000D01*
X133404928Y-105412571D01*
X133619214Y-105412571D01*
X133762071Y-105484000D01*
X133833500Y-105626857D01*
X133833500Y-106412571D01*
X134333500Y-105412571D02*
X134904928Y-105412571D01*
X134547785Y-104912571D02*
X134547785Y-106198285D01*
X134619214Y-106341142D01*
X134762071Y-106412571D01*
X134904928Y-106412571D01*
X135404928Y-106412571D02*
X135404928Y-105412571D01*
X135404928Y-105698285D02*
X135476357Y-105555428D01*
X135547785Y-105484000D01*
X135690642Y-105412571D01*
X135833500Y-105412571D01*
X136547785Y-106412571D02*
X136404928Y-106341142D01*
X136333500Y-106269714D01*
X136262071Y-106126857D01*
X136262071Y-105698285D01*
X136333500Y-105555428D01*
X136404928Y-105484000D01*
X136547785Y-105412571D01*
X136762071Y-105412571D01*
X136904928Y-105484000D01*
X136976357Y-105555428D01*
X137047785Y-105698285D01*
X137047785Y-106126857D01*
X136976357Y-106269714D01*
X136904928Y-106341142D01*
X136762071Y-106412571D01*
X136547785Y-106412571D01*
X137904928Y-106412571D02*
X137762071Y-106341142D01*
X137690642Y-106198285D01*
X137690642Y-104912571D01*
X138690642Y-106412571D02*
X138547785Y-106341142D01*
X138476357Y-106198285D01*
X138476357Y-104912571D01*
X139833500Y-106341142D02*
X139690642Y-106412571D01*
X139404928Y-106412571D01*
X139262071Y-106341142D01*
X139190642Y-106198285D01*
X139190642Y-105626857D01*
X139262071Y-105484000D01*
X139404928Y-105412571D01*
X139690642Y-105412571D01*
X139833500Y-105484000D01*
X139904928Y-105626857D01*
X139904928Y-105769714D01*
X139190642Y-105912571D01*
X140547785Y-106412571D02*
X140547785Y-105412571D01*
X140547785Y-105698285D02*
X140619214Y-105555428D01*
X140690642Y-105484000D01*
X140833500Y-105412571D01*
X140976357Y-105412571D01*
X110619214Y-107455428D02*
X110690642Y-107384000D01*
X110833500Y-107312571D01*
X111190642Y-107312571D01*
X111333500Y-107384000D01*
X111404928Y-107455428D01*
X111476357Y-107598285D01*
X111476357Y-107741142D01*
X111404928Y-107955428D01*
X110547785Y-108812571D01*
X111476357Y-108812571D01*
X112404928Y-107312571D02*
X112547785Y-107312571D01*
X112690642Y-107384000D01*
X112762071Y-107455428D01*
X112833500Y-107598285D01*
X112904928Y-107884000D01*
X112904928Y-108241142D01*
X112833500Y-108526857D01*
X112762071Y-108669714D01*
X112690642Y-108741142D01*
X112547785Y-108812571D01*
X112404928Y-108812571D01*
X112262071Y-108741142D01*
X112190642Y-108669714D01*
X112119214Y-108526857D01*
X112047785Y-108241142D01*
X112047785Y-107884000D01*
X112119214Y-107598285D01*
X112190642Y-107455428D01*
X112262071Y-107384000D01*
X112404928Y-107312571D01*
X113476357Y-107455428D02*
X113547785Y-107384000D01*
X113690642Y-107312571D01*
X114047785Y-107312571D01*
X114190642Y-107384000D01*
X114262071Y-107455428D01*
X114333500Y-107598285D01*
X114333500Y-107741142D01*
X114262071Y-107955428D01*
X113404928Y-108812571D01*
X114333500Y-108812571D01*
X115262071Y-107312571D02*
X115404928Y-107312571D01*
X115547785Y-107384000D01*
X115619214Y-107455428D01*
X115690642Y-107598285D01*
X115762071Y-107884000D01*
X115762071Y-108241142D01*
X115690642Y-108526857D01*
X115619214Y-108669714D01*
X115547785Y-108741142D01*
X115404928Y-108812571D01*
X115262071Y-108812571D01*
X115119214Y-108741142D01*
X115047785Y-108669714D01*
X114976357Y-108526857D01*
X114904928Y-108241142D01*
X114904928Y-107884000D01*
X114976357Y-107598285D01*
X115047785Y-107455428D01*
X115119214Y-107384000D01*
X115262071Y-107312571D01*
X116404928Y-108241142D02*
X117547785Y-108241142D01*
X119047785Y-108812571D02*
X118190642Y-108812571D01*
X118619214Y-108812571D02*
X118619214Y-107312571D01*
X118476357Y-107526857D01*
X118333500Y-107669714D01*
X118190642Y-107741142D01*
X119976357Y-107312571D02*
X120119214Y-107312571D01*
X120262071Y-107384000D01*
X120333500Y-107455428D01*
X120404928Y-107598285D01*
X120476357Y-107884000D01*
X120476357Y-108241142D01*
X120404928Y-108526857D01*
X120333500Y-108669714D01*
X120262071Y-108741142D01*
X120119214Y-108812571D01*
X119976357Y-108812571D01*
X119833500Y-108741142D01*
X119762071Y-108669714D01*
X119690642Y-108526857D01*
X119619214Y-108241142D01*
X119619214Y-107884000D01*
X119690642Y-107598285D01*
X119762071Y-107455428D01*
X119833500Y-107384000D01*
X119976357Y-107312571D01*
X121119214Y-108241142D02*
X122262071Y-108241142D01*
X123262071Y-107312571D02*
X123404928Y-107312571D01*
X123547785Y-107384000D01*
X123619214Y-107455428D01*
X123690642Y-107598285D01*
X123762071Y-107884000D01*
X123762071Y-108241142D01*
X123690642Y-108526857D01*
X123619214Y-108669714D01*
X123547785Y-108741142D01*
X123404928Y-108812571D01*
X123262071Y-108812571D01*
X123119214Y-108741142D01*
X123047785Y-108669714D01*
X122976357Y-108526857D01*
X122904928Y-108241142D01*
X122904928Y-107884000D01*
X122976357Y-107598285D01*
X123047785Y-107455428D01*
X123119214Y-107384000D01*
X123262071Y-107312571D01*
X125190642Y-108812571D02*
X124333500Y-108812571D01*
X124762071Y-108812571D02*
X124762071Y-107312571D01*
X124619214Y-107526857D01*
X124476357Y-107669714D01*
X124333500Y-107741142D01*
X120189761Y-95471071D02*
X120189761Y-95259642D01*
X120285000Y-95048214D01*
X120380238Y-94942500D01*
X120570714Y-94836785D01*
X120951666Y-94731071D01*
X121427857Y-94731071D01*
X121808809Y-94836785D01*
X121999285Y-94942500D01*
X122094523Y-95048214D01*
X122189761Y-95259642D01*
X122189761Y-95471071D01*
X122094523Y-95682500D01*
X121999285Y-95788214D01*
X121808809Y-95893928D01*
X121427857Y-95999642D01*
X120951666Y-95999642D01*
X120570714Y-95893928D01*
X120380238Y-95788214D01*
X120285000Y-95682500D01*
X120189761Y-95471071D01*
X122189761Y-90925357D02*
X122189761Y-92193928D01*
X122189761Y-91559642D02*
X120189761Y-91559642D01*
X120475476Y-91771071D01*
X120665952Y-91982500D01*
X120761190Y-92193928D01*
X120380238Y-88388214D02*
X120285000Y-88282500D01*
X120189761Y-88071071D01*
X120189761Y-87542500D01*
X120285000Y-87331071D01*
X120380238Y-87225357D01*
X120570714Y-87119642D01*
X120761190Y-87119642D01*
X121046904Y-87225357D01*
X122189761Y-88493928D01*
X122189761Y-87119642D01*
X120189761Y-84688214D02*
X120189761Y-83313928D01*
X120951666Y-84053928D01*
X120951666Y-83736785D01*
X121046904Y-83525357D01*
X121142142Y-83419642D01*
X121332619Y-83313928D01*
X121808809Y-83313928D01*
X121999285Y-83419642D01*
X122094523Y-83525357D01*
X122189761Y-83736785D01*
X122189761Y-84371071D01*
X122094523Y-84582500D01*
X121999285Y-84688214D01*
X120856428Y-79719642D02*
X122189761Y-79719642D01*
X120094523Y-80248214D02*
X121523095Y-80776785D01*
X121523095Y-79402500D01*
X120189761Y-75808214D02*
X120189761Y-76865357D01*
X121142142Y-76971071D01*
X121046904Y-76865357D01*
X120951666Y-76653928D01*
X120951666Y-76125357D01*
X121046904Y-75913928D01*
X121142142Y-75808214D01*
X121332619Y-75702500D01*
X121808809Y-75702500D01*
X121999285Y-75808214D01*
X122094523Y-75913928D01*
X122189761Y-76125357D01*
X122189761Y-76653928D01*
X122094523Y-76865357D01*
X121999285Y-76971071D01*
X120189761Y-72108214D02*
X120189761Y-72531071D01*
X120285000Y-72742500D01*
X120380238Y-72848214D01*
X120665952Y-73059642D01*
X121046904Y-73165357D01*
X121808809Y-73165357D01*
X121999285Y-73059642D01*
X122094523Y-72953928D01*
X122189761Y-72742500D01*
X122189761Y-72319642D01*
X122094523Y-72108214D01*
X121999285Y-72002500D01*
X121808809Y-71896785D01*
X121332619Y-71896785D01*
X121142142Y-72002500D01*
X121046904Y-72108214D01*
X120951666Y-72319642D01*
X120951666Y-72742500D01*
X121046904Y-72953928D01*
X121142142Y-73059642D01*
X121332619Y-73165357D01*
X120189761Y-69465357D02*
X120189761Y-67985357D01*
X122189761Y-68936785D01*
X121046904Y-65131071D02*
X120951666Y-65342500D01*
X120856428Y-65448214D01*
X120665952Y-65553928D01*
X120570714Y-65553928D01*
X120380238Y-65448214D01*
X120285000Y-65342500D01*
X120189761Y-65131071D01*
X120189761Y-64708214D01*
X120285000Y-64496785D01*
X120380238Y-64391071D01*
X120570714Y-64285357D01*
X120665952Y-64285357D01*
X120856428Y-64391071D01*
X120951666Y-64496785D01*
X121046904Y-64708214D01*
X121046904Y-65131071D01*
X121142142Y-65342500D01*
X121237380Y-65448214D01*
X121427857Y-65553928D01*
X121808809Y-65553928D01*
X121999285Y-65448214D01*
X122094523Y-65342500D01*
X122189761Y-65131071D01*
X122189761Y-64708214D01*
X122094523Y-64496785D01*
X121999285Y-64391071D01*
X121808809Y-64285357D01*
X121427857Y-64285357D01*
X121237380Y-64391071D01*
X121142142Y-64496785D01*
X121046904Y-64708214D01*
X176069761Y-94201071D02*
X176069761Y-93989642D01*
X176165000Y-93778214D01*
X176260238Y-93672500D01*
X176450714Y-93566785D01*
X176831666Y-93461071D01*
X177307857Y-93461071D01*
X177688809Y-93566785D01*
X177879285Y-93672500D01*
X177974523Y-93778214D01*
X178069761Y-93989642D01*
X178069761Y-94201071D01*
X177974523Y-94412500D01*
X177879285Y-94518214D01*
X177688809Y-94623928D01*
X177307857Y-94729642D01*
X176831666Y-94729642D01*
X176450714Y-94623928D01*
X176260238Y-94518214D01*
X176165000Y-94412500D01*
X176069761Y-94201071D01*
X178069761Y-89655357D02*
X178069761Y-90923928D01*
X178069761Y-90289642D02*
X176069761Y-90289642D01*
X176355476Y-90501071D01*
X176545952Y-90712500D01*
X176641190Y-90923928D01*
X176260238Y-87118214D02*
X176165000Y-87012500D01*
X176069761Y-86801071D01*
X176069761Y-86272500D01*
X176165000Y-86061071D01*
X176260238Y-85955357D01*
X176450714Y-85849642D01*
X176641190Y-85849642D01*
X176926904Y-85955357D01*
X178069761Y-87223928D01*
X178069761Y-85849642D01*
X176069761Y-83418214D02*
X176069761Y-82043928D01*
X176831666Y-82783928D01*
X176831666Y-82466785D01*
X176926904Y-82255357D01*
X177022142Y-82149642D01*
X177212619Y-82043928D01*
X177688809Y-82043928D01*
X177879285Y-82149642D01*
X177974523Y-82255357D01*
X178069761Y-82466785D01*
X178069761Y-83101071D01*
X177974523Y-83312500D01*
X177879285Y-83418214D01*
X176736428Y-78449642D02*
X178069761Y-78449642D01*
X175974523Y-78978214D02*
X177403095Y-79506785D01*
X177403095Y-78132500D01*
X176069761Y-74538214D02*
X176069761Y-75595357D01*
X177022142Y-75701071D01*
X176926904Y-75595357D01*
X176831666Y-75383928D01*
X176831666Y-74855357D01*
X176926904Y-74643928D01*
X177022142Y-74538214D01*
X177212619Y-74432500D01*
X177688809Y-74432500D01*
X177879285Y-74538214D01*
X177974523Y-74643928D01*
X178069761Y-74855357D01*
X178069761Y-75383928D01*
X177974523Y-75595357D01*
X177879285Y-75701071D01*
X176069761Y-70838214D02*
X176069761Y-71261071D01*
X176165000Y-71472500D01*
X176260238Y-71578214D01*
X176545952Y-71789642D01*
X176926904Y-71895357D01*
X177688809Y-71895357D01*
X177879285Y-71789642D01*
X177974523Y-71683928D01*
X178069761Y-71472500D01*
X178069761Y-71049642D01*
X177974523Y-70838214D01*
X177879285Y-70732500D01*
X177688809Y-70626785D01*
X177212619Y-70626785D01*
X177022142Y-70732500D01*
X176926904Y-70838214D01*
X176831666Y-71049642D01*
X176831666Y-71472500D01*
X176926904Y-71683928D01*
X177022142Y-71789642D01*
X177212619Y-71895357D01*
X176069761Y-68195357D02*
X176069761Y-66715357D01*
X178069761Y-67666785D01*
X176926904Y-63861071D02*
X176831666Y-64072500D01*
X176736428Y-64178214D01*
X176545952Y-64283928D01*
X176450714Y-64283928D01*
X176260238Y-64178214D01*
X176165000Y-64072500D01*
X176069761Y-63861071D01*
X176069761Y-63438214D01*
X176165000Y-63226785D01*
X176260238Y-63121071D01*
X176450714Y-63015357D01*
X176545952Y-63015357D01*
X176736428Y-63121071D01*
X176831666Y-63226785D01*
X176926904Y-63438214D01*
X176926904Y-63861071D01*
X177022142Y-64072500D01*
X177117380Y-64178214D01*
X177307857Y-64283928D01*
X177688809Y-64283928D01*
X177879285Y-64178214D01*
X177974523Y-64072500D01*
X178069761Y-63861071D01*
X178069761Y-63438214D01*
X177974523Y-63226785D01*
X177879285Y-63121071D01*
X177688809Y-63015357D01*
X177307857Y-63015357D01*
X177117380Y-63121071D01*
X177022142Y-63226785D01*
X176926904Y-63438214D01*
X166751428Y-100504761D02*
X166962857Y-100504761D01*
X167174285Y-100600000D01*
X167280000Y-100695238D01*
X167385714Y-100885714D01*
X167491428Y-101266666D01*
X167491428Y-101742857D01*
X167385714Y-102123809D01*
X167280000Y-102314285D01*
X167174285Y-102409523D01*
X166962857Y-102504761D01*
X166751428Y-102504761D01*
X166540000Y-102409523D01*
X166434285Y-102314285D01*
X166328571Y-102123809D01*
X166222857Y-101742857D01*
X166222857Y-101266666D01*
X166328571Y-100885714D01*
X166434285Y-100695238D01*
X166540000Y-100600000D01*
X166751428Y-100504761D01*
X171297142Y-100600000D02*
X171085714Y-100504761D01*
X170768571Y-100504761D01*
X170451428Y-100600000D01*
X170240000Y-100790476D01*
X170134285Y-100980952D01*
X170028571Y-101361904D01*
X170028571Y-101647619D01*
X170134285Y-102028571D01*
X170240000Y-102219047D01*
X170451428Y-102409523D01*
X170768571Y-102504761D01*
X170980000Y-102504761D01*
X171297142Y-102409523D01*
X171402857Y-102314285D01*
X171402857Y-101647619D01*
X170980000Y-101647619D01*
X175208571Y-102504761D02*
X173940000Y-102504761D01*
X174574285Y-102504761D02*
X174574285Y-100504761D01*
X174362857Y-100790476D01*
X174151428Y-100980952D01*
X173940000Y-101076190D01*
X179014285Y-100600000D02*
X178802857Y-100504761D01*
X178485714Y-100504761D01*
X178168571Y-100600000D01*
X177957142Y-100790476D01*
X177851428Y-100980952D01*
X177745714Y-101361904D01*
X177745714Y-101647619D01*
X177851428Y-102028571D01*
X177957142Y-102219047D01*
X178168571Y-102409523D01*
X178485714Y-102504761D01*
X178697142Y-102504761D01*
X179014285Y-102409523D01*
X179120000Y-102314285D01*
X179120000Y-101647619D01*
X178697142Y-101647619D01*
X181657142Y-100695238D02*
X181762857Y-100600000D01*
X181974285Y-100504761D01*
X182502857Y-100504761D01*
X182714285Y-100600000D01*
X182820000Y-100695238D01*
X182925714Y-100885714D01*
X182925714Y-101076190D01*
X182820000Y-101361904D01*
X181551428Y-102504761D01*
X182925714Y-102504761D01*
X186731428Y-100600000D02*
X186520000Y-100504761D01*
X186202857Y-100504761D01*
X185885714Y-100600000D01*
X185674285Y-100790476D01*
X185568571Y-100980952D01*
X185462857Y-101361904D01*
X185462857Y-101647619D01*
X185568571Y-102028571D01*
X185674285Y-102219047D01*
X185885714Y-102409523D01*
X186202857Y-102504761D01*
X186414285Y-102504761D01*
X186731428Y-102409523D01*
X186837142Y-102314285D01*
X186837142Y-101647619D01*
X186414285Y-101647619D01*
X162893333Y-109156190D02*
X162893333Y-108203809D01*
X163464761Y-109346666D02*
X161464761Y-108680000D01*
X163464761Y-108013333D01*
X161464761Y-107346666D02*
X163083809Y-107346666D01*
X163274285Y-107251428D01*
X163369523Y-107156190D01*
X163464761Y-106965714D01*
X163464761Y-106584761D01*
X163369523Y-106394285D01*
X163274285Y-106299047D01*
X163083809Y-106203809D01*
X161464761Y-106203809D01*
X161464761Y-105441904D02*
X163464761Y-104108571D01*
X161464761Y-104108571D02*
X163464761Y-105441904D01*
X183896190Y-97806000D02*
X183705714Y-97710761D01*
X183420000Y-97710761D01*
X183134285Y-97806000D01*
X182943809Y-97996476D01*
X182848571Y-98186952D01*
X182753333Y-98567904D01*
X182753333Y-98853619D01*
X182848571Y-99234571D01*
X182943809Y-99425047D01*
X183134285Y-99615523D01*
X183420000Y-99710761D01*
X183610476Y-99710761D01*
X183896190Y-99615523D01*
X183991428Y-99520285D01*
X183991428Y-98853619D01*
X183610476Y-98853619D01*
X184848571Y-99710761D02*
X184848571Y-97710761D01*
X185991428Y-99710761D01*
X185991428Y-97710761D01*
X186943809Y-99710761D02*
X186943809Y-97710761D01*
X187420000Y-97710761D01*
X187705714Y-97806000D01*
X187896190Y-97996476D01*
X187991428Y-98186952D01*
X188086666Y-98567904D01*
X188086666Y-98853619D01*
X187991428Y-99234571D01*
X187896190Y-99425047D01*
X187705714Y-99615523D01*
X187420000Y-99710761D01*
X186943809Y-99710761D01*
X170418285Y-99710761D02*
X169465904Y-99710761D01*
X169465904Y-97710761D01*
X171084952Y-98663142D02*
X171751619Y-98663142D01*
X172037333Y-99710761D02*
X171084952Y-99710761D01*
X171084952Y-97710761D01*
X172037333Y-97710761D01*
X172894476Y-99710761D02*
X172894476Y-97710761D01*
X173370666Y-97710761D01*
X173656380Y-97806000D01*
X173846857Y-97996476D01*
X173942095Y-98186952D01*
X174037333Y-98567904D01*
X174037333Y-98853619D01*
X173942095Y-99234571D01*
X173846857Y-99425047D01*
X173656380Y-99615523D01*
X173370666Y-99710761D01*
X172894476Y-99710761D01*
X113284190Y-99330000D02*
X113093714Y-99234761D01*
X112808000Y-99234761D01*
X112522285Y-99330000D01*
X112331809Y-99520476D01*
X112236571Y-99710952D01*
X112141333Y-100091904D01*
X112141333Y-100377619D01*
X112236571Y-100758571D01*
X112331809Y-100949047D01*
X112522285Y-101139523D01*
X112808000Y-101234761D01*
X112998476Y-101234761D01*
X113284190Y-101139523D01*
X113379428Y-101044285D01*
X113379428Y-100377619D01*
X112998476Y-100377619D01*
X114236571Y-101234761D02*
X114236571Y-99234761D01*
X115379428Y-101234761D01*
X115379428Y-99234761D01*
X116331809Y-101234761D02*
X116331809Y-99234761D01*
X116808000Y-99234761D01*
X117093714Y-99330000D01*
X117284190Y-99520476D01*
X117379428Y-99710952D01*
X117474666Y-100091904D01*
X117474666Y-100377619D01*
X117379428Y-100758571D01*
X117284190Y-100949047D01*
X117093714Y-101139523D01*
X116808000Y-101234761D01*
X116331809Y-101234761D01*
X129588190Y-100187142D02*
X129873904Y-100282380D01*
X129969142Y-100377619D01*
X130064380Y-100568095D01*
X130064380Y-100853809D01*
X129969142Y-101044285D01*
X129873904Y-101139523D01*
X129683428Y-101234761D01*
X128921523Y-101234761D01*
X128921523Y-99234761D01*
X129588190Y-99234761D01*
X129778666Y-99330000D01*
X129873904Y-99425238D01*
X129969142Y-99615714D01*
X129969142Y-99806190D01*
X129873904Y-99996666D01*
X129778666Y-100091904D01*
X129588190Y-100187142D01*
X128921523Y-100187142D01*
X130921523Y-99234761D02*
X130921523Y-100853809D01*
X131016761Y-101044285D01*
X131112000Y-101139523D01*
X131302476Y-101234761D01*
X131683428Y-101234761D01*
X131873904Y-101139523D01*
X131969142Y-101044285D01*
X132064380Y-100853809D01*
X132064380Y-99234761D01*
X132731047Y-99234761D02*
X133873904Y-99234761D01*
X133302476Y-101234761D02*
X133302476Y-99234761D01*
X134254857Y-99234761D02*
X135397714Y-99234761D01*
X134826285Y-101234761D02*
X134826285Y-99234761D01*
X136445333Y-99234761D02*
X136826285Y-99234761D01*
X137016761Y-99330000D01*
X137207238Y-99520476D01*
X137302476Y-99901428D01*
X137302476Y-100568095D01*
X137207238Y-100949047D01*
X137016761Y-101139523D01*
X136826285Y-101234761D01*
X136445333Y-101234761D01*
X136254857Y-101139523D01*
X136064380Y-100949047D01*
X135969142Y-100568095D01*
X135969142Y-99901428D01*
X136064380Y-99520476D01*
X136254857Y-99330000D01*
X136445333Y-99234761D01*
X138159619Y-101234761D02*
X138159619Y-99234761D01*
X139302476Y-101234761D01*
X139302476Y-99234761D01*
D11*
%TO.C,J1*%
X109550000Y-98350000D02*
X109550000Y-96350000D01*
X110800000Y-98350000D02*
X109550000Y-98350000D01*
X116550000Y-63270000D02*
X116550000Y-64020000D01*
X112250000Y-63270000D02*
X116550000Y-63270000D01*
X112250000Y-64020000D02*
X112250000Y-63270000D01*
X111900000Y-64020000D02*
X112250000Y-64020000D01*
X111900000Y-63520000D02*
X111900000Y-64020000D01*
X110900000Y-63270000D02*
X111900000Y-63520000D01*
X110900000Y-66270000D02*
X110900000Y-63270000D01*
X111900000Y-66020000D02*
X110900000Y-66270000D01*
X111900000Y-65520000D02*
X111900000Y-66020000D01*
X112250000Y-65520000D02*
X111900000Y-65520000D01*
X112250000Y-66270000D02*
X112250000Y-65520000D01*
X116550000Y-66270000D02*
X112250000Y-66270000D01*
X116550000Y-65520000D02*
X116550000Y-66270000D01*
X116550000Y-67080000D02*
X116550000Y-67830000D01*
X112250000Y-67080000D02*
X116550000Y-67080000D01*
X112250000Y-67830000D02*
X112250000Y-67080000D01*
X111900000Y-67830000D02*
X112250000Y-67830000D01*
X111900000Y-67330000D02*
X111900000Y-67830000D01*
X110900000Y-67080000D02*
X111900000Y-67330000D01*
X110900000Y-70080000D02*
X110900000Y-67080000D01*
X111900000Y-69830000D02*
X110900000Y-70080000D01*
X111900000Y-69330000D02*
X111900000Y-69830000D01*
X112250000Y-69330000D02*
X111900000Y-69330000D01*
X112250000Y-70080000D02*
X112250000Y-69330000D01*
X116550000Y-70080000D02*
X112250000Y-70080000D01*
X116550000Y-69330000D02*
X116550000Y-70080000D01*
X116550000Y-70890000D02*
X116550000Y-71640000D01*
X112250000Y-70890000D02*
X116550000Y-70890000D01*
X112250000Y-71640000D02*
X112250000Y-70890000D01*
X111900000Y-71640000D02*
X112250000Y-71640000D01*
X111900000Y-71140000D02*
X111900000Y-71640000D01*
X110900000Y-70890000D02*
X111900000Y-71140000D01*
X110900000Y-73890000D02*
X110900000Y-70890000D01*
X111900000Y-73640000D02*
X110900000Y-73890000D01*
X111900000Y-73140000D02*
X111900000Y-73640000D01*
X112250000Y-73140000D02*
X111900000Y-73140000D01*
X112250000Y-73890000D02*
X112250000Y-73140000D01*
X116550000Y-73890000D02*
X112250000Y-73890000D01*
X116550000Y-73140000D02*
X116550000Y-73890000D01*
X116550000Y-74700000D02*
X116550000Y-75450000D01*
X112250000Y-74700000D02*
X116550000Y-74700000D01*
X112250000Y-75450000D02*
X112250000Y-74700000D01*
X111900000Y-75450000D02*
X112250000Y-75450000D01*
X111900000Y-74950000D02*
X111900000Y-75450000D01*
X110900000Y-74700000D02*
X111900000Y-74950000D01*
X110900000Y-77700000D02*
X110900000Y-74700000D01*
X111900000Y-77450000D02*
X110900000Y-77700000D01*
X111900000Y-76950000D02*
X111900000Y-77450000D01*
X112250000Y-76950000D02*
X111900000Y-76950000D01*
X112250000Y-77700000D02*
X112250000Y-76950000D01*
X116550000Y-77700000D02*
X112250000Y-77700000D01*
X116550000Y-76950000D02*
X116550000Y-77700000D01*
X116550000Y-78510000D02*
X116550000Y-79260000D01*
X112250000Y-78510000D02*
X116550000Y-78510000D01*
X112250000Y-79260000D02*
X112250000Y-78510000D01*
X111900000Y-79260000D02*
X112250000Y-79260000D01*
X111900000Y-78760000D02*
X111900000Y-79260000D01*
X110900000Y-78510000D02*
X111900000Y-78760000D01*
X110900000Y-81510000D02*
X110900000Y-78510000D01*
X111900000Y-81260000D02*
X110900000Y-81510000D01*
X111900000Y-80760000D02*
X111900000Y-81260000D01*
X112250000Y-80760000D02*
X111900000Y-80760000D01*
X112250000Y-81510000D02*
X112250000Y-80760000D01*
X116550000Y-81510000D02*
X112250000Y-81510000D01*
X116550000Y-80760000D02*
X116550000Y-81510000D01*
X116550000Y-82320000D02*
X116550000Y-83070000D01*
X112250000Y-82320000D02*
X116550000Y-82320000D01*
X112250000Y-83070000D02*
X112250000Y-82320000D01*
X111900000Y-83070000D02*
X112250000Y-83070000D01*
X111900000Y-82570000D02*
X111900000Y-83070000D01*
X110900000Y-82320000D02*
X111900000Y-82570000D01*
X110900000Y-85320000D02*
X110900000Y-82320000D01*
X111900000Y-85070000D02*
X110900000Y-85320000D01*
X111900000Y-84570000D02*
X111900000Y-85070000D01*
X112250000Y-84570000D02*
X111900000Y-84570000D01*
X112250000Y-85320000D02*
X112250000Y-84570000D01*
X116550000Y-85320000D02*
X112250000Y-85320000D01*
X116550000Y-84570000D02*
X116550000Y-85320000D01*
X116550000Y-86130000D02*
X116550000Y-86880000D01*
X112250000Y-86130000D02*
X116550000Y-86130000D01*
X112250000Y-86880000D02*
X112250000Y-86130000D01*
X111900000Y-86880000D02*
X112250000Y-86880000D01*
X111900000Y-86380000D02*
X111900000Y-86880000D01*
X110900000Y-86130000D02*
X111900000Y-86380000D01*
X110900000Y-89130000D02*
X110900000Y-86130000D01*
X111900000Y-88880000D02*
X110900000Y-89130000D01*
X111900000Y-88380000D02*
X111900000Y-88880000D01*
X112250000Y-88380000D02*
X111900000Y-88380000D01*
X112250000Y-89130000D02*
X112250000Y-88380000D01*
X116550000Y-89130000D02*
X112250000Y-89130000D01*
X116550000Y-88380000D02*
X116550000Y-89130000D01*
X116550000Y-89940000D02*
X116550000Y-90690000D01*
X112250000Y-89940000D02*
X116550000Y-89940000D01*
X112250000Y-90690000D02*
X112250000Y-89940000D01*
X111900000Y-90690000D02*
X112250000Y-90690000D01*
X111900000Y-90190000D02*
X111900000Y-90690000D01*
X110900000Y-89940000D02*
X111900000Y-90190000D01*
X110900000Y-92940000D02*
X110900000Y-89940000D01*
X111900000Y-92690000D02*
X110900000Y-92940000D01*
X111900000Y-92190000D02*
X111900000Y-92690000D01*
X112250000Y-92190000D02*
X111900000Y-92190000D01*
X112250000Y-92940000D02*
X112250000Y-92190000D01*
X116550000Y-92940000D02*
X112250000Y-92940000D01*
X116550000Y-92190000D02*
X116550000Y-92940000D01*
X116550000Y-93750000D02*
X116550000Y-94500000D01*
X112250000Y-93750000D02*
X116550000Y-93750000D01*
X112250000Y-94500000D02*
X112250000Y-93750000D01*
X111900000Y-94500000D02*
X112250000Y-94500000D01*
X111900000Y-94000000D02*
X111900000Y-94500000D01*
X110900000Y-93750000D02*
X111900000Y-94000000D01*
X110900000Y-96750000D02*
X110900000Y-93750000D01*
X111900000Y-96500000D02*
X110900000Y-96750000D01*
X111900000Y-96000000D02*
X111900000Y-96500000D01*
X112250000Y-96000000D02*
X111900000Y-96000000D01*
X112250000Y-96750000D02*
X112250000Y-96000000D01*
X116550000Y-96750000D02*
X112250000Y-96750000D01*
X116550000Y-96000000D02*
X116550000Y-96750000D01*
X109970000Y-62090000D02*
X109970000Y-97930000D01*
X117380000Y-62090000D02*
X109970000Y-62090000D01*
X117380000Y-97930000D02*
X117380000Y-62090000D01*
X109970000Y-97930000D02*
X117380000Y-97930000D01*
X116549845Y-64020353D02*
G75*
G03*
X116550000Y-65520000I1700155J-749647D01*
G01*
X116549845Y-67830353D02*
G75*
G03*
X116550000Y-69330000I1700155J-749647D01*
G01*
X116549845Y-71640353D02*
G75*
G03*
X116550000Y-73140000I1700155J-749647D01*
G01*
X116549845Y-75450353D02*
G75*
G03*
X116550000Y-76950000I1700155J-749647D01*
G01*
X116549845Y-79260353D02*
G75*
G03*
X116550000Y-80760000I1700155J-749647D01*
G01*
X116549845Y-83070353D02*
G75*
G03*
X116550000Y-84570000I1700155J-749647D01*
G01*
X116549845Y-86880353D02*
G75*
G03*
X116550000Y-88380000I1700155J-749647D01*
G01*
X116549845Y-90690353D02*
G75*
G03*
X116550000Y-92190000I1700155J-749647D01*
G01*
X116549845Y-94500353D02*
G75*
G03*
X116550000Y-96000000I1700155J-749647D01*
G01*
%TO.C,J2*%
X126988000Y-97930000D02*
X134398000Y-97930000D01*
X134398000Y-97930000D02*
X134398000Y-62090000D01*
X134398000Y-62090000D02*
X126988000Y-62090000D01*
X126988000Y-62090000D02*
X126988000Y-97930000D01*
X133568000Y-96000000D02*
X133568000Y-96750000D01*
X133568000Y-96750000D02*
X129268000Y-96750000D01*
X129268000Y-96750000D02*
X129268000Y-96000000D01*
X129268000Y-96000000D02*
X128918000Y-96000000D01*
X128918000Y-96000000D02*
X128918000Y-96500000D01*
X128918000Y-96500000D02*
X127918000Y-96750000D01*
X127918000Y-96750000D02*
X127918000Y-93750000D01*
X127918000Y-93750000D02*
X128918000Y-94000000D01*
X128918000Y-94000000D02*
X128918000Y-94500000D01*
X128918000Y-94500000D02*
X129268000Y-94500000D01*
X129268000Y-94500000D02*
X129268000Y-93750000D01*
X129268000Y-93750000D02*
X133568000Y-93750000D01*
X133568000Y-93750000D02*
X133568000Y-94500000D01*
X133568000Y-92190000D02*
X133568000Y-92940000D01*
X133568000Y-92940000D02*
X129268000Y-92940000D01*
X129268000Y-92940000D02*
X129268000Y-92190000D01*
X129268000Y-92190000D02*
X128918000Y-92190000D01*
X128918000Y-92190000D02*
X128918000Y-92690000D01*
X128918000Y-92690000D02*
X127918000Y-92940000D01*
X127918000Y-92940000D02*
X127918000Y-89940000D01*
X127918000Y-89940000D02*
X128918000Y-90190000D01*
X128918000Y-90190000D02*
X128918000Y-90690000D01*
X128918000Y-90690000D02*
X129268000Y-90690000D01*
X129268000Y-90690000D02*
X129268000Y-89940000D01*
X129268000Y-89940000D02*
X133568000Y-89940000D01*
X133568000Y-89940000D02*
X133568000Y-90690000D01*
X133568000Y-88380000D02*
X133568000Y-89130000D01*
X133568000Y-89130000D02*
X129268000Y-89130000D01*
X129268000Y-89130000D02*
X129268000Y-88380000D01*
X129268000Y-88380000D02*
X128918000Y-88380000D01*
X128918000Y-88380000D02*
X128918000Y-88880000D01*
X128918000Y-88880000D02*
X127918000Y-89130000D01*
X127918000Y-89130000D02*
X127918000Y-86130000D01*
X127918000Y-86130000D02*
X128918000Y-86380000D01*
X128918000Y-86380000D02*
X128918000Y-86880000D01*
X128918000Y-86880000D02*
X129268000Y-86880000D01*
X129268000Y-86880000D02*
X129268000Y-86130000D01*
X129268000Y-86130000D02*
X133568000Y-86130000D01*
X133568000Y-86130000D02*
X133568000Y-86880000D01*
X133568000Y-84570000D02*
X133568000Y-85320000D01*
X133568000Y-85320000D02*
X129268000Y-85320000D01*
X129268000Y-85320000D02*
X129268000Y-84570000D01*
X129268000Y-84570000D02*
X128918000Y-84570000D01*
X128918000Y-84570000D02*
X128918000Y-85070000D01*
X128918000Y-85070000D02*
X127918000Y-85320000D01*
X127918000Y-85320000D02*
X127918000Y-82320000D01*
X127918000Y-82320000D02*
X128918000Y-82570000D01*
X128918000Y-82570000D02*
X128918000Y-83070000D01*
X128918000Y-83070000D02*
X129268000Y-83070000D01*
X129268000Y-83070000D02*
X129268000Y-82320000D01*
X129268000Y-82320000D02*
X133568000Y-82320000D01*
X133568000Y-82320000D02*
X133568000Y-83070000D01*
X133568000Y-80760000D02*
X133568000Y-81510000D01*
X133568000Y-81510000D02*
X129268000Y-81510000D01*
X129268000Y-81510000D02*
X129268000Y-80760000D01*
X129268000Y-80760000D02*
X128918000Y-80760000D01*
X128918000Y-80760000D02*
X128918000Y-81260000D01*
X128918000Y-81260000D02*
X127918000Y-81510000D01*
X127918000Y-81510000D02*
X127918000Y-78510000D01*
X127918000Y-78510000D02*
X128918000Y-78760000D01*
X128918000Y-78760000D02*
X128918000Y-79260000D01*
X128918000Y-79260000D02*
X129268000Y-79260000D01*
X129268000Y-79260000D02*
X129268000Y-78510000D01*
X129268000Y-78510000D02*
X133568000Y-78510000D01*
X133568000Y-78510000D02*
X133568000Y-79260000D01*
X133568000Y-76950000D02*
X133568000Y-77700000D01*
X133568000Y-77700000D02*
X129268000Y-77700000D01*
X129268000Y-77700000D02*
X129268000Y-76950000D01*
X129268000Y-76950000D02*
X128918000Y-76950000D01*
X128918000Y-76950000D02*
X128918000Y-77450000D01*
X128918000Y-77450000D02*
X127918000Y-77700000D01*
X127918000Y-77700000D02*
X127918000Y-74700000D01*
X127918000Y-74700000D02*
X128918000Y-74950000D01*
X128918000Y-74950000D02*
X128918000Y-75450000D01*
X128918000Y-75450000D02*
X129268000Y-75450000D01*
X129268000Y-75450000D02*
X129268000Y-74700000D01*
X129268000Y-74700000D02*
X133568000Y-74700000D01*
X133568000Y-74700000D02*
X133568000Y-75450000D01*
X133568000Y-73140000D02*
X133568000Y-73890000D01*
X133568000Y-73890000D02*
X129268000Y-73890000D01*
X129268000Y-73890000D02*
X129268000Y-73140000D01*
X129268000Y-73140000D02*
X128918000Y-73140000D01*
X128918000Y-73140000D02*
X128918000Y-73640000D01*
X128918000Y-73640000D02*
X127918000Y-73890000D01*
X127918000Y-73890000D02*
X127918000Y-70890000D01*
X127918000Y-70890000D02*
X128918000Y-71140000D01*
X128918000Y-71140000D02*
X128918000Y-71640000D01*
X128918000Y-71640000D02*
X129268000Y-71640000D01*
X129268000Y-71640000D02*
X129268000Y-70890000D01*
X129268000Y-70890000D02*
X133568000Y-70890000D01*
X133568000Y-70890000D02*
X133568000Y-71640000D01*
X133568000Y-69330000D02*
X133568000Y-70080000D01*
X133568000Y-70080000D02*
X129268000Y-70080000D01*
X129268000Y-70080000D02*
X129268000Y-69330000D01*
X129268000Y-69330000D02*
X128918000Y-69330000D01*
X128918000Y-69330000D02*
X128918000Y-69830000D01*
X128918000Y-69830000D02*
X127918000Y-70080000D01*
X127918000Y-70080000D02*
X127918000Y-67080000D01*
X127918000Y-67080000D02*
X128918000Y-67330000D01*
X128918000Y-67330000D02*
X128918000Y-67830000D01*
X128918000Y-67830000D02*
X129268000Y-67830000D01*
X129268000Y-67830000D02*
X129268000Y-67080000D01*
X129268000Y-67080000D02*
X133568000Y-67080000D01*
X133568000Y-67080000D02*
X133568000Y-67830000D01*
X133568000Y-65520000D02*
X133568000Y-66270000D01*
X133568000Y-66270000D02*
X129268000Y-66270000D01*
X129268000Y-66270000D02*
X129268000Y-65520000D01*
X129268000Y-65520000D02*
X128918000Y-65520000D01*
X128918000Y-65520000D02*
X128918000Y-66020000D01*
X128918000Y-66020000D02*
X127918000Y-66270000D01*
X127918000Y-66270000D02*
X127918000Y-63270000D01*
X127918000Y-63270000D02*
X128918000Y-63520000D01*
X128918000Y-63520000D02*
X128918000Y-64020000D01*
X128918000Y-64020000D02*
X129268000Y-64020000D01*
X129268000Y-64020000D02*
X129268000Y-63270000D01*
X129268000Y-63270000D02*
X133568000Y-63270000D01*
X133568000Y-63270000D02*
X133568000Y-64020000D01*
X127818000Y-98350000D02*
X126568000Y-98350000D01*
X126568000Y-98350000D02*
X126568000Y-96350000D01*
X133567845Y-94500353D02*
G75*
G03*
X133568000Y-96000000I1700155J-749647D01*
G01*
X133567845Y-90690353D02*
G75*
G03*
X133568000Y-92190000I1700155J-749647D01*
G01*
X133567845Y-86880353D02*
G75*
G03*
X133568000Y-88380000I1700155J-749647D01*
G01*
X133567845Y-83070353D02*
G75*
G03*
X133568000Y-84570000I1700155J-749647D01*
G01*
X133567845Y-79260353D02*
G75*
G03*
X133568000Y-80760000I1700155J-749647D01*
G01*
X133567845Y-75450353D02*
G75*
G03*
X133568000Y-76950000I1700155J-749647D01*
G01*
X133567845Y-71640353D02*
G75*
G03*
X133568000Y-73140000I1700155J-749647D01*
G01*
X133567845Y-67830353D02*
G75*
G03*
X133568000Y-69330000I1700155J-749647D01*
G01*
X133567845Y-64020353D02*
G75*
G03*
X133568000Y-65520000I1700155J-749647D01*
G01*
%TO.C,J3*%
X163905000Y-103200000D02*
X165905000Y-103200000D01*
X163905000Y-104450000D02*
X163905000Y-103200000D01*
X187555000Y-110200000D02*
X186805000Y-110200000D01*
X187555000Y-105900000D02*
X187555000Y-110200000D01*
X186805000Y-105900000D02*
X187555000Y-105900000D01*
X186805000Y-105550000D02*
X186805000Y-105900000D01*
X187305000Y-105550000D02*
X186805000Y-105550000D01*
X187555000Y-104550000D02*
X187305000Y-105550000D01*
X184555000Y-104550000D02*
X187555000Y-104550000D01*
X184805000Y-105550000D02*
X184555000Y-104550000D01*
X185305000Y-105550000D02*
X184805000Y-105550000D01*
X185305000Y-105900000D02*
X185305000Y-105550000D01*
X184555000Y-105900000D02*
X185305000Y-105900000D01*
X184555000Y-110200000D02*
X184555000Y-105900000D01*
X185305000Y-110200000D02*
X184555000Y-110200000D01*
X183745000Y-110200000D02*
X182995000Y-110200000D01*
X183745000Y-105900000D02*
X183745000Y-110200000D01*
X182995000Y-105900000D02*
X183745000Y-105900000D01*
X182995000Y-105550000D02*
X182995000Y-105900000D01*
X183495000Y-105550000D02*
X182995000Y-105550000D01*
X183745000Y-104550000D02*
X183495000Y-105550000D01*
X180745000Y-104550000D02*
X183745000Y-104550000D01*
X180995000Y-105550000D02*
X180745000Y-104550000D01*
X181495000Y-105550000D02*
X180995000Y-105550000D01*
X181495000Y-105900000D02*
X181495000Y-105550000D01*
X180745000Y-105900000D02*
X181495000Y-105900000D01*
X180745000Y-110200000D02*
X180745000Y-105900000D01*
X181495000Y-110200000D02*
X180745000Y-110200000D01*
X179935000Y-110200000D02*
X179185000Y-110200000D01*
X179935000Y-105900000D02*
X179935000Y-110200000D01*
X179185000Y-105900000D02*
X179935000Y-105900000D01*
X179185000Y-105550000D02*
X179185000Y-105900000D01*
X179685000Y-105550000D02*
X179185000Y-105550000D01*
X179935000Y-104550000D02*
X179685000Y-105550000D01*
X176935000Y-104550000D02*
X179935000Y-104550000D01*
X177185000Y-105550000D02*
X176935000Y-104550000D01*
X177685000Y-105550000D02*
X177185000Y-105550000D01*
X177685000Y-105900000D02*
X177685000Y-105550000D01*
X176935000Y-105900000D02*
X177685000Y-105900000D01*
X176935000Y-110200000D02*
X176935000Y-105900000D01*
X177685000Y-110200000D02*
X176935000Y-110200000D01*
X176125000Y-110200000D02*
X175375000Y-110200000D01*
X176125000Y-105900000D02*
X176125000Y-110200000D01*
X175375000Y-105900000D02*
X176125000Y-105900000D01*
X175375000Y-105550000D02*
X175375000Y-105900000D01*
X175875000Y-105550000D02*
X175375000Y-105550000D01*
X176125000Y-104550000D02*
X175875000Y-105550000D01*
X173125000Y-104550000D02*
X176125000Y-104550000D01*
X173375000Y-105550000D02*
X173125000Y-104550000D01*
X173875000Y-105550000D02*
X173375000Y-105550000D01*
X173875000Y-105900000D02*
X173875000Y-105550000D01*
X173125000Y-105900000D02*
X173875000Y-105900000D01*
X173125000Y-110200000D02*
X173125000Y-105900000D01*
X173875000Y-110200000D02*
X173125000Y-110200000D01*
X172315000Y-110200000D02*
X171565000Y-110200000D01*
X172315000Y-105900000D02*
X172315000Y-110200000D01*
X171565000Y-105900000D02*
X172315000Y-105900000D01*
X171565000Y-105550000D02*
X171565000Y-105900000D01*
X172065000Y-105550000D02*
X171565000Y-105550000D01*
X172315000Y-104550000D02*
X172065000Y-105550000D01*
X169315000Y-104550000D02*
X172315000Y-104550000D01*
X169565000Y-105550000D02*
X169315000Y-104550000D01*
X170065000Y-105550000D02*
X169565000Y-105550000D01*
X170065000Y-105900000D02*
X170065000Y-105550000D01*
X169315000Y-105900000D02*
X170065000Y-105900000D01*
X169315000Y-110200000D02*
X169315000Y-105900000D01*
X170065000Y-110200000D02*
X169315000Y-110200000D01*
X168505000Y-110200000D02*
X167755000Y-110200000D01*
X168505000Y-105900000D02*
X168505000Y-110200000D01*
X167755000Y-105900000D02*
X168505000Y-105900000D01*
X167755000Y-105550000D02*
X167755000Y-105900000D01*
X168255000Y-105550000D02*
X167755000Y-105550000D01*
X168505000Y-104550000D02*
X168255000Y-105550000D01*
X165505000Y-104550000D02*
X168505000Y-104550000D01*
X165755000Y-105550000D02*
X165505000Y-104550000D01*
X166255000Y-105550000D02*
X165755000Y-105550000D01*
X166255000Y-105900000D02*
X166255000Y-105550000D01*
X165505000Y-105900000D02*
X166255000Y-105900000D01*
X165505000Y-110200000D02*
X165505000Y-105900000D01*
X166255000Y-110200000D02*
X165505000Y-110200000D01*
X188735000Y-103620000D02*
X164325000Y-103620000D01*
X188735000Y-111030000D02*
X188735000Y-103620000D01*
X164325000Y-111030000D02*
X188735000Y-111030000D01*
X164325000Y-103620000D02*
X164325000Y-111030000D01*
X186804647Y-110199845D02*
G75*
G03*
X185305000Y-110200000I-749647J-1700155D01*
G01*
X182994647Y-110199845D02*
G75*
G03*
X181495000Y-110200000I-749647J-1700155D01*
G01*
X179184647Y-110199845D02*
G75*
G03*
X177685000Y-110200000I-749647J-1700155D01*
G01*
X175374647Y-110199845D02*
G75*
G03*
X173875000Y-110200000I-749647J-1700155D01*
G01*
X171564647Y-110199845D02*
G75*
G03*
X170065000Y-110200000I-749647J-1700155D01*
G01*
X167754647Y-110199845D02*
G75*
G03*
X166255000Y-110200000I-749647J-1700155D01*
G01*
%TO.C,J4*%
X180670000Y-97080000D02*
X180670000Y-95080000D01*
X181920000Y-97080000D02*
X180670000Y-97080000D01*
X187670000Y-62000000D02*
X187670000Y-62750000D01*
X183370000Y-62000000D02*
X187670000Y-62000000D01*
X183370000Y-62750000D02*
X183370000Y-62000000D01*
X183020000Y-62750000D02*
X183370000Y-62750000D01*
X183020000Y-62250000D02*
X183020000Y-62750000D01*
X182020000Y-62000000D02*
X183020000Y-62250000D01*
X182020000Y-65000000D02*
X182020000Y-62000000D01*
X183020000Y-64750000D02*
X182020000Y-65000000D01*
X183020000Y-64250000D02*
X183020000Y-64750000D01*
X183370000Y-64250000D02*
X183020000Y-64250000D01*
X183370000Y-65000000D02*
X183370000Y-64250000D01*
X187670000Y-65000000D02*
X183370000Y-65000000D01*
X187670000Y-64250000D02*
X187670000Y-65000000D01*
X187670000Y-65810000D02*
X187670000Y-66560000D01*
X183370000Y-65810000D02*
X187670000Y-65810000D01*
X183370000Y-66560000D02*
X183370000Y-65810000D01*
X183020000Y-66560000D02*
X183370000Y-66560000D01*
X183020000Y-66060000D02*
X183020000Y-66560000D01*
X182020000Y-65810000D02*
X183020000Y-66060000D01*
X182020000Y-68810000D02*
X182020000Y-65810000D01*
X183020000Y-68560000D02*
X182020000Y-68810000D01*
X183020000Y-68060000D02*
X183020000Y-68560000D01*
X183370000Y-68060000D02*
X183020000Y-68060000D01*
X183370000Y-68810000D02*
X183370000Y-68060000D01*
X187670000Y-68810000D02*
X183370000Y-68810000D01*
X187670000Y-68060000D02*
X187670000Y-68810000D01*
X187670000Y-69620000D02*
X187670000Y-70370000D01*
X183370000Y-69620000D02*
X187670000Y-69620000D01*
X183370000Y-70370000D02*
X183370000Y-69620000D01*
X183020000Y-70370000D02*
X183370000Y-70370000D01*
X183020000Y-69870000D02*
X183020000Y-70370000D01*
X182020000Y-69620000D02*
X183020000Y-69870000D01*
X182020000Y-72620000D02*
X182020000Y-69620000D01*
X183020000Y-72370000D02*
X182020000Y-72620000D01*
X183020000Y-71870000D02*
X183020000Y-72370000D01*
X183370000Y-71870000D02*
X183020000Y-71870000D01*
X183370000Y-72620000D02*
X183370000Y-71870000D01*
X187670000Y-72620000D02*
X183370000Y-72620000D01*
X187670000Y-71870000D02*
X187670000Y-72620000D01*
X187670000Y-73430000D02*
X187670000Y-74180000D01*
X183370000Y-73430000D02*
X187670000Y-73430000D01*
X183370000Y-74180000D02*
X183370000Y-73430000D01*
X183020000Y-74180000D02*
X183370000Y-74180000D01*
X183020000Y-73680000D02*
X183020000Y-74180000D01*
X182020000Y-73430000D02*
X183020000Y-73680000D01*
X182020000Y-76430000D02*
X182020000Y-73430000D01*
X183020000Y-76180000D02*
X182020000Y-76430000D01*
X183020000Y-75680000D02*
X183020000Y-76180000D01*
X183370000Y-75680000D02*
X183020000Y-75680000D01*
X183370000Y-76430000D02*
X183370000Y-75680000D01*
X187670000Y-76430000D02*
X183370000Y-76430000D01*
X187670000Y-75680000D02*
X187670000Y-76430000D01*
X187670000Y-77240000D02*
X187670000Y-77990000D01*
X183370000Y-77240000D02*
X187670000Y-77240000D01*
X183370000Y-77990000D02*
X183370000Y-77240000D01*
X183020000Y-77990000D02*
X183370000Y-77990000D01*
X183020000Y-77490000D02*
X183020000Y-77990000D01*
X182020000Y-77240000D02*
X183020000Y-77490000D01*
X182020000Y-80240000D02*
X182020000Y-77240000D01*
X183020000Y-79990000D02*
X182020000Y-80240000D01*
X183020000Y-79490000D02*
X183020000Y-79990000D01*
X183370000Y-79490000D02*
X183020000Y-79490000D01*
X183370000Y-80240000D02*
X183370000Y-79490000D01*
X187670000Y-80240000D02*
X183370000Y-80240000D01*
X187670000Y-79490000D02*
X187670000Y-80240000D01*
X187670000Y-81050000D02*
X187670000Y-81800000D01*
X183370000Y-81050000D02*
X187670000Y-81050000D01*
X183370000Y-81800000D02*
X183370000Y-81050000D01*
X183020000Y-81800000D02*
X183370000Y-81800000D01*
X183020000Y-81300000D02*
X183020000Y-81800000D01*
X182020000Y-81050000D02*
X183020000Y-81300000D01*
X182020000Y-84050000D02*
X182020000Y-81050000D01*
X183020000Y-83800000D02*
X182020000Y-84050000D01*
X183020000Y-83300000D02*
X183020000Y-83800000D01*
X183370000Y-83300000D02*
X183020000Y-83300000D01*
X183370000Y-84050000D02*
X183370000Y-83300000D01*
X187670000Y-84050000D02*
X183370000Y-84050000D01*
X187670000Y-83300000D02*
X187670000Y-84050000D01*
X187670000Y-84860000D02*
X187670000Y-85610000D01*
X183370000Y-84860000D02*
X187670000Y-84860000D01*
X183370000Y-85610000D02*
X183370000Y-84860000D01*
X183020000Y-85610000D02*
X183370000Y-85610000D01*
X183020000Y-85110000D02*
X183020000Y-85610000D01*
X182020000Y-84860000D02*
X183020000Y-85110000D01*
X182020000Y-87860000D02*
X182020000Y-84860000D01*
X183020000Y-87610000D02*
X182020000Y-87860000D01*
X183020000Y-87110000D02*
X183020000Y-87610000D01*
X183370000Y-87110000D02*
X183020000Y-87110000D01*
X183370000Y-87860000D02*
X183370000Y-87110000D01*
X187670000Y-87860000D02*
X183370000Y-87860000D01*
X187670000Y-87110000D02*
X187670000Y-87860000D01*
X187670000Y-88670000D02*
X187670000Y-89420000D01*
X183370000Y-88670000D02*
X187670000Y-88670000D01*
X183370000Y-89420000D02*
X183370000Y-88670000D01*
X183020000Y-89420000D02*
X183370000Y-89420000D01*
X183020000Y-88920000D02*
X183020000Y-89420000D01*
X182020000Y-88670000D02*
X183020000Y-88920000D01*
X182020000Y-91670000D02*
X182020000Y-88670000D01*
X183020000Y-91420000D02*
X182020000Y-91670000D01*
X183020000Y-90920000D02*
X183020000Y-91420000D01*
X183370000Y-90920000D02*
X183020000Y-90920000D01*
X183370000Y-91670000D02*
X183370000Y-90920000D01*
X187670000Y-91670000D02*
X183370000Y-91670000D01*
X187670000Y-90920000D02*
X187670000Y-91670000D01*
X187670000Y-92480000D02*
X187670000Y-93230000D01*
X183370000Y-92480000D02*
X187670000Y-92480000D01*
X183370000Y-93230000D02*
X183370000Y-92480000D01*
X183020000Y-93230000D02*
X183370000Y-93230000D01*
X183020000Y-92730000D02*
X183020000Y-93230000D01*
X182020000Y-92480000D02*
X183020000Y-92730000D01*
X182020000Y-95480000D02*
X182020000Y-92480000D01*
X183020000Y-95230000D02*
X182020000Y-95480000D01*
X183020000Y-94730000D02*
X183020000Y-95230000D01*
X183370000Y-94730000D02*
X183020000Y-94730000D01*
X183370000Y-95480000D02*
X183370000Y-94730000D01*
X187670000Y-95480000D02*
X183370000Y-95480000D01*
X187670000Y-94730000D02*
X187670000Y-95480000D01*
X181090000Y-60820000D02*
X181090000Y-96660000D01*
X188500000Y-60820000D02*
X181090000Y-60820000D01*
X188500000Y-96660000D02*
X188500000Y-60820000D01*
X181090000Y-96660000D02*
X188500000Y-96660000D01*
X187669845Y-62750353D02*
G75*
G03*
X187670000Y-64250000I1700155J-749647D01*
G01*
X187669845Y-66560353D02*
G75*
G03*
X187670000Y-68060000I1700155J-749647D01*
G01*
X187669845Y-70370353D02*
G75*
G03*
X187670000Y-71870000I1700155J-749647D01*
G01*
X187669845Y-74180353D02*
G75*
G03*
X187670000Y-75680000I1700155J-749647D01*
G01*
X187669845Y-77990353D02*
G75*
G03*
X187670000Y-79490000I1700155J-749647D01*
G01*
X187669845Y-81800353D02*
G75*
G03*
X187670000Y-83300000I1700155J-749647D01*
G01*
X187669845Y-85610353D02*
G75*
G03*
X187670000Y-87110000I1700155J-749647D01*
G01*
X187669845Y-89420353D02*
G75*
G03*
X187670000Y-90920000I1700155J-749647D01*
G01*
X187669845Y-93230353D02*
G75*
G03*
X187670000Y-94730000I1700155J-749647D01*
G01*
%TO.C,J5*%
X167120000Y-96660000D02*
X174530000Y-96660000D01*
X174530000Y-96660000D02*
X174530000Y-60820000D01*
X174530000Y-60820000D02*
X167120000Y-60820000D01*
X167120000Y-60820000D02*
X167120000Y-96660000D01*
X173700000Y-94730000D02*
X173700000Y-95480000D01*
X173700000Y-95480000D02*
X169400000Y-95480000D01*
X169400000Y-95480000D02*
X169400000Y-94730000D01*
X169400000Y-94730000D02*
X169050000Y-94730000D01*
X169050000Y-94730000D02*
X169050000Y-95230000D01*
X169050000Y-95230000D02*
X168050000Y-95480000D01*
X168050000Y-95480000D02*
X168050000Y-92480000D01*
X168050000Y-92480000D02*
X169050000Y-92730000D01*
X169050000Y-92730000D02*
X169050000Y-93230000D01*
X169050000Y-93230000D02*
X169400000Y-93230000D01*
X169400000Y-93230000D02*
X169400000Y-92480000D01*
X169400000Y-92480000D02*
X173700000Y-92480000D01*
X173700000Y-92480000D02*
X173700000Y-93230000D01*
X173700000Y-90920000D02*
X173700000Y-91670000D01*
X173700000Y-91670000D02*
X169400000Y-91670000D01*
X169400000Y-91670000D02*
X169400000Y-90920000D01*
X169400000Y-90920000D02*
X169050000Y-90920000D01*
X169050000Y-90920000D02*
X169050000Y-91420000D01*
X169050000Y-91420000D02*
X168050000Y-91670000D01*
X168050000Y-91670000D02*
X168050000Y-88670000D01*
X168050000Y-88670000D02*
X169050000Y-88920000D01*
X169050000Y-88920000D02*
X169050000Y-89420000D01*
X169050000Y-89420000D02*
X169400000Y-89420000D01*
X169400000Y-89420000D02*
X169400000Y-88670000D01*
X169400000Y-88670000D02*
X173700000Y-88670000D01*
X173700000Y-88670000D02*
X173700000Y-89420000D01*
X173700000Y-87110000D02*
X173700000Y-87860000D01*
X173700000Y-87860000D02*
X169400000Y-87860000D01*
X169400000Y-87860000D02*
X169400000Y-87110000D01*
X169400000Y-87110000D02*
X169050000Y-87110000D01*
X169050000Y-87110000D02*
X169050000Y-87610000D01*
X169050000Y-87610000D02*
X168050000Y-87860000D01*
X168050000Y-87860000D02*
X168050000Y-84860000D01*
X168050000Y-84860000D02*
X169050000Y-85110000D01*
X169050000Y-85110000D02*
X169050000Y-85610000D01*
X169050000Y-85610000D02*
X169400000Y-85610000D01*
X169400000Y-85610000D02*
X169400000Y-84860000D01*
X169400000Y-84860000D02*
X173700000Y-84860000D01*
X173700000Y-84860000D02*
X173700000Y-85610000D01*
X173700000Y-83300000D02*
X173700000Y-84050000D01*
X173700000Y-84050000D02*
X169400000Y-84050000D01*
X169400000Y-84050000D02*
X169400000Y-83300000D01*
X169400000Y-83300000D02*
X169050000Y-83300000D01*
X169050000Y-83300000D02*
X169050000Y-83800000D01*
X169050000Y-83800000D02*
X168050000Y-84050000D01*
X168050000Y-84050000D02*
X168050000Y-81050000D01*
X168050000Y-81050000D02*
X169050000Y-81300000D01*
X169050000Y-81300000D02*
X169050000Y-81800000D01*
X169050000Y-81800000D02*
X169400000Y-81800000D01*
X169400000Y-81800000D02*
X169400000Y-81050000D01*
X169400000Y-81050000D02*
X173700000Y-81050000D01*
X173700000Y-81050000D02*
X173700000Y-81800000D01*
X173700000Y-79490000D02*
X173700000Y-80240000D01*
X173700000Y-80240000D02*
X169400000Y-80240000D01*
X169400000Y-80240000D02*
X169400000Y-79490000D01*
X169400000Y-79490000D02*
X169050000Y-79490000D01*
X169050000Y-79490000D02*
X169050000Y-79990000D01*
X169050000Y-79990000D02*
X168050000Y-80240000D01*
X168050000Y-80240000D02*
X168050000Y-77240000D01*
X168050000Y-77240000D02*
X169050000Y-77490000D01*
X169050000Y-77490000D02*
X169050000Y-77990000D01*
X169050000Y-77990000D02*
X169400000Y-77990000D01*
X169400000Y-77990000D02*
X169400000Y-77240000D01*
X169400000Y-77240000D02*
X173700000Y-77240000D01*
X173700000Y-77240000D02*
X173700000Y-77990000D01*
X173700000Y-75680000D02*
X173700000Y-76430000D01*
X173700000Y-76430000D02*
X169400000Y-76430000D01*
X169400000Y-76430000D02*
X169400000Y-75680000D01*
X169400000Y-75680000D02*
X169050000Y-75680000D01*
X169050000Y-75680000D02*
X169050000Y-76180000D01*
X169050000Y-76180000D02*
X168050000Y-76430000D01*
X168050000Y-76430000D02*
X168050000Y-73430000D01*
X168050000Y-73430000D02*
X169050000Y-73680000D01*
X169050000Y-73680000D02*
X169050000Y-74180000D01*
X169050000Y-74180000D02*
X169400000Y-74180000D01*
X169400000Y-74180000D02*
X169400000Y-73430000D01*
X169400000Y-73430000D02*
X173700000Y-73430000D01*
X173700000Y-73430000D02*
X173700000Y-74180000D01*
X173700000Y-71870000D02*
X173700000Y-72620000D01*
X173700000Y-72620000D02*
X169400000Y-72620000D01*
X169400000Y-72620000D02*
X169400000Y-71870000D01*
X169400000Y-71870000D02*
X169050000Y-71870000D01*
X169050000Y-71870000D02*
X169050000Y-72370000D01*
X169050000Y-72370000D02*
X168050000Y-72620000D01*
X168050000Y-72620000D02*
X168050000Y-69620000D01*
X168050000Y-69620000D02*
X169050000Y-69870000D01*
X169050000Y-69870000D02*
X169050000Y-70370000D01*
X169050000Y-70370000D02*
X169400000Y-70370000D01*
X169400000Y-70370000D02*
X169400000Y-69620000D01*
X169400000Y-69620000D02*
X173700000Y-69620000D01*
X173700000Y-69620000D02*
X173700000Y-70370000D01*
X173700000Y-68060000D02*
X173700000Y-68810000D01*
X173700000Y-68810000D02*
X169400000Y-68810000D01*
X169400000Y-68810000D02*
X169400000Y-68060000D01*
X169400000Y-68060000D02*
X169050000Y-68060000D01*
X169050000Y-68060000D02*
X169050000Y-68560000D01*
X169050000Y-68560000D02*
X168050000Y-68810000D01*
X168050000Y-68810000D02*
X168050000Y-65810000D01*
X168050000Y-65810000D02*
X169050000Y-66060000D01*
X169050000Y-66060000D02*
X169050000Y-66560000D01*
X169050000Y-66560000D02*
X169400000Y-66560000D01*
X169400000Y-66560000D02*
X169400000Y-65810000D01*
X169400000Y-65810000D02*
X173700000Y-65810000D01*
X173700000Y-65810000D02*
X173700000Y-66560000D01*
X173700000Y-64250000D02*
X173700000Y-65000000D01*
X173700000Y-65000000D02*
X169400000Y-65000000D01*
X169400000Y-65000000D02*
X169400000Y-64250000D01*
X169400000Y-64250000D02*
X169050000Y-64250000D01*
X169050000Y-64250000D02*
X169050000Y-64750000D01*
X169050000Y-64750000D02*
X168050000Y-65000000D01*
X168050000Y-65000000D02*
X168050000Y-62000000D01*
X168050000Y-62000000D02*
X169050000Y-62250000D01*
X169050000Y-62250000D02*
X169050000Y-62750000D01*
X169050000Y-62750000D02*
X169400000Y-62750000D01*
X169400000Y-62750000D02*
X169400000Y-62000000D01*
X169400000Y-62000000D02*
X173700000Y-62000000D01*
X173700000Y-62000000D02*
X173700000Y-62750000D01*
X167950000Y-97080000D02*
X166700000Y-97080000D01*
X166700000Y-97080000D02*
X166700000Y-95080000D01*
X173699845Y-93230353D02*
G75*
G03*
X173700000Y-94730000I1700155J-749647D01*
G01*
X173699845Y-89420353D02*
G75*
G03*
X173700000Y-90920000I1700155J-749647D01*
G01*
X173699845Y-85610353D02*
G75*
G03*
X173700000Y-87110000I1700155J-749647D01*
G01*
X173699845Y-81800353D02*
G75*
G03*
X173700000Y-83300000I1700155J-749647D01*
G01*
X173699845Y-77990353D02*
G75*
G03*
X173700000Y-79490000I1700155J-749647D01*
G01*
X173699845Y-74180353D02*
G75*
G03*
X173700000Y-75680000I1700155J-749647D01*
G01*
X173699845Y-70370353D02*
G75*
G03*
X173700000Y-71870000I1700155J-749647D01*
G01*
X173699845Y-66560353D02*
G75*
G03*
X173700000Y-68060000I1700155J-749647D01*
G01*
X173699845Y-62750353D02*
G75*
G03*
X173700000Y-64250000I1700155J-749647D01*
G01*
%TO.C,R1*%
X138395000Y-96130000D02*
X137195000Y-96130000D01*
X137195000Y-94370000D02*
X138395000Y-94370000D01*
%TO.C,R2*%
X137195000Y-90560000D02*
X138395000Y-90560000D01*
X138395000Y-92320000D02*
X137195000Y-92320000D01*
%TO.C,R3*%
X138395000Y-88510000D02*
X137195000Y-88510000D01*
X137195000Y-86750000D02*
X138395000Y-86750000D01*
%TO.C,R4*%
X137195000Y-82940000D02*
X138395000Y-82940000D01*
X138395000Y-84700000D02*
X137195000Y-84700000D01*
%TO.C,R5*%
X138395000Y-80890000D02*
X137195000Y-80890000D01*
X137195000Y-79130000D02*
X138395000Y-79130000D01*
%TO.C,R6*%
X137195000Y-75320000D02*
X138395000Y-75320000D01*
X138395000Y-77080000D02*
X137195000Y-77080000D01*
%TO.C,R7*%
X137195000Y-71510000D02*
X138395000Y-71510000D01*
X138395000Y-73270000D02*
X137195000Y-73270000D01*
%TO.C,R8*%
X138395000Y-69460000D02*
X137195000Y-69460000D01*
X137195000Y-67700000D02*
X138395000Y-67700000D01*
%TO.C,R9*%
X137195000Y-63890000D02*
X138395000Y-63890000D01*
X138395000Y-65650000D02*
X137195000Y-65650000D01*
D10*
%TO.C,XA1*%
X160274000Y-60051001D02*
X142240000Y-60051001D01*
X160240000Y-110531001D02*
X142240000Y-110531001D01*
X160274000Y-60051001D02*
X160274000Y-110531001D01*
X160240000Y-62051001D02*
X142240000Y-62051001D01*
X142240000Y-60051001D02*
X142240000Y-110531001D01*
D11*
%TO.C,C1*%
X122948000Y-94400000D02*
X121948000Y-94400000D01*
X121948000Y-96100000D02*
X122948000Y-96100000D01*
%TO.C,C2*%
X121928000Y-92290000D02*
X122928000Y-92290000D01*
X122928000Y-90590000D02*
X121928000Y-90590000D01*
%TO.C,C3*%
X122928000Y-86780000D02*
X121928000Y-86780000D01*
X121928000Y-88480000D02*
X122928000Y-88480000D01*
%TO.C,C4*%
X121928000Y-84670000D02*
X122928000Y-84670000D01*
X122928000Y-82970000D02*
X121928000Y-82970000D01*
%TO.C,C5*%
X122928000Y-79160000D02*
X121928000Y-79160000D01*
X121928000Y-80860000D02*
X122928000Y-80860000D01*
%TO.C,C6*%
X121928000Y-77050000D02*
X122928000Y-77050000D01*
X122928000Y-75350000D02*
X121928000Y-75350000D01*
%TO.C,C7*%
X122928000Y-71540000D02*
X121928000Y-71540000D01*
X121928000Y-73240000D02*
X122928000Y-73240000D01*
%TO.C,C8*%
X121928000Y-69430000D02*
X122928000Y-69430000D01*
X122928000Y-67730000D02*
X121928000Y-67730000D01*
%TO.C,C9*%
X122928000Y-63920000D02*
X121928000Y-63920000D01*
X121928000Y-65620000D02*
X122928000Y-65620000D01*
%TO.C,J1*%
D10*
X109902666Y-98766380D02*
X109902666Y-99480666D01*
X109855047Y-99623523D01*
X109759809Y-99718761D01*
X109616952Y-99766380D01*
X109521714Y-99766380D01*
X110902666Y-99766380D02*
X110331238Y-99766380D01*
X110616952Y-99766380D02*
X110616952Y-98766380D01*
X110521714Y-98909238D01*
X110426476Y-99004476D01*
X110331238Y-99052095D01*
%TO.C,J2*%
X126920666Y-98766380D02*
X126920666Y-99480666D01*
X126873047Y-99623523D01*
X126777809Y-99718761D01*
X126634952Y-99766380D01*
X126539714Y-99766380D01*
X127349238Y-98861619D02*
X127396857Y-98814000D01*
X127492095Y-98766380D01*
X127730190Y-98766380D01*
X127825428Y-98814000D01*
X127873047Y-98861619D01*
X127920666Y-98956857D01*
X127920666Y-99052095D01*
X127873047Y-99194952D01*
X127301619Y-99766380D01*
X127920666Y-99766380D01*
%TO.C,J3*%
X162353666Y-110196380D02*
X162353666Y-110910666D01*
X162306047Y-111053523D01*
X162210809Y-111148761D01*
X162067952Y-111196380D01*
X161972714Y-111196380D01*
X162734619Y-110196380D02*
X163353666Y-110196380D01*
X163020333Y-110577333D01*
X163163190Y-110577333D01*
X163258428Y-110624952D01*
X163306047Y-110672571D01*
X163353666Y-110767809D01*
X163353666Y-111005904D01*
X163306047Y-111101142D01*
X163258428Y-111148761D01*
X163163190Y-111196380D01*
X162877476Y-111196380D01*
X162782238Y-111148761D01*
X162734619Y-111101142D01*
%TO.C,J4*%
X180768666Y-97750380D02*
X180768666Y-98464666D01*
X180721047Y-98607523D01*
X180625809Y-98702761D01*
X180482952Y-98750380D01*
X180387714Y-98750380D01*
X181673428Y-98083714D02*
X181673428Y-98750380D01*
X181435333Y-97702761D02*
X181197238Y-98417047D01*
X181816285Y-98417047D01*
%TO.C,J5*%
X167052666Y-97750380D02*
X167052666Y-98464666D01*
X167005047Y-98607523D01*
X166909809Y-98702761D01*
X166766952Y-98750380D01*
X166671714Y-98750380D01*
X168005047Y-97750380D02*
X167528857Y-97750380D01*
X167481238Y-98226571D01*
X167528857Y-98178952D01*
X167624095Y-98131333D01*
X167862190Y-98131333D01*
X167957428Y-98178952D01*
X168005047Y-98226571D01*
X168052666Y-98321809D01*
X168052666Y-98559904D01*
X168005047Y-98655142D01*
X167957428Y-98702761D01*
X167862190Y-98750380D01*
X167624095Y-98750380D01*
X167528857Y-98702761D01*
X167481238Y-98655142D01*
%TO.C,R1*%
X137628333Y-97734380D02*
X137295000Y-97258190D01*
X137056904Y-97734380D02*
X137056904Y-96734380D01*
X137437857Y-96734380D01*
X137533095Y-96782000D01*
X137580714Y-96829619D01*
X137628333Y-96924857D01*
X137628333Y-97067714D01*
X137580714Y-97162952D01*
X137533095Y-97210571D01*
X137437857Y-97258190D01*
X137056904Y-97258190D01*
X138580714Y-97734380D02*
X138009285Y-97734380D01*
X138295000Y-97734380D02*
X138295000Y-96734380D01*
X138199761Y-96877238D01*
X138104523Y-96972476D01*
X138009285Y-97020095D01*
%TO.C,R2*%
X137628333Y-93924380D02*
X137295000Y-93448190D01*
X137056904Y-93924380D02*
X137056904Y-92924380D01*
X137437857Y-92924380D01*
X137533095Y-92972000D01*
X137580714Y-93019619D01*
X137628333Y-93114857D01*
X137628333Y-93257714D01*
X137580714Y-93352952D01*
X137533095Y-93400571D01*
X137437857Y-93448190D01*
X137056904Y-93448190D01*
X138009285Y-93019619D02*
X138056904Y-92972000D01*
X138152142Y-92924380D01*
X138390238Y-92924380D01*
X138485476Y-92972000D01*
X138533095Y-93019619D01*
X138580714Y-93114857D01*
X138580714Y-93210095D01*
X138533095Y-93352952D01*
X137961666Y-93924380D01*
X138580714Y-93924380D01*
%TO.C,R3*%
X137628333Y-90114380D02*
X137295000Y-89638190D01*
X137056904Y-90114380D02*
X137056904Y-89114380D01*
X137437857Y-89114380D01*
X137533095Y-89162000D01*
X137580714Y-89209619D01*
X137628333Y-89304857D01*
X137628333Y-89447714D01*
X137580714Y-89542952D01*
X137533095Y-89590571D01*
X137437857Y-89638190D01*
X137056904Y-89638190D01*
X137961666Y-89114380D02*
X138580714Y-89114380D01*
X138247380Y-89495333D01*
X138390238Y-89495333D01*
X138485476Y-89542952D01*
X138533095Y-89590571D01*
X138580714Y-89685809D01*
X138580714Y-89923904D01*
X138533095Y-90019142D01*
X138485476Y-90066761D01*
X138390238Y-90114380D01*
X138104523Y-90114380D01*
X138009285Y-90066761D01*
X137961666Y-90019142D01*
%TO.C,R4*%
X137628333Y-86304380D02*
X137295000Y-85828190D01*
X137056904Y-86304380D02*
X137056904Y-85304380D01*
X137437857Y-85304380D01*
X137533095Y-85352000D01*
X137580714Y-85399619D01*
X137628333Y-85494857D01*
X137628333Y-85637714D01*
X137580714Y-85732952D01*
X137533095Y-85780571D01*
X137437857Y-85828190D01*
X137056904Y-85828190D01*
X138485476Y-85637714D02*
X138485476Y-86304380D01*
X138247380Y-85256761D02*
X138009285Y-85971047D01*
X138628333Y-85971047D01*
%TO.C,R5*%
X137628333Y-82494380D02*
X137295000Y-82018190D01*
X137056904Y-82494380D02*
X137056904Y-81494380D01*
X137437857Y-81494380D01*
X137533095Y-81542000D01*
X137580714Y-81589619D01*
X137628333Y-81684857D01*
X137628333Y-81827714D01*
X137580714Y-81922952D01*
X137533095Y-81970571D01*
X137437857Y-82018190D01*
X137056904Y-82018190D01*
X138533095Y-81494380D02*
X138056904Y-81494380D01*
X138009285Y-81970571D01*
X138056904Y-81922952D01*
X138152142Y-81875333D01*
X138390238Y-81875333D01*
X138485476Y-81922952D01*
X138533095Y-81970571D01*
X138580714Y-82065809D01*
X138580714Y-82303904D01*
X138533095Y-82399142D01*
X138485476Y-82446761D01*
X138390238Y-82494380D01*
X138152142Y-82494380D01*
X138056904Y-82446761D01*
X138009285Y-82399142D01*
%TO.C,R6*%
X137628333Y-78684380D02*
X137295000Y-78208190D01*
X137056904Y-78684380D02*
X137056904Y-77684380D01*
X137437857Y-77684380D01*
X137533095Y-77732000D01*
X137580714Y-77779619D01*
X137628333Y-77874857D01*
X137628333Y-78017714D01*
X137580714Y-78112952D01*
X137533095Y-78160571D01*
X137437857Y-78208190D01*
X137056904Y-78208190D01*
X138485476Y-77684380D02*
X138295000Y-77684380D01*
X138199761Y-77732000D01*
X138152142Y-77779619D01*
X138056904Y-77922476D01*
X138009285Y-78112952D01*
X138009285Y-78493904D01*
X138056904Y-78589142D01*
X138104523Y-78636761D01*
X138199761Y-78684380D01*
X138390238Y-78684380D01*
X138485476Y-78636761D01*
X138533095Y-78589142D01*
X138580714Y-78493904D01*
X138580714Y-78255809D01*
X138533095Y-78160571D01*
X138485476Y-78112952D01*
X138390238Y-78065333D01*
X138199761Y-78065333D01*
X138104523Y-78112952D01*
X138056904Y-78160571D01*
X138009285Y-78255809D01*
%TO.C,R7*%
X137628333Y-74874380D02*
X137295000Y-74398190D01*
X137056904Y-74874380D02*
X137056904Y-73874380D01*
X137437857Y-73874380D01*
X137533095Y-73922000D01*
X137580714Y-73969619D01*
X137628333Y-74064857D01*
X137628333Y-74207714D01*
X137580714Y-74302952D01*
X137533095Y-74350571D01*
X137437857Y-74398190D01*
X137056904Y-74398190D01*
X137961666Y-73874380D02*
X138628333Y-73874380D01*
X138199761Y-74874380D01*
%TO.C,R8*%
X137628333Y-71064380D02*
X137295000Y-70588190D01*
X137056904Y-71064380D02*
X137056904Y-70064380D01*
X137437857Y-70064380D01*
X137533095Y-70112000D01*
X137580714Y-70159619D01*
X137628333Y-70254857D01*
X137628333Y-70397714D01*
X137580714Y-70492952D01*
X137533095Y-70540571D01*
X137437857Y-70588190D01*
X137056904Y-70588190D01*
X138199761Y-70492952D02*
X138104523Y-70445333D01*
X138056904Y-70397714D01*
X138009285Y-70302476D01*
X138009285Y-70254857D01*
X138056904Y-70159619D01*
X138104523Y-70112000D01*
X138199761Y-70064380D01*
X138390238Y-70064380D01*
X138485476Y-70112000D01*
X138533095Y-70159619D01*
X138580714Y-70254857D01*
X138580714Y-70302476D01*
X138533095Y-70397714D01*
X138485476Y-70445333D01*
X138390238Y-70492952D01*
X138199761Y-70492952D01*
X138104523Y-70540571D01*
X138056904Y-70588190D01*
X138009285Y-70683428D01*
X138009285Y-70873904D01*
X138056904Y-70969142D01*
X138104523Y-71016761D01*
X138199761Y-71064380D01*
X138390238Y-71064380D01*
X138485476Y-71016761D01*
X138533095Y-70969142D01*
X138580714Y-70873904D01*
X138580714Y-70683428D01*
X138533095Y-70588190D01*
X138485476Y-70540571D01*
X138390238Y-70492952D01*
%TO.C,R9*%
X137628333Y-67254380D02*
X137295000Y-66778190D01*
X137056904Y-67254380D02*
X137056904Y-66254380D01*
X137437857Y-66254380D01*
X137533095Y-66302000D01*
X137580714Y-66349619D01*
X137628333Y-66444857D01*
X137628333Y-66587714D01*
X137580714Y-66682952D01*
X137533095Y-66730571D01*
X137437857Y-66778190D01*
X137056904Y-66778190D01*
X138104523Y-67254380D02*
X138295000Y-67254380D01*
X138390238Y-67206761D01*
X138437857Y-67159142D01*
X138533095Y-67016285D01*
X138580714Y-66825809D01*
X138580714Y-66444857D01*
X138533095Y-66349619D01*
X138485476Y-66302000D01*
X138390238Y-66254380D01*
X138199761Y-66254380D01*
X138104523Y-66302000D01*
X138056904Y-66349619D01*
X138009285Y-66444857D01*
X138009285Y-66682952D01*
X138056904Y-66778190D01*
X138104523Y-66825809D01*
X138199761Y-66873428D01*
X138390238Y-66873428D01*
X138485476Y-66825809D01*
X138533095Y-66778190D01*
X138580714Y-66682952D01*
%TO.C,XA1*%
X139096904Y-60412380D02*
X139763571Y-61412380D01*
X139763571Y-60412380D02*
X139096904Y-61412380D01*
X140096904Y-61126666D02*
X140573095Y-61126666D01*
X140001666Y-61412380D02*
X140335000Y-60412380D01*
X140668333Y-61412380D01*
X141525476Y-61412380D02*
X140954047Y-61412380D01*
X141239761Y-61412380D02*
X141239761Y-60412380D01*
X141144523Y-60555238D01*
X141049285Y-60650476D01*
X140954047Y-60698095D01*
D12*
X144760190Y-69249096D02*
X144760190Y-68939572D01*
X144950666Y-69106239D01*
X144950666Y-69034810D01*
X144974476Y-68987191D01*
X144998285Y-68963381D01*
X145045904Y-68939572D01*
X145164952Y-68939572D01*
X145212571Y-68963381D01*
X145236380Y-68987191D01*
X145260190Y-69034810D01*
X145260190Y-69177667D01*
X145236380Y-69225286D01*
X145212571Y-69249096D01*
X145212571Y-68725286D02*
X145236380Y-68701477D01*
X145260190Y-68725286D01*
X145236380Y-68749096D01*
X145212571Y-68725286D01*
X145260190Y-68725286D01*
X144760190Y-68534810D02*
X144760190Y-68225286D01*
X144950666Y-68391953D01*
X144950666Y-68320524D01*
X144974476Y-68272905D01*
X144998285Y-68249096D01*
X145045904Y-68225286D01*
X145164952Y-68225286D01*
X145212571Y-68249096D01*
X145236380Y-68272905D01*
X145260190Y-68320524D01*
X145260190Y-68463381D01*
X145236380Y-68511001D01*
X145212571Y-68534810D01*
X144760190Y-68082429D02*
X145260190Y-67915762D01*
X144760190Y-67749096D01*
X150626047Y-60761191D02*
X150626047Y-61165953D01*
X150649857Y-61213572D01*
X150673666Y-61237381D01*
X150721285Y-61261191D01*
X150816523Y-61261191D01*
X150864142Y-61237381D01*
X150887952Y-61213572D01*
X150911761Y-61165953D01*
X150911761Y-60761191D01*
X151126047Y-61237381D02*
X151197476Y-61261191D01*
X151316523Y-61261191D01*
X151364142Y-61237381D01*
X151387952Y-61213572D01*
X151411761Y-61165953D01*
X151411761Y-61118334D01*
X151387952Y-61070715D01*
X151364142Y-61046905D01*
X151316523Y-61023096D01*
X151221285Y-60999286D01*
X151173666Y-60975477D01*
X151149857Y-60951667D01*
X151126047Y-60904048D01*
X151126047Y-60856429D01*
X151149857Y-60808810D01*
X151173666Y-60785001D01*
X151221285Y-60761191D01*
X151340333Y-60761191D01*
X151411761Y-60785001D01*
X151792714Y-60999286D02*
X151864142Y-61023096D01*
X151887952Y-61046905D01*
X151911761Y-61094524D01*
X151911761Y-61165953D01*
X151887952Y-61213572D01*
X151864142Y-61237381D01*
X151816523Y-61261191D01*
X151626047Y-61261191D01*
X151626047Y-60761191D01*
X151792714Y-60761191D01*
X151840333Y-60785001D01*
X151864142Y-60808810D01*
X151887952Y-60856429D01*
X151887952Y-60904048D01*
X151864142Y-60951667D01*
X151840333Y-60975477D01*
X151792714Y-60999286D01*
X151626047Y-60999286D01*
%TO.C,C1*%
D10*
X122301333Y-97385142D02*
X122253714Y-97432761D01*
X122110857Y-97480380D01*
X122015619Y-97480380D01*
X121872761Y-97432761D01*
X121777523Y-97337523D01*
X121729904Y-97242285D01*
X121682285Y-97051809D01*
X121682285Y-96908952D01*
X121729904Y-96718476D01*
X121777523Y-96623238D01*
X121872761Y-96528000D01*
X122015619Y-96480380D01*
X122110857Y-96480380D01*
X122253714Y-96528000D01*
X122301333Y-96575619D01*
X123253714Y-97480380D02*
X122682285Y-97480380D01*
X122968000Y-97480380D02*
X122968000Y-96480380D01*
X122872761Y-96623238D01*
X122777523Y-96718476D01*
X122682285Y-96766095D01*
%TO.C,C2*%
X122261333Y-93575142D02*
X122213714Y-93622761D01*
X122070857Y-93670380D01*
X121975619Y-93670380D01*
X121832761Y-93622761D01*
X121737523Y-93527523D01*
X121689904Y-93432285D01*
X121642285Y-93241809D01*
X121642285Y-93098952D01*
X121689904Y-92908476D01*
X121737523Y-92813238D01*
X121832761Y-92718000D01*
X121975619Y-92670380D01*
X122070857Y-92670380D01*
X122213714Y-92718000D01*
X122261333Y-92765619D01*
X122642285Y-92765619D02*
X122689904Y-92718000D01*
X122785142Y-92670380D01*
X123023238Y-92670380D01*
X123118476Y-92718000D01*
X123166095Y-92765619D01*
X123213714Y-92860857D01*
X123213714Y-92956095D01*
X123166095Y-93098952D01*
X122594666Y-93670380D01*
X123213714Y-93670380D01*
%TO.C,C3*%
X122261333Y-89765142D02*
X122213714Y-89812761D01*
X122070857Y-89860380D01*
X121975619Y-89860380D01*
X121832761Y-89812761D01*
X121737523Y-89717523D01*
X121689904Y-89622285D01*
X121642285Y-89431809D01*
X121642285Y-89288952D01*
X121689904Y-89098476D01*
X121737523Y-89003238D01*
X121832761Y-88908000D01*
X121975619Y-88860380D01*
X122070857Y-88860380D01*
X122213714Y-88908000D01*
X122261333Y-88955619D01*
X122594666Y-88860380D02*
X123213714Y-88860380D01*
X122880380Y-89241333D01*
X123023238Y-89241333D01*
X123118476Y-89288952D01*
X123166095Y-89336571D01*
X123213714Y-89431809D01*
X123213714Y-89669904D01*
X123166095Y-89765142D01*
X123118476Y-89812761D01*
X123023238Y-89860380D01*
X122737523Y-89860380D01*
X122642285Y-89812761D01*
X122594666Y-89765142D01*
%TO.C,C4*%
X122261333Y-85955142D02*
X122213714Y-86002761D01*
X122070857Y-86050380D01*
X121975619Y-86050380D01*
X121832761Y-86002761D01*
X121737523Y-85907523D01*
X121689904Y-85812285D01*
X121642285Y-85621809D01*
X121642285Y-85478952D01*
X121689904Y-85288476D01*
X121737523Y-85193238D01*
X121832761Y-85098000D01*
X121975619Y-85050380D01*
X122070857Y-85050380D01*
X122213714Y-85098000D01*
X122261333Y-85145619D01*
X123118476Y-85383714D02*
X123118476Y-86050380D01*
X122880380Y-85002761D02*
X122642285Y-85717047D01*
X123261333Y-85717047D01*
%TO.C,C5*%
X122261333Y-82145142D02*
X122213714Y-82192761D01*
X122070857Y-82240380D01*
X121975619Y-82240380D01*
X121832761Y-82192761D01*
X121737523Y-82097523D01*
X121689904Y-82002285D01*
X121642285Y-81811809D01*
X121642285Y-81668952D01*
X121689904Y-81478476D01*
X121737523Y-81383238D01*
X121832761Y-81288000D01*
X121975619Y-81240380D01*
X122070857Y-81240380D01*
X122213714Y-81288000D01*
X122261333Y-81335619D01*
X123166095Y-81240380D02*
X122689904Y-81240380D01*
X122642285Y-81716571D01*
X122689904Y-81668952D01*
X122785142Y-81621333D01*
X123023238Y-81621333D01*
X123118476Y-81668952D01*
X123166095Y-81716571D01*
X123213714Y-81811809D01*
X123213714Y-82049904D01*
X123166095Y-82145142D01*
X123118476Y-82192761D01*
X123023238Y-82240380D01*
X122785142Y-82240380D01*
X122689904Y-82192761D01*
X122642285Y-82145142D01*
%TO.C,C6*%
X122261333Y-78335142D02*
X122213714Y-78382761D01*
X122070857Y-78430380D01*
X121975619Y-78430380D01*
X121832761Y-78382761D01*
X121737523Y-78287523D01*
X121689904Y-78192285D01*
X121642285Y-78001809D01*
X121642285Y-77858952D01*
X121689904Y-77668476D01*
X121737523Y-77573238D01*
X121832761Y-77478000D01*
X121975619Y-77430380D01*
X122070857Y-77430380D01*
X122213714Y-77478000D01*
X122261333Y-77525619D01*
X123118476Y-77430380D02*
X122928000Y-77430380D01*
X122832761Y-77478000D01*
X122785142Y-77525619D01*
X122689904Y-77668476D01*
X122642285Y-77858952D01*
X122642285Y-78239904D01*
X122689904Y-78335142D01*
X122737523Y-78382761D01*
X122832761Y-78430380D01*
X123023238Y-78430380D01*
X123118476Y-78382761D01*
X123166095Y-78335142D01*
X123213714Y-78239904D01*
X123213714Y-78001809D01*
X123166095Y-77906571D01*
X123118476Y-77858952D01*
X123023238Y-77811333D01*
X122832761Y-77811333D01*
X122737523Y-77858952D01*
X122689904Y-77906571D01*
X122642285Y-78001809D01*
%TO.C,C7*%
X122261333Y-74525142D02*
X122213714Y-74572761D01*
X122070857Y-74620380D01*
X121975619Y-74620380D01*
X121832761Y-74572761D01*
X121737523Y-74477523D01*
X121689904Y-74382285D01*
X121642285Y-74191809D01*
X121642285Y-74048952D01*
X121689904Y-73858476D01*
X121737523Y-73763238D01*
X121832761Y-73668000D01*
X121975619Y-73620380D01*
X122070857Y-73620380D01*
X122213714Y-73668000D01*
X122261333Y-73715619D01*
X122594666Y-73620380D02*
X123261333Y-73620380D01*
X122832761Y-74620380D01*
%TO.C,C8*%
X122261333Y-70715142D02*
X122213714Y-70762761D01*
X122070857Y-70810380D01*
X121975619Y-70810380D01*
X121832761Y-70762761D01*
X121737523Y-70667523D01*
X121689904Y-70572285D01*
X121642285Y-70381809D01*
X121642285Y-70238952D01*
X121689904Y-70048476D01*
X121737523Y-69953238D01*
X121832761Y-69858000D01*
X121975619Y-69810380D01*
X122070857Y-69810380D01*
X122213714Y-69858000D01*
X122261333Y-69905619D01*
X122832761Y-70238952D02*
X122737523Y-70191333D01*
X122689904Y-70143714D01*
X122642285Y-70048476D01*
X122642285Y-70000857D01*
X122689904Y-69905619D01*
X122737523Y-69858000D01*
X122832761Y-69810380D01*
X123023238Y-69810380D01*
X123118476Y-69858000D01*
X123166095Y-69905619D01*
X123213714Y-70000857D01*
X123213714Y-70048476D01*
X123166095Y-70143714D01*
X123118476Y-70191333D01*
X123023238Y-70238952D01*
X122832761Y-70238952D01*
X122737523Y-70286571D01*
X122689904Y-70334190D01*
X122642285Y-70429428D01*
X122642285Y-70619904D01*
X122689904Y-70715142D01*
X122737523Y-70762761D01*
X122832761Y-70810380D01*
X123023238Y-70810380D01*
X123118476Y-70762761D01*
X123166095Y-70715142D01*
X123213714Y-70619904D01*
X123213714Y-70429428D01*
X123166095Y-70334190D01*
X123118476Y-70286571D01*
X123023238Y-70238952D01*
%TO.C,C9*%
X122261333Y-66905142D02*
X122213714Y-66952761D01*
X122070857Y-67000380D01*
X121975619Y-67000380D01*
X121832761Y-66952761D01*
X121737523Y-66857523D01*
X121689904Y-66762285D01*
X121642285Y-66571809D01*
X121642285Y-66428952D01*
X121689904Y-66238476D01*
X121737523Y-66143238D01*
X121832761Y-66048000D01*
X121975619Y-66000380D01*
X122070857Y-66000380D01*
X122213714Y-66048000D01*
X122261333Y-66095619D01*
X122737523Y-67000380D02*
X122928000Y-67000380D01*
X123023238Y-66952761D01*
X123070857Y-66905142D01*
X123166095Y-66762285D01*
X123213714Y-66571809D01*
X123213714Y-66190857D01*
X123166095Y-66095619D01*
X123118476Y-66048000D01*
X123023238Y-66000380D01*
X122832761Y-66000380D01*
X122737523Y-66048000D01*
X122689904Y-66095619D01*
X122642285Y-66190857D01*
X122642285Y-66428952D01*
X122689904Y-66524190D01*
X122737523Y-66571809D01*
X122832761Y-66619428D01*
X123023238Y-66619428D01*
X123118476Y-66571809D01*
X123166095Y-66524190D01*
X123213714Y-66428952D01*
%TO.C,H1*%
X150368095Y-70937380D02*
X150368095Y-69937380D01*
X150368095Y-70413571D02*
X150939523Y-70413571D01*
X150939523Y-70937380D02*
X150939523Y-69937380D01*
X151939523Y-70937380D02*
X151368095Y-70937380D01*
X151653809Y-70937380D02*
X151653809Y-69937380D01*
X151558571Y-70080238D01*
X151463333Y-70175476D01*
X151368095Y-70223095D01*
%TO.C,H2*%
X150368095Y-100392380D02*
X150368095Y-99392380D01*
X150368095Y-99868571D02*
X150939523Y-99868571D01*
X150939523Y-100392380D02*
X150939523Y-99392380D01*
X151368095Y-99487619D02*
X151415714Y-99440000D01*
X151510952Y-99392380D01*
X151749047Y-99392380D01*
X151844285Y-99440000D01*
X151891904Y-99487619D01*
X151939523Y-99582857D01*
X151939523Y-99678095D01*
X151891904Y-99820952D01*
X151320476Y-100392380D01*
X151939523Y-100392380D01*
%TD*%
M02*
