%TF.GenerationSoftware,KiCad,Pcbnew,(5.1.6)-1*%
%TF.CreationDate,2020-10-07T17:19:25+08:00*%
%TF.ProjectId,MGame HID,4d47616d-6520-4484-9944-2e6b69636164,rev?*%
%TF.SameCoordinates,Original*%
%TF.FileFunction,Soldermask,Bot*%
%TF.FilePolarity,Negative*%
%FSLAX46Y46*%
G04 Gerber Fmt 4.6, Leading zero omitted, Abs format (unit mm)*
G04 Created by KiCad (PCBNEW (5.1.6)-1) date 2020-10-07 17:19:25*
%MOMM*%
%LPD*%
G01*
G04 APERTURE LIST*
%ADD10O,3.700000X1.900000*%
%ADD11R,3.700000X1.900000*%
%ADD12O,1.900000X3.700000*%
%ADD13R,1.900000X3.700000*%
%ADD14C,1.116000*%
%ADD15O,1.827200X1.827200*%
%ADD16R,1.827200X1.827200*%
%ADD17C,3.300000*%
G04 APERTURE END LIST*
D10*
%TO.C,J1*%
X114300000Y-64770000D03*
X114300000Y-68580000D03*
X114300000Y-72390000D03*
X114300000Y-76200000D03*
X114300000Y-80010000D03*
X114300000Y-83820000D03*
X114300000Y-87630000D03*
X114300000Y-91440000D03*
D11*
X114300000Y-95250000D03*
%TD*%
%TO.C,J2*%
X131318000Y-95250000D03*
D10*
X131318000Y-91440000D03*
X131318000Y-87630000D03*
X131318000Y-83820000D03*
X131318000Y-80010000D03*
X131318000Y-76200000D03*
X131318000Y-72390000D03*
X131318000Y-68580000D03*
X131318000Y-64770000D03*
%TD*%
D12*
%TO.C,J3*%
X186055000Y-107950000D03*
X182245000Y-107950000D03*
X178435000Y-107950000D03*
X174625000Y-107950000D03*
X170815000Y-107950000D03*
D13*
X167005000Y-107950000D03*
%TD*%
D10*
%TO.C,J4*%
X185420000Y-63500000D03*
X185420000Y-67310000D03*
X185420000Y-71120000D03*
X185420000Y-74930000D03*
X185420000Y-78740000D03*
X185420000Y-82550000D03*
X185420000Y-86360000D03*
X185420000Y-90170000D03*
D11*
X185420000Y-93980000D03*
%TD*%
%TO.C,J5*%
X171450000Y-93980000D03*
D10*
X171450000Y-90170000D03*
X171450000Y-86360000D03*
X171450000Y-82550000D03*
X171450000Y-78740000D03*
X171450000Y-74930000D03*
X171450000Y-71120000D03*
X171450000Y-67310000D03*
X171450000Y-63500000D03*
%TD*%
D14*
%TO.C,XA1*%
X158860000Y-109151001D03*
X158860000Y-63431001D03*
X143620000Y-109151001D03*
D15*
X143620000Y-88831001D03*
X158860000Y-96451001D03*
D16*
X158860000Y-106611001D03*
D15*
X143620000Y-106611001D03*
X143620000Y-73591001D03*
X143620000Y-101531001D03*
X158860000Y-93911001D03*
X143620000Y-98991001D03*
X143620000Y-93911001D03*
X143620000Y-68511001D03*
X143620000Y-96451001D03*
X158860000Y-104071001D03*
X158860000Y-98991001D03*
X158860000Y-101531001D03*
X158860000Y-91371001D03*
X158860000Y-88831001D03*
X158860000Y-86291001D03*
X158860000Y-83751001D03*
X158860000Y-81211001D03*
X158860000Y-78671001D03*
X158860000Y-76131001D03*
X158860000Y-73591001D03*
X158860000Y-71051001D03*
D14*
X143620000Y-63431001D03*
D15*
X143620000Y-71051001D03*
X143620000Y-65971001D03*
X158860000Y-65971001D03*
X158860000Y-68511001D03*
X143620000Y-91371001D03*
X143620000Y-76131001D03*
X143620000Y-78671001D03*
X143620000Y-81211001D03*
X143620000Y-83751001D03*
X143620000Y-86291001D03*
X143620000Y-104071001D03*
%TD*%
D17*
%TO.C,H1*%
X151130000Y-66040000D03*
%TD*%
%TO.C,H2*%
X151130000Y-104140000D03*
%TD*%
M02*
